<svg id="ae862c1a-83c1-49e7-ba09-10ae35c7876f" data-name="Capa 1" xmlns="http://www.w3.org/2000/svg" width="200" height="200" viewBox="0 0 200 200"><polygon points="100 26 100 26 100 26 31.106 50.568 41.614 141.662 100 174 100 174 100 174 158.386 141.662 168.894 50.568 100 26" style="fill:#dd0031"/><polygon points="100 26 100 42.428 100 42.354 100 117.316 100 117.316 100 174 100 174 158.386 141.662 168.894 50.568 100 26" style="fill:#c3002f"/><path d="M100,42.354l-43.068,96.57H72.99l8.658-21.608h36.556l8.658,21.608H142.92L100,42.354Zm12.58,61.642H87.42L100,73.73Z" style="fill:#fff"/></svg>