<svg id="b0090254-671c-4a4e-bb00-9b9f9b552021" data-name="Capa 1" xmlns="http://www.w3.org/2000/svg" xmlns:xlink="http://www.w3.org/1999/xlink" width="200" height="200" viewBox="0 0 200 200"><defs><linearGradient id="eb711371-bff1-45e8-8858-171a1783182a" x1="-1180.4695" y1="638.4384" x2="-1180.1586" y2="638.183" gradientTransform="matrix(147.7261, 0, 0, -198.7057, 174457.9398, 126932.0148)" gradientUnits="userSpaceOnUse"><stop offset="0" stop-color="#4285eb"/><stop offset="1" stop-color="#2ec7ff"/></linearGradient><linearGradient id="f54a1abe-0463-456c-81ee-a27dfd274cf5" x1="-1180.3329" y1="638.6379" x2="-1180.4381" y2="637.9065" gradientTransform="matrix(147.7261, 0, 0, -198.7057, 174457.9398, 126932.0148)" gradientUnits="userSpaceOnUse"><stop offset="0" stop-color="#29cdff"/><stop offset="0.3786" stop-color="#148eff"/><stop offset="1" stop-color="#0a60ff"/></linearGradient><linearGradient id="aef40bd0-24dd-4d5b-a822-4ace8341810f" x1="-1164.7079" y1="635.2599" x2="-1165.0651" y2="634.3808" gradientTransform="matrix(49.2057, 0, 0, -77.4363, 57466.9154, 49259.2128)" gradientUnits="userSpaceOnUse"><stop offset="0" stop-color="#fa816e"/><stop offset="0.4147" stop-color="#f74a5c"/><stop offset="1" stop-color="#f51d2c"/></linearGradient><linearGradient id="a643e54b-dd41-4785-a2ab-30f38e89d9ab" x1="-1163.1706" y1="631.7672" x2="-1163.4248" y2="630.7514" gradientTransform="matrix(47.2, 0, 0, -47.162, 55008.7199, 29868.6972)" gradientUnits="userSpaceOnUse"><stop offset="0" stop-color="#fa8e7d"/><stop offset="0.5126" stop-color="#f74a5c"/><stop offset="1" stop-color="#f51d2c"/></linearGradient></defs><path d="M94.28,35.3858,35.335,94.2821a8.0795,8.0795,0,0,0-.02,11.4262l.02.02L94.28,164.625a8.0957,8.0957,0,0,0,11.4491.0076l.0077-.0076,24.7141-24.6939a7.2643,7.2643,0,1,0-10.2773-10.2692l-18.7359,18.72a1.9227,1.9227,0,0,1-2.7743,0l-47.072-47.0328a1.9186,1.9186,0,0,1,0-2.7716l47.072-47.0336a1.9229,1.9229,0,0,1,2.7743,0l18.7359,18.72a7.264,7.264,0,0,0,10.2773-10.2685L105.7393,35.3042a8.1741,8.1741,0,0,0-11.46.0809Z" style="fill:url(#eb711371-bff1-45e8-8858-171a1783182a)"/><path d="M94.28,35.3858,35.335,94.2821a8.0795,8.0795,0,0,0-.02,11.4262l.02.02L94.28,164.625a8.0957,8.0957,0,0,0,11.4491.0076l.0077-.0076,24.7141-24.6939a7.2643,7.2643,0,1,0-10.2773-10.2692l-18.7359,18.72a1.9227,1.9227,0,0,1-2.7743,0l-47.072-47.0328a1.9186,1.9186,0,0,1,0-2.7716l47.072-47.0336c1.9637-1.6926,5.1683-5.1224,9.874-5.9249q5.2459-.8933,11.47,3.9362L105.7386,35.3042a8.1741,8.1741,0,0,0-11.46.0809Z" style="fill:url(#f54a1abe-0463-456c-81ee-a27dfd274cf5)"/><path d="M136.1565,124.1847a7.2713,7.2713,0,0,0,10.2773,0l18.2307-18.2159a8.0784,8.0784,0,0,0,0-11.4467l-18.39-18.3089a7.27,7.27,0,0,0-10.2867,10.2773l12.42,12.41a1.9194,1.9194,0,0,1,0,2.7723l-12.2518,12.2424A7.2566,7.2566,0,0,0,136.1565,124.1847Z" style="fill:url(#aef40bd0-24dd-4d5b-a822-4ace8341810f)"/><ellipse cx="100.3026" cy="100.3001" rx="15.915" ry="15.9022" style="fill:url(#a643e54b-dd41-4785-a2ab-30f38e89d9ab)"/></svg>