<?xml version="1.0" encoding="UTF-8"?>
<svg id="e12e840d-0b77-4580-bddb-8ce16d52227c" xmlns="http://www.w3.org/2000/svg" viewBox="0 0 200 200">
  <defs>
    <style>
      .cls-1 {
        fill: #ff5d01;
      }

      .cls-1, .cls-2 {
        fill-rule: evenodd;
      }
    </style>
  </defs>
  <path fill="black"  id="letter-a" class="cls-2" d="m122.19,29.71c1.21,1.5,1.83,3.53,3.06,7.58l26.93,88.47c-9.96-5.17-20.78-8.89-32.2-10.9l-17.54-59.26c-.29-.97-1.18-1.63-2.19-1.63s-1.91.67-2.19,1.64l-17.32,59.22c-11.47,2-22.34,5.73-32.34,10.92l27.07-88.48c1.24-4.04,1.86-6.06,3.06-7.56,1.07-1.32,2.46-2.35,4.03-2.98,1.79-.72,3.9-.72,8.13-.72h19.33c4.23,0,6.35,0,8.14.72,1.58.64,2.97,1.66,4.03,2.99Z"/>
  <path fill="#ff5d01" class="cls-1" d="m125.42,129.97c-4.44,3.8-13.3,6.39-23.51,6.39-12.53,0-23.03-3.9-25.82-9.15-1,3.01-1.22,6.45-1.22,8.65,0,0-.66,10.79,6.85,18.3,0-3.9,3.16-7.06,7.06-7.06,6.68,0,6.67,5.83,6.67,10.56,0,.14,0,.28,0,.42,0,7.18,4.39,13.33,10.63,15.92-.93-1.92-1.45-4.07-1.45-6.34,0-6.85,4.02-9.39,8.69-12.36,3.72-2.36,7.85-4.98,10.69-10.23,1.48-2.74,2.33-5.88,2.33-9.22,0-2.05-.32-4.03-.91-5.88Z"/>
</svg>