<svg id="b7ff507b-2c5e-4114-a210-524e5a460fc3" data-name="Capa 1" xmlns="http://www.w3.org/2000/svg" width="200" height="200" viewBox="0 0 200 200"><path d="M138.375,69.325c2.1127-10.7527.9312-18.9133-4.0625-22.1562A9.933,9.933,0,0,0,128.4062,45.7c-12.1285.46-31.6983,17.16-47.6875,41.7813-18.95,29.1806-25.6845,58.4254-15.0312,65.3437,5.0569,3.284,13.1151.956,22.2187-5.5312" style="fill:none;stroke:#66595c;stroke-linecap:round;stroke-width:5px"/><path d="M148.0937,117.0438c8.9944-3.4892,14.5251-8.2651,14.8125-13.75.6648-12.6852-26.9412-24.4291-61.6875-26.25-3.2574-.1708-6.46-.2606-9.5937-.25-30.2872.1019-53.9288,8.41-54.5313,19.9062-.2869,5.4742,4.7,10.7824,13.25,15.1875" style="fill:none;stroke:#66595c;stroke-linecap:round;stroke-width:5px"/><path d="M91.4062,50.4188c-6.1538-5.1059-11.9254-7.8478-16.5625-7.5a8.9425,8.9425,0,0,0-3.4375.9375C60.0882,49.6231,63.7039,79.4484,79.5,110.45s37.7757,51.4544,49.0937,45.6875c10.8844-5.5459,7.9467-33.3377-6.3437-63.0312" style="fill:none;stroke:#66595c;stroke-linecap:round;stroke-width:5px"/><path d="M107.9062,100.8877a7.5,7.5,0,0,1-15,0h0a7.5,7.5,0,0,1,15,0Z" style="fill:#66595c"/></svg>