<svg id="f663674c-f5df-4ae7-9bd7-67e9d49571eb" data-name="Capa 1" xmlns="http://www.w3.org/2000/svg" width="200" height="200" viewBox="0 0 200 200"><path d="M130.1028,74.0549l-.0359-.347-.5623.0479.0359.3469Zm3.7808,9.093.012.1915.3948-.0359a1.5142,1.5142,0,0,1,.12-.55l-.0359-.347C134.2066,82.4181,134.0391,82.6694,133.8836,83.1479Zm-14.7523,11.45c-.0239-.323-1.0289-1.5793-3.0151-3.7927-.0359-.4068.6461-1.017,2.046-1.8187l3.9961-3.4816c.8974-1.1367,1.4238-2.9792,1.5794-5.54l-.0479-.5863c-.1555-1.7707-1.4358-3.1945-3.8646-4.2833q-2.1535-1.4536-7.753-1.6033A45.691,45.691,0,0,0,99.988,76.8067,49.6048,49.6048,0,0,1,95.3219,79.75l.0239.2991a1.1093,1.1093,0,0,0,.4666-.2034.2642.2642,0,0,1,.335.2632l.2991-.1555.1436-.012.012.1317c.0119.1555-1.0649,1.005-3.2424,2.5245l.1675.311-.1436.012-.3589-.1316c.0119.1077-.1436.18-.4427.2034l.0119.1316.347.4307a1.318,1.318,0,0,1-.5025-.12,2.4166,2.4166,0,0,0-1.4836.8136l.2034-.8854a72.29,72.29,0,0,0,1.4956-8.3512l-.0359-.1556a6.07,6.07,0,0,1-1.4477-1.352,4.8155,4.8155,0,0,0,0-.6341l-.0359-.1316-.1436.0359q-2.369,3.5535-9.129,12.132-5.1507,6.102-5.3122,6.7839c-1.4,1.4477-2.07,2.3212-1.9981,2.62-.3709.2393-.5264.4785-.4666.7418a.1483.1483,0,0,1-.2034-.12A4.0746,4.0746,0,0,1,71.2133,96.8l-1.2443.2871a.3007.3007,0,0,0-.2393.359l.0359.1555.4666-.1077.0359.1316-1.0529.4068-1.8665.4308-.9811.06c-.1435.1436.7777-.012.4188.0718l-1.22.2871c-.7418.1675-1.1486.1077-1.22-.1914l-.1435.0359a.7006.7006,0,0,1,.0119.3111l-.0718-.2992-.9811.2274q-.1075-.6821-3.9722-4.9533c-.0478-.55.8615-1.352,2.716-2.393l5.24-4.6063q1.7589-2.2613,2.0938-7.2505l-.0718-.7777c-.2034-2.3451-1.9023-4.2355-5.0969-5.6951-1.89-1.28-5.2883-1.9622-10.1937-2.07q-6.102.52-15.9129,4.3192A60.8253,60.8253,0,0,1,31.826,79.415l.0359.4068a1.6128,1.6128,0,0,0,.61-.2393.3461.3461,0,0,1,.4307.335L33.31,79.69l.2034-.012.012.1915c.0119.1914-1.4119,1.3041-4.2953,3.3381l.2273.3589-.2034.012-.4427-.1556c.012.12-.1914.2034-.61.2393l.024.2154.4786.5264a1.7462,1.7462,0,0,1-.6461-.1316,4.07,4.07,0,0,0-2.74,2.022l.2273.359a5.74,5.74,0,0,1,1.364-1.0888l.0478.5862a1.9718,1.9718,0,0,0-.61.2393l.4906.7418a16.21,16.21,0,0,1,3.1227-2.62c.5624.1436.8615.323.8734.5145l.4308-.0359a33.4013,33.4013,0,0,1,9.1648-4.9533l.0359.4068q-.8435,1.2562-1.1486,1.2921a1.3132,1.3132,0,0,0,.2991.7538q.0718.7717-4.1158,10.3972-9.4938,22.3617-15.9607,33.07a1.3817,1.3817,0,0,0,.2513.5743,5.3588,5.3588,0,0,0,2.022-.7657l.2273-.024.0359.4068.3948-.0359.4068-.2273c.012.12.1436.18.4188.1555l.0359.4068a3.63,3.63,0,0,1-.67,1.8186,9.4532,9.4532,0,0,0-1.3879,3.0869l.0119.1914.3949-.0359a25.0986,25.0986,0,0,0,3.9243-5.6592,62.6981,62.6981,0,0,0,11.51-4.3431,10.7751,10.7751,0,0,0,6.09-2.0938l-.0239-.2154-1.0051.2991-.2273.024-.0239-.2154a9.0707,9.0707,0,0,0,4.0679-1.3281q5.7251-4.4148,8.65-6.2574,6.0121-4.415,7.8009-8.6025c.2153-.0479.4307-.0957.67-.1556a8.8505,8.8505,0,0,0,.9572-.06c-.024-.1077.0239-.1675.1316-.1914.8973-.0957.4666.06,1.0409-.0718l1.5075-.347c-.0957.024-.1316.0718-.1077.1675l.2274-.1435a.3532.3532,0,0,1-.12-.024l.2513-.06-.12.0718a1.4717,1.4717,0,0,0,.55-.0359l.1077.4427-6.8557,10.9-1.52,1.9024-.7418,2.4886.1436-.0359.7418-.3111-.2393.9691.0718.2872.2034.2512c-.0958.024-.1317.0838-.1077.1915l.0359.1555.3111-.0718q.6819-.5922.5742-1.0768a2.8246,2.8246,0,0,0,.9811.0718l.0359.1555c-.2991.0718-.4546.3111-.4785.7179l.0358.1555.1675-.0358c2.4887-2.716,8.5906-12.0125,13.4841-18.3178q-.2333-1.023,7.6573-2.8475l.1675-.0359q.2871,1.2383-1.22,5.9942a16.15,16.15,0,0,0-.9093,3.1347,24.0419,24.0419,0,0,0-1.1845,4.14l-1.8664,6.1138a55.8155,55.8155,0,0,0-2.7758,9.8947,1.2148,1.2148,0,0,1,.5145.0479l.2632-.2273a.1483.1483,0,0,0,.2034.12l-.1077-.4427.8136-.0239c.2393-.06.4427-.359.61-.9093-.0359-.8256.1316-1.2683.5025-1.364a13.204,13.204,0,0,1,.9213-2.9792,13.2093,13.2093,0,0,1,1.0409-3.3381c.7059-2.5365,1.22-3.8406,1.5554-3.9243l.0718.311-.5145,1.3281a65.0742,65.0742,0,0,1-2.7279,9.44l.2632,1.1486.1675-.0359q3.3381-7.1787,9.6075-28.4277A3.7107,3.7107,0,0,1,89.22,95.3279l-.2392-.2513-.0359-.1316a1.635,1.635,0,0,0,1.005-.5623c-.0239-.1077-.4427-.2633-1.2563-.4786l2.0818-8.9256a3.0888,3.0888,0,0,1,.8017-.6221l.0359.4546a1.1114,1.1114,0,0,0-.4667.2034l.3949.5623a12.8025,12.8025,0,0,1,2.345-2.01c.4307.12.6461.2632.67.4068l.3111-.0239a25.3645,25.3645,0,0,1,6.9753-3.733l.024.2991q-.6282.9513-.8615.9692a1.3094,1.3094,0,0,0,.1914.5743q.0538.5922-3.0988,7.9085-7.2146,16.96-12.12,25.1017a1.1108,1.1108,0,0,0,.2154.4426,3.8813,3.8813,0,0,0,1.52-.5862l.1436-.012.0239.2991.335-.0239.2991-.1555q.018.1255.3231.1076l.0239.3231a2.72,2.72,0,0,1-.5145,1.3639,6.8146,6.8146,0,0,0-1.0887,2.3331l.0119.1556.3111-.024a18.9038,18.9038,0,0,0,2.9792-4.3072,48.228,48.228,0,0,0,8.7341-3.29,8.2048,8.2048,0,0,0,4.6422-1.5912l-.0119-.1556-.7777.2274-.1675.0119-.012-.1555a6.8862,6.8862,0,0,0,3.0869-.9931c2.8954-2.2254,5.0849-3.8167,6.5685-4.75,4.6183-3.362,6.7719-6.5925,6.5087-9.6913Zm-.79.2034.1077,1.2084c-.1435.2991-.2991.4547-.4427.4667l-.1794-2.058C118.1622,94.5382,118.33,94.6578,118.3416,94.8014ZM27.7461,85.0623l-.2034.0119-.0359-.3709.8256-.0718.0119.1915A1.5856,1.5856,0,0,0,27.7461,85.0623ZM23.714,125.3948a2.56,2.56,0,0,0-1.28-.2633l-.0478-.5862c-.024-.2274.1077-.3829.3948-.4427.2632-.0239.4188.1675.4427.55a8.7017,8.7017,0,0,1,1.1486-1.2922l.4427.18c-.1436,1.1964-.5145,1.8066-1.1008,1.8545ZM66.7984,80.3243c-.2034.0239-.61-.61-1.1965-1.8665l-.0359-.3709c.3829-.0359.7777.5863,1.1965,1.8665Zm-.5743-4.4628-.1675.3949-5.8507-2.4408q5.8507.1974,6.0182,2.0459ZM41.5173,97.0747l-.8256.0718-.0359-.3709.8256-.0718Zm-.67-12.7423.2034-.0119.0478.5862c-.1914.012-.4427.2991-.7537.85l-.0359-.4068c.3709-.4427.5623-.7777.5384-1.017Zm-1.7349,4.0919.0718.7777-.2034.012-.0718-.7777Zm-.9093,1.46.3948-.0359c-.0359.6461-.2153.9931-.5384,1.017l-.2034.0119a1.8753,1.8753,0,0,0,.347-.993Zm-.682,2.034.2273-.024.012.1915-.3709.6221-.3948.0359-.012-.1914A.5165.5165,0,0,0,37.5211,91.918Zm-.67,1.8305-.12.9811-.2034.012-.0838-.9691.4068-.024ZM30.139,112.832c-.2632,1.34-.55,2.022-.8495,2.0459l-.012-.1914a2.1472,2.1472,0,0,1,.8615-1.8545ZM28.9066,115.5l.012.1914a.3462.3462,0,0,1-.3589.4307l-.012-.1914Q28.5119,115.59,28.9066,115.5Zm-.3589,5.54.6222-.06.0239.2154a1.6122,1.6122,0,0,0-.61.2393l-.3948.0359c-.024-.2034.1076-.359.3589-.4307Zm17.7075-5.4678q-5.24,2.5844-6.1617,3.5056-5.6712,1.9742-5.6233,2.4527a61.6486,61.6486,0,0,0-6.64,2.9194,2.3865,2.3865,0,0,1-1.0887-.2872,1.7609,1.7609,0,0,1,.9093-1.675,3.5318,3.5318,0,0,1,1.687.2632,16.4153,16.4153,0,0,1,3.2543-1.0649l-.0359-.4068-1.2443.1077a16.9045,16.9045,0,0,1,3.6013-1.687l.6222-.06.012.1914c-1.0649.0958-1.6511.4068-1.7828.9692.024.2512.1676.3589.4308.335.8016-.5025,1.1964-.8017,1.1845-.8854q2.2792-.4308,12.5986-6.5925l.0359.3709c.012.1795-.5743.682-1.7588,1.5435Zm-10.5527,3.47a4.0739,4.0739,0,0,0,2.5843-1.1965c.2872-.0239.4427.0838.4547.335a9.1947,9.1947,0,0,0-2.8117,1.2444l-.2034.0119-.0239-.3948ZM52.728,105.9643,47.4517,110.14a53.8721,53.8721,0,0,1-6.3293,3.8884q-9.3682,5.1508-11.6415,5.3482l-.2273.0239q.2871-1.0589,8.3513-17.0854,3.5533-.3051,11.1868-3.3141l1.2443-.1077c2.5724-.2273,4.4987.2752,5.7669,1.4716l.0718.7777q-1.4356,4.1278-3.1466,4.8217Zm-10.3134-5.8028.8495-.0718.012.1915-.8495.0718ZM54.3433,98.14l.6221-.06c.5743.2752.8734.5145.8974.73l.0119.1915a1.7469,1.7469,0,0,1-1.5314-.8615ZM56.03,88.532a24.35,24.35,0,0,1-4.5226,3.362c-.8136.0718-3.8406,1.2443-9.0811,3.5415a1.658,1.658,0,0,0-.8375-.1435l-.0359-.3709a4.8968,4.8968,0,0,1,1.017-2.8476c.4068-2.1536.8494-3.386,1.34-3.6851l4.3671-9.8229q-.0718-.9153,2.8-1.4l.6221-.06.0479.5624c1.8784-.2872,3.0509-.4547,3.5056-.4906,3.47-.2991,5.2763.4068,5.42,2.0938l.3948-.0359-.0837-.993.4307-.0359a2.718,2.718,0,0,1,1.6392,2.0459,3.1872,3.1872,0,0,1-.8854,2.046c-.2632.0239-.4188-.1675-.4427-.55l-.4307.0359L61.199,82.98q-2.6382,3.9483-3.8287,4.056C56.6524,88.03,56.21,88.52,56.03,88.532Zm2.68,6.88a1.5475,1.5475,0,0,0-.8614-.335L57.801,94.49l.3949-.0359.8734.5145a.3458.3458,0,0,1-.359.4427Zm2.7758,3.29c.3829.1555.61.323.6581.4785l-.1915.0479.012.012a.4242.4242,0,0,0-.12.0239l-.2871.2273Zm.2632,1.6511-.0359-.1556.5025-.12.0359.1555Zm1.2084,1.352c.5145-.0838.7658-.12,1.7229-.3351l.0359.1556-1.8186.4187a2.2925,2.2925,0,0,0,.06-.2392Zm1.7708.7537a7.7886,7.7886,0,0,0-1.8186.2513l-.0359-.1556,1.52-.49.73-.1675.0718.2871c-.323.0718-.0837.0718-.4666.2752Zm1.6152-.3829a.3287.3287,0,0,1-.4068-.2392l.4666-.1077a.2854.2854,0,0,1,.3829.2393Zm4.379-4.714-.0359-.1555.7538-.18.0718.2872Zm4.6782,28.691a1.1853,1.1853,0,0,0,.0359-.4786l.1675-.0359a.2686.2686,0,0,1,.3709.2154l.0359.1555Zm3.2783-27.4586-.335-.06a9.4962,9.4962,0,0,1-1.364.4547l-.3111.0718a.3066.3066,0,0,1-.3948-.2154l2.19-.5025.7179-.335.2393.2752A1.6,1.6,0,0,0,78.6792,98.5942Zm1.687-.5384L80.33,97.9a.9155.9155,0,0,0,.4068-.2632l1.5554-.3589.0359.1555A11.9892,11.9892,0,0,0,80.3662,98.0558Zm.2393-3.1467a1.2815,1.2815,0,0,0-.4308.2632c-.0239-.1077-.2393-.1077-.6461-.012-.0717-.2991,1.0769-.7178,3.4578-1.2682l.335-.0718.0718.2872C81.7182,94.598,80.7849,94.8732,80.6055,94.9091Zm4.1875-4.5226c-.1675,1.9024-.8375,2.9792-2.022,3.2544l-.0359-.1556-1.0528.4068L81.2156,94a1.1746,1.1746,0,0,1-.646-.012l-.0958-.4187a63.2631,63.2631,0,0,1,4.5705-6.3054l.3589.06A6.5388,6.5388,0,0,1,84.793,90.3865Zm7.4061-6.3412-.1436.0119-.0239-.2991.6222-.06.0119.1556a2,2,0,0,0-.4666.1914Zm-3.051,30.6412a1.9207,1.9207,0,0,0-.9571-.2154l-.0359-.4546q-.018-.2334.2871-.3231c.2034-.0239.3231.12.347.4308a5.2345,5.2345,0,0,1,.8615-.9931l.323.1316c-.12.9093-.3948,1.3879-.8256,1.4238Zm32.7111-34.2186c-.1555.0119-.4546-.4666-.9213-1.4358l-.0239-.2991c.2991-.0239.61.4427.9213,1.4Zm-.4307-3.4219-.1436.3111-4.4269-1.8545C119.8133,75.5983,121.3447,76.1128,121.4285,77.046ZM102.6561,93.1623l-.6221.06-.024-.2991.6222-.0479Zm-.5145-9.6793.1676-.012.0358.4546q-.2332.018-.5743.6461l-.0239-.2991a1.386,1.386,0,0,0,.3948-.79Zm-1.3041,3.1107.0479.5863-.1675.012-.0479-.5863Zm-.7059,1.1127.3111-.0239q-.0538.7537-.3949.79l-.1675.0119a1.6239,1.6239,0,0,0,.2513-.7777Zm-.5025,1.5315.1436-.012.0119.1556-.2752.4785-.311.024-.012-.1556c.323-.0239.4666-.1914.4427-.49Zm-.5025,1.3879-.1077.7657-.1436.012-.06-.7538.3111-.0239Zm-5.1089,14.513q-.3051,1.5075-.6461,1.5434l-.0119-.1316A1.7136,1.7136,0,0,1,94.0177,105.1388Zm-.9452,2.022.012.1316a.2742.2742,0,0,1-.2872.347l-.0119-.1556Q92.7674,107.2506,93.0725,107.1608Zm-.2632,4.2115.4786-.0359.0119.1556a1.3746,1.3746,0,0,0-.4666.1794l-.3111.024Q92.5043,111.444,92.8093,111.3723Zm13.4362-4.1517a27.92,27.92,0,0,0-4.69,2.6442c-2.8715,1.005-4.2953,1.6272-4.2714,1.8784a45.3733,45.3733,0,0,0-5.0131,2.2135,1.8648,1.8648,0,0,1-.8256-.2274,1.2738,1.2738,0,0,1,.694-1.2443,2.697,2.697,0,0,1,1.28.1915,13.8855,13.8855,0,0,1,2.4766-.8017l-.0239-.2991-.9811.0718a12.8741,12.8741,0,0,1,2.7519-1.2922l.4785-.0359.012.1316c-.8136.0718-1.2682.3111-1.364.7419a.2643.2643,0,0,0,.3351.2632c.5982-.3949.8853-.6222.8853-.694q1.7229-.3051,9.56-5.0131l.0239.2991c.012.1316-.4307.5145-1.328,1.1725Zm-8.0163,2.6322a3.2123,3.2123,0,0,0,1.9861-.8973.2642.2642,0,0,1,.3351.2632,7.61,7.61,0,0,0-2.13.9093l-.1675.012-.024-.2872ZM111.1749,99.91l-3.9842,3.2065a38.664,38.664,0,0,1-4.8457,2.9552q-7.1068,3.9125-8.8418,4.056l-.1675.012q.2154-.8076,6.3532-12.97a35.0122,35.0122,0,0,0,8.4829-2.5365l.9691-.0837a5.3889,5.3889,0,0,1,4.3671,1.1366l.0478.5862c-.73,2.058-1.52,3.2664-2.3809,3.6373Zm-7.8248-4.403.6221-.06.012.1555-.6222.06Zm9.0571-1.5434.4786-.0359c.4427.2154.67.4068.682.5623l.012.1316a1.337,1.337,0,0,1-1.1726-.658Zm1.2563-7.2864a18.3087,18.3087,0,0,1-3.41,2.56,45.7924,45.7924,0,0,0-6.8916,2.6681,1.57,1.57,0,0,0-.6341-.0838l-.0239-.2991a3.7556,3.7556,0,0,1,.7537-2.1656c.3111-1.6511.6581-2.5723,1.017-2.7877l3.3381-7.4659c-.0359-.4427.67-.8016,2.1058-1.0768l.4786-.0359.0359.4547q2.1177-.3411,2.6561-.3949c2.6322-.2273,4.0081.2992,4.1158,1.5913l.3111-.0239-.06-.7179.311-.0239a1.9863,1.9863,0,0,1,1.22,1.52,2.4761,2.4761,0,0,1-.6341,1.5674c-.2034.0239-.323-.12-.347-.4308l-.311.024-.0958.8973c-1.328,2.022-2.2972,3.0629-2.9073,3.1108-.5385.73-.8735,1.1007-1.029,1.1127Zm1.4,4.9772-.0359-.4546.311-.0239.67.4068a.28.28,0,0,1-.2872.323,1.2293,1.2293,0,0,0-.658-.2513Zm-55.695,29.0619-.3111.0718-.2632.2273a.2684.2684,0,0,0,.3709.2154c.2034-.0479.2871-.1675.2393-.3589Zm-1.1845-2.357.0359.1555c.2034-.0478.2871-.1675.2393-.3589l-.0359-.1555A.2811.2811,0,0,0,58.1839,118.36Zm8.423-20.0406.359-.0838-.0718-.311-.3589.0837Zm108.5663,9.117a20.1937,20.1937,0,0,1-4.8576.73l.024.2991.335-.0239.1794-.012-.0478-.0359.3948-.1555c3.6013-.3948,4.02-.2513,3.9842-.6581l-.0119-.1435Zm-19.5859,2.5963.0239.2991h.0479l-.024-.2991Zm-2.2494-7.8847-.323-.1076a5.4119,5.4119,0,0,0-.3829,1.2443l.012.1316c.2513-.012.4786-.4427.694-1.2683Zm22.5771,5.2286.024.2991.5264.0957-.0239-.2991Zm-24.7546,3.027-.8136-.0957-.1436.311.012.1556,4.8456-.4068-.0239-.2991Zm-2.2015-10.6126-.012-.1555-.1675.012-.2991.1914.1675.2871c.2274-.0239.335-.1316.3111-.335Zm29.2533,5.3841.2274-.024c.1316-.0119.1914-.12.1794-.311l-.1316-.2872a3.8741,3.8741,0,0,0-1.8784.4786l-.012-.1555-.993.0957c-.024-.2991-.1077-.4547-.2393-.4427l-.5145.0478c-.5982.0479-.8854.024-1.1845.2513-.012-.1077-.0479-.1555-.1077-.1555l-.5743.0478-.335.1915c-.012-.1077-.0479-.1556-.1077-.1556l-.2034.18-.0119-.1556-.8017-.06-.1914.012.0239.2991.4068.1077.3829-.0239a.6954.6954,0,0,0,.4427.0957l.335-.1675.0119.1316a24.51,24.51,0,0,1-3.1586.5982.5436.5436,0,0,0-.323-.1316l-.024.0239a.2535.2535,0,0,1-.2392-.2632l.67-.0837a4.1662,4.1662,0,0,0,.4546.12c.5384-.2632.5624-.3709.85-.3948l-.0239-.2991a19.5183,19.5183,0,0,1-3.41.323l-.1077.012L167.6,104.78c2.9672-.3589,1.9741-.1555,2.9911-.4426.012.1076.0479.1555.1077.1555a.6972.6972,0,0,1,.4068-.2034l.2034-.012a10.8588,10.8588,0,0,0,3.4458-.4546l.0119.1316.3351-.1675.311-.0239c-.0239-.2992.4308-.347.5863-.359l-.0239-.323c-3.6133.73-4.5585.5264-5.5635.8136l-.012-.1316a4.3694,4.3694,0,0,1-1.22.1076.6333.6333,0,0,0-.2991.1915c-.012-.1077-.0479-.1556-.12-.1556a.2441.2441,0,0,0-.06.012l-3.0629.5025c-.0119-.0837-.0478-.1316-.12-.12a15.6319,15.6319,0,0,1-3.29.5862.9994.9994,0,0,0-.3948.1675c-.012-.0837-.06-.1316-.1675-.12l-1.3042.1077-.8734.2153c-.0119-.0837-.06-.1316-.1675-.12a6.97,6.97,0,0,1-1.2682.2393h-.0239c-.2154.0239.1076-.06-.06-.1316l-.2632.1555c-.3828.0359-.18-.0239-1.4956-.012-2.3091.2872-2.0578.3231-2.3091.335l-.8615-.06a.1184.1184,0,0,1-.1316.1436c-.9811-.1316-1.4836-.2872-1.4955-.4666q.1974-1.4.6819-1.4358l.1675-.0119-.1435.311.1675-.0119c.3111-.1675.4546-.3231.4427-.4666l-.024-.3231-.311.0239-.024-.2991a1.0754,1.0754,0,0,1,.0958-.5982l.7059-1.1366.0239.2991.335-.0239-.0239-.2992-.1914-.2751a1.2217,1.2217,0,0,1,.5982-.347l-.012-.1555-.4546.0358-.0359-.4546a12.8153,12.8153,0,0,0,1.3161-3.3022l.323.1316c.2034-.012.2991-.1316.2872-.347l-.3111.0239-.012-.1316a1.14,1.14,0,0,1,.12-.6341,2.0026,2.0026,0,0,0,.67-1.5673c.0957-.012.1435.0359.1555.1435.4188-.2393.7418-.8734.9811-1.9263a60.1685,60.1685,0,0,0,3.1706-8.0282c2.6322-7.083,2.5245-7.8367,2.8954-9.5118l-.311.0239a1.08,1.08,0,0,1-.12.61,1.2326,1.2326,0,0,0-.5025-.12l-.012-.1316a3.6379,3.6379,0,0,1,.7777-2.2015l.1436-.012.2632,1.029.3111-.0239a9.3719,9.3719,0,0,1,.2393-1.2324c-.012-.1555-.1316-.2512-.3709-.2632l-.2991.1914c-.0239-.2153-.012-.7777.0239-1.675l-.1555.012a1.1638,1.1638,0,0,1-.4068-.6581l-1.711.1675a1.581,1.581,0,0,0-.1914-.5264c-.012-.1556.3709-.3111,1.16-.4666l.347.1316.3231-.1915c.0119.1077.0717.1556.1914.1436l.323-.1914c.012.1077.0718.1555.1915.1435l.1555-.0119-.0239-.347c-.2393.0239-.8734.0239-1.8785-.012l-.323.2154-.0119-.1914q-12.0425.987-13.6755,1.1366c-.1436.012-.7059,0-1.699-.0239.012.1316-.1077.2034-.347.2273l-.3469-.1555-1.1726.2991a7.7723,7.7723,0,0,1-1.3879-.06,1.1925,1.1925,0,0,1-.658.2512c-.1436.012,1.7109-.0957,3.4338-.2154a1.5709,1.5709,0,0,1-.8375.2633,1.149,1.149,0,0,1-.682-.12,19.4311,19.4311,0,0,1-2.5365.5982l-.3469-.1316-5.5994.8615a1.3983,1.3983,0,0,0-.7538-.12,9.3164,9.3164,0,0,0-1.4956.3231l-2.704,1.1246.2034.3351a1.4942,1.4942,0,0,0,.55-.2154l.9571.0837-.12.8974A2.41,2.41,0,0,0,130.378,76.52c-1.3281.5862-1.9861,1.005-1.9861,1.2563l.0119.1555.2034-.012.3589-.1914.4188.5025.06.694q.036.3229-6.6882,14.1062c-3.8765,8.8537-5.91,13.6994-6.1019,14.5728-1.328.3709-2.0938.9093-2.3211,1.6272.0239.2273.4188.3828,1.1845.4426l.0359.347-.347.5743.06.694q.0538.5383,2.9074.8255c-.0119-.12.0479-.1914.18-.2034a10.476,10.476,0,0,1-.3589,2.5126l.2033-.012a4.4584,4.4584,0,0,0,1.1247-2.2254l.1675-.012c.1915-.0119.3949.2034.6341.67q-.3588.1437-2.5125,5.7191l.2034.335.2034-.012q2.6382-6.6762,3.3142-7.3821,3.4637-.3051,11.9765-1.22l.3589-.2153a.1731.1731,0,0,0,.2154.1675l.3709-.0359.3589-.2154a.173.173,0,0,0,.2154.1675l4.2953-.3709c1.1366-.0957,1.675-.4427,1.6271-1.0289-.0119-.1556.6581-.335,2.01-.5265a1.6431,1.6431,0,0,1,.5863.1077c-.012-.1077.67-.2154,2.0339-.335.0359-.7179.2632-1.1007.67-1.1366l-.0359-.347a5.9447,5.9447,0,0,0-1.3161.2991,8.0522,8.0522,0,0,1-1.7109-.2034,1.5751,1.5751,0,0,1-.55.2154l-2.9911.0957-.3589.1914q-.018-.1615-.2154-.1436l-.1675.012-.3829.1914c-.0119-.1076-.323-.1914-.9452-.2751l-.3828.2273-.7418.06-.012-.1914q5.7789-.6282,5.7071-1.5674a.3339.3339,0,0,1,.4068.347l1.1247-.2872-.0359-.3469-9.2247.2512c.012.12-.0479.1915-.18.2034l-1.1246-.0957a1.3573,1.3573,0,0,0-.7179.2513l-.4188-.1556a12.7871,12.7871,0,0,0-2.5963.4188,16.3493,16.3493,0,0,0-2.6322.0359l-2.07.1794-.9572-.1076c-.0479-.61,1.1366-3.6133,3.5774-8.9974.7059-1.8186,1.352-2.9552,1.9741-3.3859a1.3936,1.3936,0,0,1,.5863.1435l1.4717-.5025.7537.12a17.28,17.28,0,0,0,4.4269-1.0888,2.0691,2.0691,0,0,1,.9572.0838l1.1246-.2633,3.35-.2871a22.2229,22.2229,0,0,0,4.6423-.9452l-.0359-.347c-.6222.06-.9452-.0478-.9692-.2991-.0359-.4666-.49-.658-1.3639-.5863l-.0359-.3469.9213-.2633,2.4168-.2034-.0359-.3469c-.0957.0119-.5863,0-1.4956-.0359l-.0359-.3709.9333-.0838c.2512-.0239.3589-.1435.335-.3828-1.2563.0359-1.89-.024-1.9024-.1915q-13.137.6462-13.173.2393a1.5046,1.5046,0,0,0-.55.2393l-.2274-.3589q3.4818-7.3941,4.08-7.4539a2.0671,2.0671,0,0,1-.2992.9212l.012.1556.3709-.0359c.9213-2.2015,1.699-3.3381,2.345-3.386,2.7519-.2393-.3828-.4188,5.5037-1.34a1.1519,1.1519,0,0,0,.5265.1436q3.4637-.7,9.6554-1.46l-.024-.347-2.2014.2034-.024-.347a1.1921,1.1921,0,0,0,.6581-.2512l.012.1914a1.2964,1.2964,0,0,0,.5025-.2393,1.5721,1.5721,0,0,1,.8734.1077,12.7179,12.7179,0,0,1,1.8425-.3709l1.3759-.1316c.3351-.2154.4906-.4068.4786-.5863l-.0119-.1555a4.3414,4.3414,0,0,1-1.2085-.0718.3513.3513,0,0,1,.3111-.3829l2.56-.2393,1.1726-.2991c.0119.1316.0718.18.1675.18a1.2964,1.2964,0,0,0,.5025-.2393c.06.012.1316.012.1914.0239a9.5167,9.5167,0,0,0-.5145,1.4l-.335.0239a1.4631,1.4631,0,0,0-.1914-.61l-.1675.012c-3.1108,8.6623-4.4987,12.6944-7.37,19.3467-.5264,1.6989-.9691,2.6441-1.352,2.8475a.2641.2641,0,0,0,.335.2632,4.1741,4.1741,0,0,1-.5862,2.4767c-1.3281,3.8287-2.2135,5.9225-2.6681,6.3053l.2991,1.8067a.28.28,0,0,1-.2872.323l-.311.0239c-.0479-.5025-.2274-.7418-.55-.7059l-.1675.012a7.1234,7.1234,0,0,0-.9213,2.2134l.3111-.0239a1.0359,1.0359,0,0,0,.5743-.9691l.6221-.06.359.1316a1.9182,1.9182,0,0,0-.3949,1.0887l.1676.2872-.4068.9572.0119.1555a1.9442,1.9442,0,0,1,1.1725.335,2.0988,2.0988,0,0,0,.9453-.3829c.3589-.0359,1.6989-.0478,4.0081-.0478l1.16-.3949a26.8678,26.8678,0,0,0,2.86-.0837l.5025-.0479.2632-.1794.0119.1555a7.8553,7.8553,0,0,1,2.369.0957l.012.1556-.7059.06.0239.2991a1.0131,1.0131,0,0,0,.5623-.2154c.1795-.0119.2872.0838.2991.2991a4.2216,4.2216,0,0,0-.9691.2154l-.3111-.1077c-.49.1316-.3828.1675-.7178.1915l-.4906-.0958a.1154.1154,0,0,1-.12.1436.2585.2585,0,0,0,.2991.2752l.5025-.0478,2.62-.2274.9931-.2153c.012.0837.0479.1316.1316.12l.4786-.18.8973-.0717c.694-.06.682-.1077,2.1895-.347-.0119-.0957.024-.1316.0958-.1436l.0119.1316a22.1108,22.1108,0,0,0,3.0031-.5743l.0359.0718c.61-.1436.2632-.1077.4308-.2273.0119.1077.0478.1555.1076.1555l.4308-.0359-.024-.323-.8734-.012-.0119-.0239c-.0359.012-.06.012-.0958.0239h-.12v.0239a4.5877,4.5877,0,0,1-.9811.0718l-2.1895.12-.012-.1556,1.22-.1675.4427-.0359.2512-.1794.012.1555c1.7229-.1436,2.3331.2872,10.3015-1.4118.4307-.0359.3948-.3948.67-1.1366a.7465.7465,0,0,1-.4188-.0957,12.4539,12.4539,0,0,1-2.2732.335c-.1077.0119-.1915-.0838-.2274-.2752l-.0119-.1316,1.22.0359a3.0858,3.0858,0,0,0,1.3281-.4308c0,.1077-.2393.1675-.0957.1556Zm-58.9134.9452-.5623.0478a10.6078,10.6078,0,0,1,.8973-2.56l.3709-.0359a9.7859,9.7859,0,0,1-.7059,2.5485Zm.682-2.7279-.012-.1556c-.0119-.1914.1077-.323.3709-.3828l.012.1555C120.3636,103.2364,120.244,103.368,119.9808,103.392Zm7.4778,5.7788.012.1556-.9333.0837-.0119-.1555Zm-1.1247-.0957c.012.1915-.2751.4068-.8973.6222l-1.1486-.0838-.3709.0359-.0359-.347,2.4528-.2273ZM133.8955,74.27l-.5623.0479-.012-.1914c-.0119-.1915.0958-.3231.3351-.3829l.2034-.012.3828.1556a.33.33,0,0,1-.347.3828Zm8.5547-1.675.18-.012.0239.347-.5145.0479a.351.351,0,0,1,.3111-.3829Zm-2.1536.7538-.85-.0957-.012-.1556a9.1753,9.1753,0,0,0,2.1656-.4068c.012.1316.1316.18.347.1556l.0239.3469-.335.0359a1.1483,1.1483,0,0,1-.682-.12A1.4612,1.4612,0,0,1,140.2966,73.349Zm1.0648,3.0988-.0119-.1555,1.3759-.1317.0119.1556Zm1.4717-1.1965-.012-.1914.67-.06.012.1914Zm.1555-2.345-.1795.012.1556-.3709,1.5315-.1436.0119.1914a9.2478,9.2478,0,0,0-1.52.3111Zm.7777,3.3022-.0239-.347.67-.06q.341-.0358.3589.3231Zm4.056-5.5276-.8615.2393-.1555.0119a8.8053,8.8053,0,0,1-1.5554-.0359C146.3626,70.8245,147.4275,70.7407,147.8223,70.6809ZM146.901,74.51l.012.1556-1.1845.1077-.012-.1556Zm1.9383.9213c-.012-.1436-.2393-.2393-.7059-.2871l-1.1845.335-.9093.0359c-.2034-.1436-.3111-.2393-.3231-.3111l1.0529.06,2.369-.3829,1.2084.0479.012.1914a6.7777,6.7777,0,0,0-1.5195.3111Zm12.1919-3.1467c.1435.012.2392.012.2751.012a4.591,4.591,0,0,1,1.4238-.9572,8.4155,8.4155,0,0,1-2.022,4.2l-.67-.4068a21.9,21.9,0,0,0,.9931-2.8476Zm-2.0579,3.53.1675-.012c-.2274.4307-.4308.6581-.5983.67l-.0359-.4546A1.0208,1.0208,0,0,0,158.9733,75.8137Zm-1.3281,3.1706a4.4939,4.4939,0,0,1,.9213-2.2135l.0119.1556c-.1675,1.1964-.4307,1.8306-.7777,1.8784l.06.7538a1.6964,1.6964,0,0,0-.4068.9571l-.1675.012-.0957-1.0409c.1915-.0239.347-.1914.4547-.5025Zm-.5145,1.7229a4.3631,4.3631,0,0,1-.347,1.2443l-.1675.012-.0359-.4547c.2274-.5264.4188-.79.55-.8016Zm-9.6554,28.0209-.0119-.1316.311-.0239.0359.4547c-.1675.0119-.2871-.0838-.335-.2992Zm13.7952.359c-.012-.1077-.06-.1556-.1675-.1436l-.7777.0718-.012-.1555h.0718l1.8425-.1556.012.1556A1.6116,1.6116,0,0,0,161.2705,109.0871Zm-.9213-.3829c.0718.0359.0359.0718,0,.0957C160.3133,108.788,160.2654,108.7521,160.3492,108.7042Zm.0957-2.1536-1.0289.0837-.012-.1555.9332-.0837.8136-.2034c.012.0957.06.1316.1675.12.9692-.1675.8735-.2154,1.34-.2513.1555-.0119.2512.0838.2632.2752l-2.4767.2154Zm3.6013-.3111a4.089,4.089,0,0,0-1.0169-.0718l-.012-.1316.9213-.0837.0119.1316c-.0957.0119.2513.0359.0957.1555Zm.0718-.1675-.0119-.1316.5025-.0479.0119.1317Zm1.1127-.0957-.0119-.1316a.8744.8744,0,0,0,.3589-.1914.3554.3554,0,0,1,.4068.335l-.7538-.012Zm1.4238-.1795-.0119-.1555.61-.0479.012.1556Zm.8495-.0718c-.012-.1794.06-.2871.2154-.311l.2034.2632a.111.111,0,0,1,.0957-.1436l.1555.2872-.67-.0958Zm-9.0332,3.9005-.024-.2991-.0957.0119.0239.2991Zm21.0217-5.4439c.0957-.06.1435-.12-.0838-.1555-.1077.12.12.1555-.12.1675l.0119.1077c.024-.024.0838-.06.1316-.0958l-.1316.1077v.012l-.2512.323.5025-.1794h.06l-.0239-.2991-.0957.0119Zm.8734.682-.0957.012.0239.2991.7059-.06c-.012-.1915-.4786-.2513-.6341-.2513Zm-1.0888-.5264.012-.012v-.012A.0419.0419,0,0,0,179.2771,104.3372Z"/><path d="M133.3452,82.1908l.0119.1914.3949-.0359a1.5146,1.5146,0,0,1,.12-.55l-.0359-.3469C133.6682,81.4609,133.5007,81.7122,133.3452,82.1908Zm-3.7808-9.0931-.0359-.3469-.5623.0478.0359.347ZM118.5929,93.6409c-.0239-.3231-1.0289-1.5794-3.0151-3.7928-.0359-.4068.6461-1.017,2.046-1.8186l3.9961-3.4817q1.3461-1.7049,1.5794-5.54l-.0479-.5863c-.1555-1.7707-1.4358-3.1945-3.8646-4.2833q-2.1535-1.4536-7.753-1.6032A45.6832,45.6832,0,0,0,99.45,75.85a49.5739,49.5739,0,0,1-4.6662,2.9432l.024.2992a1.1106,1.1106,0,0,0,.4666-.2034.2641.2641,0,0,1,.335.2632l.2991-.1556.1436-.0119.012.1316c.0119.1555-1.0649,1.005-3.2424,2.5245l.1675.3111-.1436.012-.3589-.1317c.0119.1077-.1436.18-.4427.2034l.0119.1316.347.4308a1.3187,1.3187,0,0,1-.5025-.12,2.4171,2.4171,0,0,0-1.4836.8136l.2034-.8854a72.2861,72.2861,0,0,0,1.4956-8.3512l-.0359-.1556a6.0693,6.0693,0,0,1-1.4477-1.3519,4.8173,4.8173,0,0,0,0-.6342l-.0359-.1316-.1436.0359Q88.0834,75.371,81.3233,83.95q-5.1507,6.1018-5.3122,6.7839c-1.4,1.4477-2.07,2.3211-1.9981,2.62-.3709.2393-.5264.4786-.4666.7418a.1483.1483,0,0,1-.2034-.12,4.0748,4.0748,0,0,1-2.6681,1.8664l-1.2443.2872a.3006.3006,0,0,0-.2393.3589l.0359.1556.4666-.1077.0359.1316-1.0529.4068-1.8665.4307-.9811.06c-.1435.1436.7777-.0119.4188.0718l-1.22.2872c-.7418.1675-1.1486.1076-1.22-.1915l-.1435.0359a.7021.7021,0,0,1,.0119.3111l-.0718-.2991-.9811.2273q-.1075-.6819-3.9722-4.9533c-.0479-.55.8615-1.352,2.716-2.3929l5.24-4.6064q1.7589-2.2613,2.0938-7.2505l-.0718-.7777c-.2034-2.345-1.9023-4.2354-5.0969-5.6951-1.89-1.28-5.2883-1.9622-10.1937-2.07q-6.102.52-15.9129,4.3192a60.8076,60.8076,0,0,1-6.1378,3.8765l.0359.4068a1.6111,1.6111,0,0,0,.61-.2393.3461.3461,0,0,1,.4307.335l.4068-.2273.2034-.0119.012.1914c.0119.1914-1.4119,1.3041-4.2953,3.3381l.2273.3589-.2034.012-.4427-.1555c.012.12-.1914.2034-.61.2393l.024.2153.4785.5265a1.7466,1.7466,0,0,1-.646-.1317,4.07,4.07,0,0,0-2.74,2.022l.2273.359a5.7433,5.7433,0,0,1,1.364-1.0888l.0478.5863a1.9665,1.9665,0,0,0-.61.2393l.4906.7418a16.2143,16.2143,0,0,1,3.1227-2.62c.5624.1436.8615.3231.8734.5145l.4308-.0359A33.404,33.404,0,0,1,39.89,79.08l.0359.4068q-.8435,1.2562-1.1486,1.2922a1.3129,1.3129,0,0,0,.2991.7537q.0718.7717-4.1158,10.3972Q25.4669,114.2916,19,125a1.3817,1.3817,0,0,0,.2513.5743,5.3553,5.3553,0,0,0,2.022-.7657l.2273-.0239.0359.4068.3948-.0359.4068-.2274c.012.12.1436.18.4188.1556l.0359.4068a3.63,3.63,0,0,1-.67,1.8186,9.4549,9.4549,0,0,0-1.3878,3.0868l.0119.1915.3949-.0359a25.1,25.1,0,0,0,3.9243-5.6593,62.6981,62.6981,0,0,0,11.51-4.3431,10.7736,10.7736,0,0,0,6.09-2.0938l-.024-.2153-1.005.2991-.2273.0239-.0239-.2154a9.0726,9.0726,0,0,0,4.0679-1.328q5.725-4.4149,8.65-6.2575,6.0121-4.415,7.8009-8.6025c.2153-.0478.4307-.0957.67-.1555a8.83,8.83,0,0,0,.9571-.06c-.0239-.1076.024-.1675.1317-.1914.8973-.0957.4666.06,1.0409-.0718l1.5075-.3469.2513-.06-.12.0718a1.47,1.47,0,0,0,.55-.0359l.1077.4427-6.8557,10.9-1.5195,1.9024-.7418,2.4886.1435-.0359.7419-.3111-.2393.9692.0717.2871.2034.2513c-.0957.0239-.1316.0837-.1076.1914l.0359.1555.311-.0717q.6821-.5923.5743-1.0769a2.8246,2.8246,0,0,0,.9811.0718l.0359.1556c-.2991.0718-.4546.311-.4786.7178l.0359.1556.1675-.0359c2.4887-2.716,8.5906-12.0124,13.4841-18.3177q-.2334-1.023,7.6573-2.8476l.1675-.0359q.2871,1.2384-1.22,5.9943a16.15,16.15,0,0,0-.9093,3.1347,24.04,24.04,0,0,0-1.1845,4.14L76.49,116.6487a55.8107,55.8107,0,0,0-2.7758,9.8947,1.2126,1.2126,0,0,1,.5145.0478l.2632-.2273a.1482.1482,0,0,0,.2034.12l-.1077-.4426.8136-.024c.2393-.06.4427-.3589.61-.9093-.0359-.8255.1316-1.2682.5025-1.3639a13.2142,13.2142,0,0,1,.9212-2.9792,13.2119,13.2119,0,0,1,1.041-3.3381c.7059-2.5365,1.22-3.8407,1.5554-3.9244l.0717.3111-.5144,1.328a65.08,65.08,0,0,1-2.7279,9.44l.2632,1.1486.1675-.0359q3.3381-7.1787,9.6075-28.4278a3.7109,3.7109,0,0,1,1.7827-2.8954l-.2393-.2513-.0359-.1316a1.635,1.635,0,0,0,1.0051-.5623c-.024-.1077-.4427-.2632-1.2563-.4786l2.0818-8.9255a3.0905,3.0905,0,0,1,.8017-.6222l.0358.4546a1.1117,1.1117,0,0,0-.4666.2034l.3949.5624a12.8069,12.8069,0,0,1,2.345-2.01c.4307.12.6461.2633.67.4068l.3111-.0239a25.3614,25.3614,0,0,1,6.9753-3.7329l.024.2991q-.6282.9511-.8615.9691a1.3089,1.3089,0,0,0,.1914.5743q.0538.5922-3.0988,7.9086-7.2146,16.96-12.12,25.1016a1.111,1.111,0,0,0,.2154.4427,3.8809,3.8809,0,0,0,1.52-.5863l.1436-.0119.0239.2991.335-.024.2991-.1555q.018.1257.3231.1077l.0239.323a2.72,2.72,0,0,1-.5145,1.364,6.8162,6.8162,0,0,0-1.0888,2.3331l.012.1555.3111-.0239a18.9042,18.9042,0,0,0,2.9792-4.3073,48.232,48.232,0,0,0,8.7341-3.29,8.2048,8.2048,0,0,0,4.6422-1.5913l-.0119-.1555-.7777.2273-.1675.012-.012-.1556a6.8854,6.8854,0,0,0,3.0868-.993c2.8955-2.2254,5.085-3.8167,6.5686-4.75C116.7025,99.97,118.8561,96.74,118.5929,93.6409Zm-.79.2033.1077,1.2085c-.1436.2991-.2991.4546-.4427.4666l-.1794-2.0579C117.6238,93.581,117.7913,93.7007,117.8032,93.8442ZM27.2077,84.1051l-.2034.012-.0359-.3709.8255-.0718.012.1914A1.589,1.589,0,0,0,27.2077,84.1051Zm-4.0321,40.3325a2.5589,2.5589,0,0,0-1.28-.2632l-.0478-.5863c-.024-.2273.1076-.3829.3948-.4427.2632-.0239.4188.1675.4427.55a8.7083,8.7083,0,0,1,1.1486-1.2922l.4427.18c-.1436,1.1964-.5145,1.8066-1.1008,1.8545ZM66.26,79.3671c-.2034.024-.61-.61-1.1965-1.8664l-.0359-.3709c.3829-.0359.7777.5862,1.1965,1.8664Zm-.5743-4.4627-.1675.3948-5.8507-2.4408q5.8506.1974,6.0182,2.046ZM40.9789,96.1175l-.8256.0718-.0359-.3709.8256-.0718Zm-.67-12.7422.2034-.012.0478.5863c-.1914.0119-.4427.2991-.7538.8495l-.0358-.4068c.3709-.4427.5623-.7777.5384-1.017ZM38.574,87.4671l.0718.7777-.2034.012-.0718-.7777Zm-.9093,1.46.3948-.0359c-.0359.6461-.2153.9931-.5384,1.017l-.2034.012a1.8753,1.8753,0,0,0,.347-.9931Zm-.682,2.034.2273-.0239.012.1914-.3709.6222-.3948.0358-.012-.1914A.5165.5165,0,0,0,36.9827,90.9608Zm-.67,1.8306-.12.9811-.2033.0119-.0838-.9691.4068-.0239Zm-6.7121,19.0834c-.2632,1.34-.55,2.022-.8495,2.046l-.012-.1915a2.1471,2.1471,0,0,1,.8615-1.8545Zm-1.2324,2.6681.012.1915a.3462.3462,0,0,1-.3589.4307l-.012-.1915Q27.9735,114.6327,28.3682,114.5429Zm-.3589,5.54.6222-.06.0239.2153a1.6139,1.6139,0,0,0-.61.2393l-.3948.0359c-.024-.2034.1076-.3589.3589-.4307Zm17.7075-5.4678q-5.24,2.5844-6.1617,3.5056-5.6712,1.9742-5.6233,2.4527a61.6486,61.6486,0,0,0-6.64,2.9194,2.3865,2.3865,0,0,1-1.0887-.2872,1.761,1.761,0,0,1,.9093-1.675,3.5318,3.5318,0,0,1,1.687.2632,16.41,16.41,0,0,1,3.2543-1.0648l-.0359-.4068-1.2443.1077a16.8988,16.8988,0,0,1,3.6013-1.687l.6222-.06.012.1915c-1.0649.0957-1.6511.4068-1.7827.9691.0239.2513.1675.3589.4307.335.8016-.5025,1.1964-.8016,1.1845-.8854Q37.12,118.8622,47.44,112.7l.0359.3709c.012.1794-.5743.6819-1.7588,1.5434Zm-10.5527,3.47a4.0733,4.0733,0,0,0,2.5843-1.1964c.2872-.024.4427.0837.4547.335a9.1909,9.1909,0,0,0-2.8117,1.2443l-.2034.0119-.0239-.3948ZM52.19,105.0072l-5.2764,4.1876c-3.9244,2.5723-6.03,3.8645-6.3412,3.8884q-9.3682,5.1508-11.6415,5.3482l-.2274.0239q.2873-1.0589,8.3513-17.0853,3.5535-.3051,11.1869-3.3142l1.2443-.1077c2.5723-.2273,4.4986.2752,5.7669,1.4716l.0718.7777c-.9452,2.74-1.9981,4.3432-3.1347,4.81ZM41.8762,99.2044l.85-.0718.012.1914-.8495.0718Zm11.9287-2.022.6221-.06c.5743.2752.8734.5145.8974.73l.0119.1914a1.7468,1.7468,0,0,1-1.5314-.8614Zm1.687-9.6076a24.3491,24.3491,0,0,1-4.5226,3.3621c-.8136.0718-3.8407,1.2443-9.0811,3.5415a1.6581,1.6581,0,0,0-.8375-.1436l-.0359-.3709a4.8968,4.8968,0,0,1,1.017-2.8476c.4067-2.1536.8494-3.3859,1.34-3.685l4.367-9.8229q-.0717-.9153,2.8-1.4l.6222-.06.0479.5623c1.8784-.2871,3.0509-.4546,3.5056-.49,3.47-.2991,5.2763.4068,5.42,2.0938l.3948-.0359-.0837-.9931.4307-.0359a2.7182,2.7182,0,0,1,1.6392,2.046,3.1872,3.1872,0,0,1-.8854,2.0459c-.2632.0239-.4188-.1675-.4427-.55l-.4307.0359-.0957,1.1965q-2.6382,3.9483-3.8287,4.056C56.114,87.0723,55.6713,87.5629,55.4919,87.5748Zm2.68,6.88a1.5483,1.5483,0,0,0-.8614-.335l-.0479-.5862.3948-.0359.8735.5145a.3457.3457,0,0,1-.359.4426Zm2.7758,3.29c.3829.1555.61.323.6581.4786l-.1915.0478.012.012a.4277.4277,0,0,0-.12.0239l-.2871.2274Zm.2632,1.6511L61.175,99.24l.5025-.12.0359.1555Zm1.2084,1.352c.5145-.0838.7658-.12,1.7229-.335l.0359.1555-1.8186.4188a2.3194,2.3194,0,0,0,.06-.2393Zm1.7708.7538a7.7815,7.7815,0,0,0-1.8186.2512l-.0359-.1555,1.5315-.4906.73-.1675.0718.2872c-.335.0718-.0957.0718-.4786.2752Zm1.6152-.3829a.3288.3288,0,0,1-.4068-.2393l.4666-.1077a.2854.2854,0,0,1,.3829.2393Zm4.379-4.714-.0359-.1556.7538-.18.0718.2872Zm4.6782,28.6909a1.1849,1.1849,0,0,0,.0359-.4785l.1675-.0359a.2685.2685,0,0,1,.3709.2153l.0359.1556ZM78.1408,97.637l-.335-.06a9.4981,9.4981,0,0,1-1.364.4546l-.3111.0718a.3065.3065,0,0,1-.3948-.2153l2.1895-.5025.7179-.3351.2393.2752A1.6,1.6,0,0,0,78.1408,97.637Zm1.687-.5384-.0359-.1555a.9164.9164,0,0,0,.4068-.2633l1.5554-.3589.0358.1555A11.9908,11.9908,0,0,0,79.8278,97.0986Zm.2392-3.1467a1.2846,1.2846,0,0,0-.4307.2633c-.0239-.1077-.2393-.1077-.6461-.012-.0717-.2991,1.0768-.7179,3.4578-1.2683l.335-.0717.0718.2871C81.18,93.6409,80.2465,93.916,80.067,93.9519Zm4.1876-4.5226c-.1675,1.9024-.8375,2.9792-2.022,3.2544l-.0359-.1555-1.0528.4067-.4667.1077a1.175,1.175,0,0,1-.6461-.0119l-.0957-.4188a63.271,63.271,0,0,1,4.57-6.3053l.3589.06A6.5385,6.5385,0,0,1,84.2546,89.4293Zm7.4061-6.3412-.1436.012-.0239-.2991.6221-.06.012.1555a2,2,0,0,0-.4666.1914ZM88.61,113.7293a1.9194,1.9194,0,0,0-.9571-.2153l-.0359-.4547q-.018-.2332.2871-.323c.2034-.024.3231.12.347.4307a5.2345,5.2345,0,0,1,.8615-.9931l.323.1317c-.12.9093-.3948,1.3878-.8256,1.4237Zm32.7111-34.2186c-.1555.012-.4546-.4666-.9213-1.4357l-.0239-.2991c.2991-.024.61.4427.9213,1.4Zm-.4307-3.4218-.1436.311L116.32,74.5454C119.2749,74.6412,120.8063,75.1556,120.89,76.0889ZM102.1177,92.2051l-.6221.06-.024-.2991.6222-.06Zm-.5145-9.6793.1675-.012.0359.4547q-.2332.0178-.5743.6461l-.0239-.2992a1.3856,1.3856,0,0,0,.3948-.79Zm-1.3041,3.1108.0479.5862-.1675.012-.0479-.5863Zm-.7059,1.1127.3111-.024q-.0539.7539-.3949.79l-.1675.012a1.6242,1.6242,0,0,0,.2513-.7777Zm-.5025,1.5314.1436-.0119.0119.1555-.2752.4786-.311.0239-.012-.1555c.323-.024.4666-.1915.4427-.4906Zm-.5025,1.3879-.1077.7657-.1436.012-.06-.7537.3111-.024Zm-5.1089,14.513q-.3051,1.5075-.6461,1.5434l-.0119-.1316A1.7136,1.7136,0,0,1,93.4793,104.1816Zm-.9452,2.022.012.1316a.2742.2742,0,0,1-.2872.347l-.012-.1555Q92.2291,106.2933,92.5341,106.2036Zm-.2632,4.2115.4786-.0358.0119.1555a1.3774,1.3774,0,0,0-.4666.1795l-.3111.0239Q91.9659,110.487,92.2709,110.4151Zm13.4362-4.1517a27.9351,27.9351,0,0,0-4.69,2.6442c-2.8715,1.005-4.2953,1.6272-4.2714,1.8785A45.37,45.37,0,0,0,91.7325,113a1.863,1.863,0,0,1-.8256-.2273,1.2737,1.2737,0,0,1,.694-1.2443,2.6983,2.6983,0,0,1,1.28.1914,13.8873,13.8873,0,0,1,2.4766-.8016l-.0239-.2992-.9691.0838a12.8717,12.8717,0,0,1,2.7518-1.2922l.4786-.0359.012.1316c-.8136.0718-1.2683.3111-1.364.7419a.2642.2642,0,0,0,.335.2632c.5982-.3949.8854-.6222.8854-.694q1.7229-.3051,9.56-5.0131l.0239.2991c0,.12-.4427.5025-1.34,1.1606Zm-8.0163,2.6322a3.2118,3.2118,0,0,0,1.9861-.8973c.2034-.012.3231.0718.3351.2632a7.61,7.61,0,0,0-2.13.9093l-.1675.012-.024-.2871Zm12.9457-9.9425-3.9842,3.2065a38.6884,38.6884,0,0,1-4.8457,2.9553q-7.1068,3.9123-8.8418,4.0559l-.1675.012q.2154-.8076,6.3532-12.97a35.0122,35.0122,0,0,0,8.4829-2.5365l.9691-.0837A5.3893,5.3893,0,0,1,112.97,94.73l.0478.5863c-.73,2.0579-1.5195,3.2663-2.3809,3.6372ZM102.8117,94.55l.6221-.06.012.1556-.6222.06Zm9.0571-1.5435.4786-.0359c.4427.2154.67.4068.682.5624l.0119.1316a1.3371,1.3371,0,0,1-1.1725-.6581Zm1.2563-7.2864a18.3041,18.3041,0,0,1-3.41,2.56,45.8006,45.8006,0,0,0-6.8916,2.6681,1.5687,1.5687,0,0,0-.6341-.0837l-.0239-.2991a3.7553,3.7553,0,0,1,.7537-2.1656c.3111-1.6511.6581-2.5724,1.017-2.7878l3.3381-7.4658c-.0359-.4427.67-.8017,2.1058-1.0769l.4786-.0358.0359.4546q2.1177-.3409,2.6561-.3948c2.6322-.2273,4.0081.2991,4.1158,1.5913l.3111-.024-.06-.7178.311-.024a1.9863,1.9863,0,0,1,1.22,1.52,2.4759,2.4759,0,0,1-.6341,1.5674c-.2034.0239-.323-.12-.347-.4307l-.311.0239-.0958.8973c-1.328,2.022-2.2972,3.063-2.9073,3.1108-.5384.73-.8735,1.1008-1.029,1.1127Zm1.4,4.9773-.0359-.4547.311-.0239.67.4068a.28.28,0,0,1-.2871.323,1.229,1.229,0,0,0-.6581-.2512ZM58.83,119.76l-.3111.0717-.2632.2274a.2684.2684,0,0,0,.3709.2153c.2034-.0478.2871-.1675.2393-.3589Zm-1.1845-2.3571.0359.1556c.2034-.0479.2871-.1675.2393-.359l-.0359-.1555A.2811.2811,0,0,0,57.6455,117.4024ZM66.1164,101.49l.2273-.1436a.3532.3532,0,0,1-.12-.0239.1382.1382,0,0,0-.1077.1675Zm-.0479-4.1278.359-.0837-.0718-.3111-.359.0837ZM150.622,109.446l-.8136-.0957-.1436.3111.012.1555,4.8456-.4068-.0239-.2991Zm4.4269-.3709.0239.2991h.0479l-.024-.2991Zm20.3277-2.6561.024.2991.5264.0957-.0239-.2991Zm-.7417.06a20.1948,20.1948,0,0,1-4.8577.73l.024.2992.335-.024.1795-.0119-.0479-.0359.3948-.1556c3.6014-.3948,4.02-.2512,3.9842-.658l-.0119-.1436ZM152.8,101.1905l-.323-.1077a5.4134,5.4134,0,0,0-.3829,1.2443l.012.1316c.2513-.0119.4786-.4427.694-1.2682Zm-4.379-2.357-.0119-.1556-.1676.012-.2991.1914.1675.2872c.2274-.024.3351-.1316.3111-.335Zm9.5118,9.8348-.0239-.2991-.0957.012.0239.2991Zm19.7415-4.4508.2274-.0239c.1316-.012.1914-.12.1794-.3111l-.1316-.2872a3.8741,3.8741,0,0,0-1.8784.4786l-.012-.1555-.993.0957c-.024-.2991-.1077-.4546-.2393-.4427l-.5145.0479c-.5982.0478-.8854.0239-1.1845.2512-.012-.1076-.0479-.1555-.1077-.1555l-.5743.0479-.335.1914c-.012-.1077-.0479-.1556-.1077-.1556l-.2034.18-.0119-.1555-.8016-.06-.1915.0119.0239.2991.4068.1077.3829-.0239a.6948.6948,0,0,0,.4427.0957l.335-.1675.012.1316a24.4969,24.4969,0,0,1-3.1587.5982.5443.5443,0,0,0-.323-.1316l-.0239.024a.2536.2536,0,0,1-.2393-.2633l.67-.0837a4.1662,4.1662,0,0,0,.4546.12c.5384-.2632.5624-.3709.85-.3948l-.0239-.2991a19.5173,19.5173,0,0,1-3.41.323l-.1077.012-.0239-.2991c2.9672-.359,1.9741-.1556,2.9911-.4427.012.1077.0479.1555.1077.1555a.6981.6981,0,0,1,.4068-.2034l.2034-.0119a10.8628,10.8628,0,0,0,3.4458-.4547l.012.1316.335-.1675.311-.0239c-.0239-.2991.4308-.347.5863-.3589l-.0239-.3231c-3.6133.73-4.5585.5264-5.5635.8136l-.012-.1316a4.3768,4.3768,0,0,1-1.22.1077.6329.6329,0,0,0-.2991.1914c-.0119-.1077-.0478-.1555-.12-.1555a.2459.2459,0,0,0-.06.0119l-3.0629.5025c-.0119-.0837-.0478-.1316-.12-.12a15.6376,15.6376,0,0,1-3.29.5863.9979.9979,0,0,0-.3948.1675c-.012-.0838-.06-.1317-.1675-.12l-1.3041.1077-.8735.2154c-.0119-.0838-.06-.1317-.1675-.12a6.9617,6.9617,0,0,1-1.2682.2393H157.49c-.2154.0239.1076-.06-.06-.1316l-.2632.1555c-.3828.0359-.1794-.0239-1.4955-.0119-2.3092.2871-2.0579.323-2.3092.335l-.8614-.06a.1185.1185,0,0,1-.1317.1436c-.981-.1316-1.4836-.2871-1.4955-.4666q.1974-1.4.682-1.4357l.1675-.012-.1436.3111.1675-.012c.3111-.1675.4547-.323.4427-.4666l-.0239-.3231-.3111.024-.0239-.2991a1.0748,1.0748,0,0,1,.0957-.5983l.7059-1.1366.0239.2991.335-.0239-.0239-.2991-.1914-.2752a1.2221,1.2221,0,0,1,.5982-.347l-.012-.1555-.4546.0359-.0359-.4547a12.8153,12.8153,0,0,0,1.3161-3.3022l.323.1316c.2034-.012.2991-.1316.2872-.347l-.3111.024-.012-.1316a1.1411,1.1411,0,0,1,.12-.6342,2.0021,2.0021,0,0,0,.67-1.5673c.0957-.012.1436.0359.1555.1436.4188-.2393.7418-.8734.9811-1.9263a60.18,60.18,0,0,0,3.1706-8.0282c2.6322-7.0831,2.5245-7.8368,2.8954-9.5119l-.311.024a1.08,1.08,0,0,1-.12.61,1.2328,1.2328,0,0,0-.5025-.12l-.0119-.1316a3.6372,3.6372,0,0,1,.7776-2.2015l.1436-.0119.2632,1.0289.3111-.0239a9.3719,9.3719,0,0,1,.2393-1.2324c-.012-.1555-.1316-.2512-.3709-.2632l-.2991.1915c-.0239-.2154-.012-.7777.0239-1.6751l-.1555.012a1.1641,1.1641,0,0,1-.4068-.6581l-1.711.1675a1.581,1.581,0,0,0-.1914-.5264c-.012-.1555.3709-.3111,1.1606-.4666l.3469.1316.3231-.1914c.0119.1076.0718.1555.1914.1435l.323-.1914c.012.1077.0718.1555.1915.1436l.1555-.012-.0239-.347c-.2393.024-.8734.024-1.8784-.0119l-.3231.2153-.0119-.1914q-12.0423.9872-13.6755,1.1366c-.1436.012-.7059,0-1.699-.0239.012.1316-.1077.2034-.347.2273l-.3469-.1555-1.1726.2991a7.7613,7.7613,0,0,1-1.3878-.06,1.1924,1.1924,0,0,1-.6581.2512c-.1436.012,1.7109-.0957,3.4338-.2153a1.5715,1.5715,0,0,1-.8375.2632,1.1491,1.1491,0,0,1-.682-.12,19.4414,19.4414,0,0,1-2.5365.5983l-.3469-.1316-5.5994.8614a1.3974,1.3974,0,0,0-.7538-.12,9.313,9.313,0,0,0-1.4956.323l-2.704,1.1247.2034.335a1.4942,1.4942,0,0,0,.55-.2154l.9572.0838-.12.8973a2.41,2.41,0,0,0-1.5434,1.7229c-1.3281.5863-1.9861,1.005-1.9861,1.2563l.0119.1555.2034-.0119.359-.1915.4187.5025.06.694q.036.3229-6.6881,14.1062c-3.8766,8.8537-5.91,13.6994-6.102,14.5728-1.328.3709-2.0938.9093-2.3211,1.6272.0239.2273.4188.3828,1.1845.4427l.0359.3469-.347.5743.06.694q.0538.5383,2.9074.8255c-.0119-.12.0479-.1914.18-.2034a10.4748,10.4748,0,0,1-.3589,2.5126l.2034-.012a4.4589,4.4589,0,0,0,1.1246-2.2254l.1675-.0119c.1915-.012.3949.2034.6342.67q-.359.1436-2.5126,5.719l.2034.335.2034-.0119q2.6382-6.6762,3.3142-7.3822,3.4637-.3051,11.9765-1.22l.3589-.2154a.1731.1731,0,0,0,.2154.1675l.3709-.0359.3589-.2154a.173.173,0,0,0,.2154.1675l4.2953-.3709c1.1366-.0957,1.675-.4426,1.6272-1.0289-.012-.1555.658-.335,2.01-.5264a1.64,1.64,0,0,1,.5863.1076c-.012-.1076.67-.2153,2.0339-.335.0359-.7178.2633-1.1007.67-1.1366l-.0359-.347a5.9434,5.9434,0,0,0-1.3161.2991,8.0524,8.0524,0,0,1-1.711-.2034,1.5728,1.5728,0,0,1-.55.2154l-2.9912.0957-.3589.1915q-.018-.1615-.2154-.1436l-.1675.0119-.3829.1915c-.0119-.1077-.323-.1915-.9452-.2752l-.3828.2273-.7418.06-.012-.1914q5.7789-.6282,5.7071-1.5674a.3339.3339,0,0,1,.4068.347l1.1247-.2871-.0359-.347-9.2247.2513c.012.12-.0478.1914-.18.2034l-1.1246-.0958a1.3581,1.3581,0,0,0-.7179.2513l-.4188-.1555a12.7885,12.7885,0,0,0-2.5963.4187,16.3609,16.3609,0,0,0-2.6322.0359l-2.07.1795-.9572-.1077c-.0478-.61,1.1366-3.6133,3.5774-8.9973.7059-1.8187,1.352-2.9553,1.9742-3.386a1.3925,1.3925,0,0,1,.5862.1436l1.4717-.5025.7537.12a17.28,17.28,0,0,0,4.4269-1.0888,2.07,2.07,0,0,1,.9572.0838l1.1247-.2632,3.35-.2872a22.2165,22.2165,0,0,0,4.6423-.9452l-.0359-.347c-.6222.06-.9452-.0478-.9691-.2991-.0359-.4666-.4906-.658-1.364-.5862l-.0359-.347.9213-.2632,2.4168-.2034-.0359-.347c-.0957.012-.5863,0-1.4956-.0359l-.0359-.3709.9333-.0837c.2512-.024.3589-.1436.335-.3829-1.2563.0359-1.89-.0239-1.9024-.1914q-13.137.6461-13.173.2392a1.5064,1.5064,0,0,0-.55.2393l-.2273-.3589q3.4817-7.3941,4.08-7.4539a2.1725,2.1725,0,0,1-.2872.9213l.012.1555.3709-.0359c.9212-2.2015,1.6989-3.3381,2.345-3.386,2.7519-.2393-.3828-.4187,5.5037-1.34a1.1519,1.1519,0,0,0,.5265.1436q3.4637-.7,9.6553-1.46l-.0239-.347-2.2015.2034-.0239-.3469a1.1932,1.1932,0,0,0,.6581-.2513l.0119.1914a1.2936,1.2936,0,0,0,.5025-.2393,1.5729,1.5729,0,0,1,.8734.1077,12.7187,12.7187,0,0,1,1.8426-.3709l1.3759-.1316c.335-.2153.4906-.4068.4786-.5862l-.012-.1556a4.3408,4.3408,0,0,1-1.2084-.0718.3511.3511,0,0,1,.3111-.3828l2.56-.2393,1.1725-.2991c.012.1316.0718.1794.1675.1794a1.2945,1.2945,0,0,0,.5026-.2393c.06.012.1316.012.1914.024a9.4988,9.4988,0,0,0-.5145,1.4l-.335.0239a1.4636,1.4636,0,0,0-.1914-.61l-.1676.0119c-3.1107,8.6623-4.4986,12.6944-7.37,19.3467-.5265,1.699-.9691,2.6442-1.352,2.8475a.2642.2642,0,0,0,.335.2633,4.1733,4.1733,0,0,1-.5863,2.4766c-1.328,3.8287-2.2134,5.9225-2.6681,6.3054l.2992,1.8066a.28.28,0,0,1-.2872.323l-.3111.024c-.0478-.5025-.2273-.7418-.55-.7059l-.1675.0119a7.124,7.124,0,0,0-.9213,2.2135l.3111-.024a1.036,1.036,0,0,0,.5743-.9691l.6221-.06.359.1316a1.9184,1.9184,0,0,0-.3949,1.0888l.1675.2871-.4068.9572.012.1555a1.9451,1.9451,0,0,1,1.1725.335,2.0994,2.0994,0,0,0,.9452-.3828c.359-.0359,1.699-.0479,4.0081-.0479l1.1606-.3948a26.8915,26.8915,0,0,0,2.8595-.0838l.5025-.0478.2633-.18.0119.1555a7.855,7.855,0,0,1,2.369.0958l.012.1555-.706.06.024.2991a1.0133,1.0133,0,0,0,.5623-.2153c.1795-.012.2872.0837.2991.2991a4.2145,4.2145,0,0,0-.9691.2153l-.3111-.1076c-.49.1316-.3828.1675-.7179.1914l-.49-.0957a.1154.1154,0,0,1-.12.1436.2584.2584,0,0,0,.2991.2751l.5025-.0478,2.62-.2273.9931-.2154c.0119.0837.0478.1316.1316.12l.4786-.1794.8973-.0718c.694-.06.682-.1077,2.19-.347-.0119-.0957.0239-.1316.0957-.1436l.012.1316a22.095,22.095,0,0,0,3.0031-.5743l.0359.0718c.61-.1435.2632-.1076.4307-.2273.012.1077.0479.1555.1077.1555l.4307-.0358-.0239-.3231-.8734-.012-.012-.0239c-.0359.012-.06.012-.0957.0239h-.12v.024a4.5947,4.5947,0,0,1-.9811.0718l-2.1895.12-.012-.1555,1.22-.1675.4427-.0359.2512-.18.012.1555c1.7229-.1435,2.3331.2872,10.3014-1.4118.4308-.0359.3949-.3948.67-1.1366a.7447.7447,0,0,1-.4187-.0957,12.4553,12.4553,0,0,1-2.2733.335c-.1077.012-.1914-.0838-.2273-.2752l-.012-.1316,1.22.0359a3.0844,3.0844,0,0,0,1.3281-.4307c0,.1076-.2513.1675-.1077.1555Zm-58.9134.9452-.5623.0479a10.6,10.6,0,0,1,.8973-2.56l.3709-.0359a9.7866,9.7866,0,0,1-.7059,2.5484Zm.682-2.7279-.012-.1555c-.0119-.1915.1077-.3231.3709-.3829l.012.1555C119.8252,102.2792,119.7056,102.4109,119.4424,102.4348Zm7.4778,5.7789.012.1555-.9333.0838-.0119-.1556Zm-1.1247-.0957c.012.1914-.2751.4067-.8973.6221l-1.1486-.0837-.3709.0358-.0359-.3469,2.4528-.2273Zm7.5616-34.8049-.5623.0478-.012-.1914c-.0119-.1914.0958-.323.3351-.3829l.2033-.0119.3829.1555a.33.33,0,0,1-.347.3829Zm8.5547-1.6751.1795-.0119.0239.347-.5145.0478a.3511.3511,0,0,1,.3111-.3829Zm-2.1536.7538-.8495-.0957-.012-.1555a9.1856,9.1856,0,0,0,2.1656-.4068c.012.1316.1316.1794.347.1555l.0239.347-.335.0359a1.149,1.149,0,0,1-.682-.12A1.4612,1.4612,0,0,1,139.7582,72.3918Zm1.0648,3.0988-.0119-.1555,1.3759-.1316.0119.1555Zm1.4717-1.1964-.012-.1915.67-.06.012.1915Zm.1555-2.3451-.1795.012.1556-.3709,1.5314-.1436.012.1914a9.2478,9.2478,0,0,0-1.5195.3111Zm.7777,3.3022-.0239-.3469.67-.06q.341-.0358.3589.3231Zm4.056-5.5276-.8615.2393-.1555.012a8.815,8.815,0,0,1-1.5554-.0359C145.8242,69.8673,146.889,69.7835,147.2839,69.7237Zm-.9213,3.8287.012.1555-1.1845.1077-.012-.1555Zm1.9383.9212c-.012-.1435-.2393-.2392-.7059-.2871l-1.1845.335-.9093.0359c-.2034-.1436-.3111-.2393-.3231-.3111l1.0529.06,2.369-.3828,1.2084.0478.012.1915a6.7769,6.7769,0,0,0-1.5195.311Zm12.1918-3.1466c.1436.0119.2393.0119.2752.0119a4.5889,4.5889,0,0,1,1.4238-.9571,8.4151,8.4151,0,0,1-2.022,4.2l-.67-.4068a21.9057,21.9057,0,0,0,.9931-2.8475Zm-2.0578,3.5295.1675-.012c-.2274.4308-.4308.6581-.5983.67l-.0359-.4547A1.0208,1.0208,0,0,0,158.4349,74.8565Zm-1.3281,3.1706a4.4941,4.4941,0,0,1,.9212-2.2134l.012.1555c-.1675,1.1965-.4307,1.8306-.7777,1.8784l.06.7538a1.6964,1.6964,0,0,0-.4068.9572l-.1675.0119-.0957-1.0409c.1914-.0239.347-.1914.4547-.5025Zm-.5145,1.7229a4.3622,4.3622,0,0,1-.347,1.2443l-.1675.012-.0359-.4547c.2273-.5264.4188-.79.55-.8016Zm-9.6554,28.021-.012-.1316.3111-.024.0359.4547c-.1675.012-.2871-.0838-.335-.2991Zm13.7951.3589c-.0119-.1077-.06-.1555-.1675-.1436l-.7777.0718-.0119-.1555h.0718l1.8425-.1555.012.1555A1.613,1.613,0,0,0,160.732,108.13Zm-.9212-.3828c.0718.0358.0359.0717,0,.0957C159.7749,107.8308,159.727,107.7949,159.8108,107.7471Zm.0957-2.1537-1.029.0838-.0119-.1556.9332-.0837.8136-.2034c.012.0957.06.1316.1675.12.9692-.1675.8734-.2153,1.34-.2512.1555-.012.2512.0837.2632.2752l-2.4767.2153Zm3.6013-.311a4.0849,4.0849,0,0,0-1.017-.0718l-.0119-.1316.9212-.0838.012.1316c-.0957.012.2513.0359.0957.1556Zm.0718-.1675-.012-.1317.5026-.0478.0119.1316Zm1.1127-.0958-.0119-.1316a.8738.8738,0,0,0,.3589-.1914.3557.3557,0,0,1,.4068.335l-.7538-.012Zm1.4238-.1794-.012-.1556.61-.0478.012.1555Zm.85-.0718c-.012-.18.06-.2872.2153-.3111l.2034.2632a.1111.1111,0,0,1,.0958-.1436l.1555.2872-.67-.0957Zm11.7731-1.3879.012-.012v-.0119A.0415.0415,0,0,0,178.7387,103.38Zm.2154-.1555c.0957-.06.1435-.12-.0838-.1556-.1077.12.12.1556-.12.1675l.0119.1077c.024-.0239.0838-.06.1316-.0957l-.1316.1077v.0119l-.2512.3231.5025-.18h.06l-.0239-.2991-.0957.012Zm.8734.6819-.0957.012.0239.2991.7059-.06c-.012-.1914-.4786-.2513-.6341-.2513Z" style="fill:#f9dc3e"/></svg>