<svg id="aa8c0454-8042-4dd6-961c-8636ecfe96c6" data-name="Capa 1" xmlns="http://www.w3.org/2000/svg" width="200" height="200" viewBox="0 0 200 200"><rect x="31.8825" y="31.8825" width="136.235" height="136.235" style="fill:none"/><path d="M151.3062,59.6986l-43.01-25.53a16.2,16.2,0,0,0-16.5934,0l-43.01,25.53a17.152,17.152,0,0,0-8.2951,14.7729v51.061a17.1548,17.1548,0,0,0,8.2966,14.7738l43.01,25.5268a16.2053,16.2053,0,0,0,16.5916,0l43.01-25.5268a17.157,17.157,0,0,0,8.2974-14.7738V74.4715A17.1533,17.1533,0,0,0,151.3062,59.6986Z" style="fill:#fff"/><path d="M151.3062,59.6985l-43.01-25.53a16.2007,16.2007,0,0,0-16.5934,0l-43.01,25.53a17.1522,17.1522,0,0,0-8.295,14.7729v51.0611a17.1545,17.1545,0,0,0,8.2966,14.7737l43.01,25.5269a16.2053,16.2053,0,0,0,16.5916,0l43.01-25.5269a17.1566,17.1566,0,0,0,8.2975-14.7737V74.4714A17.1535,17.1535,0,0,0,151.3062,59.6985ZM93.2067,163.219,50.1972,137.6923a14.1532,14.1532,0,0,1-6.82-12.16V74.4714a14.1516,14.1516,0,0,1,6.8185-12.159l43.01-25.53a13.26,13.26,0,0,1,13.5862,0l43.01,25.53a14.0633,14.0633,0,0,1,6.6076,9.8343c-1.4258-3.0438-4.6426-3.8722-8.3914-1.6819L107.33,95.5971c-5.074,2.9667-8.8158,6.2955-8.8182,12.4125v50.138c-.0029,3.6631,1.4764,6.0352,3.7484,6.7232a13.1745,13.1745,0,0,1-2.26.2192A13.3207,13.3207,0,0,1,93.2067,163.219Z" style="fill:#283037"/><path d="M140.0317,130.4685l-10.7107,6.4093a.7872.7872,0,0,0-.4928.6937v2.8019c0,.3419.23.4846.5131.319l10.8757-6.61a.8574.8574,0,0,0,.3277-.8237v-2.4714C140.545,130.4455,140.3153,130.3028,140.0317,130.4685Z" style="fill:#4da825"/><path d="M117.2257,106.8787c.3473-.1759.6327.04.6374.4937l.0357,3.706a6.8451,6.8451,0,0,1,4.1191-.5c.265.07.382.4311.2732.8585l-.8152,3.2829a1.4163,1.4163,0,0,1-.3707.656.8769.8769,0,0,1-.215.1585.49.49,0,0,1-.3207.0526,5.4573,5.4573,0,0,0-3.9667.6393,4.9864,4.9864,0,0,0-2.9363,4.4169c.0175,1.6845.8816,2.1956,3.8645,2.2466,3.9739.0656,5.6908,1.8023,5.7325,5.8043a14.2362,14.2362,0,0,1-5.2678,10.7371l.0712,3.6678a1.3458,1.3458,0,0,1-.63,1.1235l-2.1718,1.2507c-.3474.1758-.6327-.04-.6373-.4819l-.0376-3.6077a7.07,7.07,0,0,1-4.95.4766c-.2274-.0891-.3253-.4238-.2349-.8058l.7866-3.3164a1.3876,1.3876,0,0,1,.3892-.6895.8626.8626,0,0,1,.2045-.1481.4285.4285,0,0,1,.35-.0367,6.06,6.06,0,0,0,4.5524-.5756,5.9571,5.9571,0,0,0,3.363-5.1492c-.0194-1.8637-1.0279-2.6381-3.4819-2.6565-3.1238.0083-6.0371-.6062-6.0849-5.2056a13.3517,13.3517,0,0,1,5.0467-10.2168l-.0386-3.7033a1.3354,1.3354,0,0,1,.63-1.1355Z" style="fill:#fff"/></svg>