<svg id="b8ff7ee4-597e-4022-bb59-f6a75a45b6d7" data-name="Capa 1" xmlns="http://www.w3.org/2000/svg" xmlns:xlink="http://www.w3.org/1999/xlink" width="200" height="200" viewBox="0 0 200 200"><defs><linearGradient id="b4468434-de50-4ed2-aa3c-bbde3c1d5da6" x1="87.0542" y1="94.204" x2="109.1811" y2="76.6396" gradientUnits="userSpaceOnUse"><stop offset="0" stop-color="#9013fe"/><stop offset="1" stop-color="#6610f2"/></linearGradient><linearGradient id="a7cd7f5d-c0ac-45d2-aa93-8208891a07bb" x1="87.1158" y1="120.9382" x2="111.6297" y2="101.479" xlink:href="#b4468434-de50-4ed2-aa3c-bbde3c1d5da6"/><linearGradient id="a4e26a5a-deeb-4ff1-8feb-209ab2dea6eb" x1="43.8777" y1="144.554" x2="166.6933" y2="47.0629" xlink:href="#b4468434-de50-4ed2-aa3c-bbde3c1d5da6"/></defs><path d="M111.3785,86.3459c0-5.5314-3.89-8.5867-10.7416-8.5867H88.0342V95.55H98.65C106.8546,95.55,111.3785,92.2479,111.3785,86.3459Z" style="fill:url(#b4468434-de50-4ed2-aa3c-bbde3c1d5da6)"/><path d="M100.5518,102.6106H88.0342v19.6082h13.0694c8.5427,0,13.0666-3.4258,13.0666-9.8659S109.5173,102.6106,100.5518,102.6106Z" style="fill:url(#a7cd7f5d-c0ac-45d2-aa93-8208891a07bb)"/><path d="M157.2409,83.1533c-2.3856-7.7247-2.7149-17.2007-2.46-24.5164C155.0447,51.022,149.1126,44,141.0941,44H58.9169C50.8985,44,44.9636,51.022,45.23,58.6369c.2553,7.3157-.0768,16.7917-2.46,24.5164-2.3936,7.7494-6.4372,12.65-13.0447,13.2781v7.1372c6.6075.6286,10.6511,5.5287,13.0447,13.2781,2.3828,7.7274,2.7149,17.2007,2.46,24.5164C44.9664,148.978,50.8985,156,58.9169,156h82.1772c8.0185,0,13.9506-7.022,13.6871-14.6369-.2552-7.3157.0741-16.7917,2.46-24.5164,2.3908-7.7494,6.4262-12.65,13.0336-13.2781V96.4314C163.6671,95.8028,159.6317,90.9027,157.2409,83.1533Zm-54.1938,46.62H78.5608V70.2047h24.36c10.8266,0,17.9309,5.8608,17.9309,14.862a13.3065,13.3065,0,0,1-10.8678,12.96v.3321c8.29.9087,13.871,6.6459,13.871,14.571C123.855,123.4157,116.0314,129.7733,103.0471,129.7733Z" style="fill:url(#a4e26a5a-deeb-4ff1-8feb-209ab2dea6eb)"/></svg>