<svg id="ea7e908c-aff8-4ab2-bfc5-c93cdc8a5fb7" data-name="Capa 1" xmlns="http://www.w3.org/2000/svg" xmlns:xlink="http://www.w3.org/1999/xlink" width="200" height="200" viewBox="0 0 200 200"><defs><linearGradient id="bac1b8c9-30ae-45ed-b777-5ced317c48e2" x1="100" y1="-275" x2="100" y2="-401" gradientTransform="matrix(1, 0, 0, -1, 0, -238)" gradientUnits="userSpaceOnUse"><stop offset="0" stop-color="#7bcbd4"/><stop offset="1" stop-color="#29c6b7"/></linearGradient></defs><path d="M100,37h0a63,63,0,0,1,63,63h0a63,63,0,0,1-63,63h0a63,63,0,0,1-63-63h0A63,63,0,0,1,100,37Z" style="fill:url(#bac1b8c9-30ae-45ed-b777-5ced317c48e2)"/><path d="M71.1033,102.6916l42.943-42.6537a.9825.9825,0,0,1,1.5542,1.1669L99.6176,90.5034a.98.98,0,0,0,.858,1.4463h27.6219a.9806.9806,0,0,1,.6668,1.7013l-48.4,45.1737a.9824.9824,0,0,1-1.4659-1.2943l22.9153-31.6079a.9806.9806,0,0,0-.7942-1.5591H71.7946a.9805.9805,0,0,1-.6913-1.6718Z" style="fill:#fff"/></svg>