<svg id="e12e840d-0b77-4580-bddb-8ce16d52227c" data-name="Capa 1" xmlns="http://www.w3.org/2000/svg" width="200" height="200" viewBox="0 0 200 200"><path d="M94.963,36.0329c-.2991.0315-1.2592.1417-2.125.22a64.4467,64.4467,0,0,0-34.3145,14.78,84.148,84.148,0,0,0-7.4925,7.4925A64.327,64.327,0,0,0,36.2978,92.2583a101.757,101.757,0,0,0,0,15.4887A64.327,64.327,0,0,0,51.031,141.4791a84.1357,84.1357,0,0,0,7.4925,7.4926,64.327,64.327,0,0,0,33.7321,14.7332,101.7583,101.7583,0,0,0,15.4888,0,64.327,64.327,0,0,0,33.7321-14.7332,84.1357,84.1357,0,0,0,7.4925-7.4926,64.327,64.327,0,0,0,14.7332-33.7321,101.757,101.757,0,0,0,0-15.4887A64.327,64.327,0,0,0,148.969,58.5262a84.148,84.148,0,0,0-7.4925-7.4925,64.3749,64.3749,0,0,0-33.6377-14.7175,62.4674,62.4674,0,0,0-7.1305-.299C97.8593,35.9857,95.2621,36.0014,94.963,36.0329Zm.787,6.8c0,1.8417.126,5.84.2991,9.6333.0945,1.8574.2046,4.5175.2519,5.9027.1731,4.9111.6925,17.8026.7712,18.9517l.0788,1.149-.7084-.0787a2.5721,2.5721,0,0,1-.8185-.1731,18.1189,18.1189,0,0,1-.22-2.4241c-.2833-5.6036-1.212-27.3414-1.3064-30.521l-.0945-3.4944.4408-.0629c.2361-.0315.63-.0787.8814-.0945l.425-.0157Zm15.0638-.3777c.0157.0157.063,4.7694.11,10.5619.0629,5.8083.1416,11.0184.1889,11.5851a2.46,2.46,0,0,1-.0473,1.1176,2.3549,2.3549,0,0,1-.85,0l-.724-.063-.11-4.5805c-.063-2.5342-.1417-5.3361-.1732-6.249-.1259-2.7861-.2361-12.2462-.1416-12.4823.0629-.1732.2361-.1889.8972-.0787C110.42,42.3606,110.798,42.4393,110.8138,42.4551Zm-36.408,5.2731c.0944.1416.8342,8.8147,1.7472,20.1637.2991,3.8564.5981,7.3823.6454,7.823.0787.8028.0629.8343-.4408,1.1491a2.6951,2.6951,0,0,1-.63.3148,2.4176,2.4176,0,0,1-.1889-.9129c-.22-2.0463-1.07-11.9314-1.6685-19.0776-.3463-4.2028-.6611-7.9648-.7083-8.374-.0787-.6926-.063-.7556.3463-.976C74.0123,47.5708,74.2956,47.5235,74.4058,47.7282ZM117.74,50.892c.4407.1574.4879.2361.5824,1.1333a79.5348,79.5348,0,0,1-.063,9.0981,2.227,2.227,0,0,1-1.48-.8342c-.0472-.1889-.0945-2.4241-.0945-4.9583C116.685,50.2152,116.6221,50.5142,117.74,50.892Zm-29.0729.74c0,.425.11,2.77.2361,5.2416s.2676,5.6037.3305,6.9574c.11,2.7389.1417,2.6444-.9129,2.7074-.5195.0157-.5195.0157-.5509-.7713-.0315-.4408-.11-1.81-.2047-3.0694-.0787-1.2593-.2676-3.9824-.3935-6.06s-.2833-4.14-.3305-4.5805c-.0945-.787-.0787-.8185.3463-.9759a3.3435,3.3435,0,0,1,.9759-.1731C88.6668,50.892,88.6668,50.892,88.6668,51.6318Zm43.6644,2.1565.5352.22.11,2.1092c.0473,1.1491.0787,3.6361.0473,5.5092l-.0473,3.4315-.6611-.3306-.6611-.3148-.0472-5.2259c-.0315-2.88-.0157-5.32.0158-5.4305C131.6858,53.5207,131.6858,53.5207,132.3312,53.7883ZM103.5889,55.85c.0944.0945.3148,7.7286.3305,11.6008l.0157,2.33-.74-.11a7.0415,7.0415,0,0,1-.787-.11c-.0472-.0315-.5194-11.6953-.5194-12.8286V55.567l.8027.0944A3.6438,3.6438,0,0,1,103.5889,55.85Zm36.2505,1.1176c.1889.22.22,3.6675.2676,22.6822.0473,21.8322.0473,22.3989-.2361,22.3989a1.0291,1.0291,0,0,1-.5509-.2047c-.2361-.1731-.2676-2.0777-.3463-20.73-.0629-11.3018-.1417-21.5647-.1889-22.8082l-.0944-2.2666.4565.3305A4.8585,4.8585,0,0,1,139.8394,56.9679ZM125.72,60.1947a7.9129,7.9129,0,0,1,.1732,1.9833c.0787,3.4787.0944,24.8072.0157,24.87a1.6331,1.6331,0,0,1-.63-.1732l-.5667-.2361V59.8642l.4408.0944A1.64,1.64,0,0,1,125.72,60.1947Zm-43.444.8815c.0472.425.1259,1.3852.1731,2.1722.0473.7713.1574,2.5342.2519,3.9037.1889,2.77.1574,2.9434-.74,2.9434-.4722,0-.5352-.0472-.5982-.5194-.1574-.9287-.7083-8.6731-.63-8.799a3.5163,3.5163,0,0,1,1.275-.425C82.1029,60.3364,82.2289,60.6669,82.2761,61.0762ZM56.2411,65.09c.1732,1.6685.5195,5.163.7713,7.76.2676,2.5971.488,4.8008.488,4.8953,0,.1889-1.212.787-1.338.6611-.0787-.0787-1.6527-14.0091-1.6527-14.6388,0-.3777,1.212-1.9675,1.3694-1.7944C55.9263,62.0049,56.0837,63.4058,56.2411,65.09ZM117.96,66.7428l.4565.2676.0157,3.4c.0158,1.8573.0473,3.9351.0473,4.612.0314,1.4166-.1417,1.6527-.9917,1.3536L117,76.2029V74.8492c0-.7555-.0472-2.9435-.11-4.88l-.0945-3.4944h.362A2.088,2.088,0,0,1,117.96,66.7428ZM63.1513,72.85c.2833,3.0221.74,8.1221,1.0388,11.3332l.5352,5.824-.6139.6139-.5981.6139-.11-1.2435c-.0629-.6926-.3778-3.9037-.7083-7.1463s-.8028-7.949-1.0389-10.4517L61.2152,67.86l.6139-.5667c.5509-.5194.6138-.5352.724-.2518C62.6161,67.1993,62.8837,69.8122,63.1513,72.85Zm-11.79,1.9046c.3463,3.1009,1.2592,11.3489,2.0462,18.322s1.5269,13.6943,1.6685,14.9536c.126,1.2592.3463,3.1638.4723,4.25.22,1.8417.22,1.9676-.0315,2.1565-.3778.2833-.5352.2519-.5352-.0787,0-.1417-.1417-1.338-.3148-2.6287-.2833-2.1564-.7556-5.8083-1.81-14.0091-.22-1.6528-.6453-4.9426-.9444-7.3194-.3148-2.3768-.7713-5.9184-1.0232-7.87s-.6768-5.2888-.9444-7.4453a37.3593,37.3593,0,0,1-.4092-4.25,5.701,5.701,0,0,1,1.1333-1.81C50.7005,69.0724,51.0153,71.6381,51.3616,74.7548ZM46.5449,81.539c.2361,1.8888.6769,5.336.976,7.6814.299,2.33.6768,5.2416.85,6.4536l.2991,2.2037-.3305.2833c-.1889.1574-.3778.22-.4408.1574a6.2493,6.2493,0,0,1-.2833-1.3851c-.0944-.6926-.6768-4.738-1.3065-8.9722l-1.1176-7.7129.3621-1.07a3.9652,3.9652,0,0,1,.4407-1.0546A29.7766,29.7766,0,0,1,46.5449,81.539Zm86.4159-2.0621c.22.22.2519,1.1963.2519,8.4213v8.1693h-.4408c-.96,0-.9444.2361-1.0074-8.7045l-.0472-8.1379h.5037A1.1588,1.1588,0,0,1,132.9608,79.4769ZM98.5046,82.2945a30.7429,30.7429,0,0,1,9.7277,3.1009,18.5366,18.5366,0,0,1,5.1315,3.8407,31.7016,31.7016,0,0,1,7.1777,9.7434c2.7546,5.6352,3.8249,10.6249,5.1786,24.0044.6139,5.9972,1.4167,16.874,1.59,21.3286.0473,1.2907.1574,3.4157.2519,4.7221.1731,2.77.3778,2.3926-2.062,3.5731a52.6613,52.6613,0,0,1-10.94,3.825,51.8662,51.8662,0,0,1-13.8518,1.7157l-3.7777.0158.0315-1.81c0-.9917.0944-3.3055.1889-5.1157a201.6423,201.6423,0,0,0-.2362-25.972,56.9425,56.9425,0,0,0-1.4009-8.7517c-.0787-.2047.2834-.3778,1.8417-.913,2.849-.9917,5.32-2.2352,5.6981-2.849.6768-1.1648-.5352-2.8333-2.0778-2.8333a7.2261,7.2261,0,0,0-1.81.6138,59.4938,59.4938,0,0,1-14.67,3.9509,41.7491,41.7491,0,0,1-10.2314-.425,30.5359,30.5359,0,0,1-7.0832-2.6916c-2.8491-1.48-4.5963-3.4472-5.1157-5.7768a14.1674,14.1674,0,0,1,.1574-5.1944,16.7837,16.7837,0,0,1,2.5027-5.1472c4.4861-5.9027,13.7416-11.0184,23.2331-12.8128A35.2533,35.2533,0,0,1,98.5046,82.2945Zm48.56.488c.5666.2361.63.299.63.8342.0315,4.2972-.063,14.1193-.1417,14.5286-.0157.1417-.8342.1574-1.18.0315-.22-.0787-.2519-.9287-.2519-7.87,0-4.9741.063-7.7759.1574-7.7759A3.9616,3.9616,0,0,1,147.0644,82.7825Zm6.8786,8.6416.5667.2361-.11,13.0332c-.1259,16.6063-.1417,17.0943-.74,18.5267-.9759,2.3453-.9287,2.8175-.8343-7.4768.0315-5.1472.11-10.3573.1417-11.5694s.063-4.6277.0787-7.6027a33.827,33.827,0,0,1,.1574-5.3833A3.5845,3.5845,0,0,1,153.943,91.4241ZM59.2791,95.3435a3.4839,3.4839,0,0,1-.3935,2.4083l-.5037,1.07-.1889-1.574c-.2991-2.5185-.2991-2.6287.2991-3.0065a1.2625,1.2625,0,0,1,.5981-.2833A6.041,6.041,0,0,1,59.2791,95.3435Zm-9.7277,9.4915c.1417,1.2908,1.2435,9.8537,1.81,14.0564.85,6.5009.9129,7.43.5351,7.036-.0472-.0472-.4092-2.2351-.787-4.8638-2.4555-16.9684-2.44-16.8582-2.2352-16.9841C49.3,103.7962,49.4412,103.9536,49.5514,104.835Zm11.3332,7.2092c.0945.3935.5509,4.6592.5509,5.1787,0,.4407-.5666.85-.8185.5981a18.7887,18.7887,0,0,1-.4407-2.9592c-.1732-1.5583-.3463-3.18-.3935-3.6046l-.0945-.787.551.63A3.4322,3.4322,0,0,1,60.8846,112.0442Zm12.7027,5.9342c.1731.1574.2833.7871.425,2.4871.2361,3.0694.2676,2.8333-.3778,2.8333-.6611,0-.6454.0472-.8657-2.7232-.22-2.8175-.22-2.7861.2046-2.7861A1.2835,1.2835,0,0,1,73.5873,117.9784Zm12.4665.2361c.0315.1575.11,1.1019.1732,2.0935.0472.9917.1889,3.2269.3148,4.9583.4407,6.3592.4565,7.162.1889,7.162-.2991,0-.3306-.2361-.6769-4.7222-.1259-1.8574-.362-4.7851-.5194-6.5008-.1417-1.7158-.2361-3.1482-.1889-3.18C85.5187,117.8368,85.9751,117.9784,86.0538,118.2145Zm-29.5923,3.0222c.0945.1417.6926,5.1787,1.4324,12.0573.22,2.0778.4407,4.0768.488,4.4546l.0787.6769-.3935-.2519a.8152.8152,0,0,1-.4093-.7713c0-.9916-.6768-7.524-1.1963-11.5221-.2991-2.2666-.5352-4.2657-.5352-4.4546A.29.29,0,0,1,56.4615,121.2367Zm90.839,6.58-.11,6.58-.3935.5824c-.8972,1.3222-.85,1.574-.8028-5.7926l.0315-6.7527.5824-.5981a3.1072,3.1072,0,0,1,.6926-.5824C147.3477,121.2525,147.3477,124.2117,147.3005,127.8163Zm-14.56,10.436c.0787,9.1453.063,9.8536-.1889,10.137-.1574.1731-.299.2833-.3462.2361-.11-.126-.2676-20.0693-.1417-20.18a.5.5,0,0,1,.362-.0787C132.63,128.4145,132.6775,129.532,132.74,138.2523Zm-51.4087-6.2647c.11.9759.5037,5.6508.6611,7.8545.0944,1.48.0944,1.5269-.2519,1.637-.1889.063-.4092.0473-.4722-.0314-.11-.11-.4565-3.6046-.8815-8.9879l-.11-1.2907h.488C81.2215,131.1691,81.253,131.2005,81.3317,131.9876ZM68.96,137.4968a1.6468,1.6468,0,0,1,.1889.8972c0,.4092.1889,2.5342.3935,4.7379.5982,6.0287.6454,6.8472.3778,6.69-.4092-.2361-.7713-.5982-.6926-.6926a10.8952,10.8952,0,0,0-.1574-1.7472c-.11-.913-.2518-2.3926-.3148-3.3056s-.2046-2.5814-.3305-3.699c-.2991-2.7546-.2834-3.0694.0629-3.0694A.7416.7416,0,0,1,68.96,137.4968ZM76.4048,148.09c.0473.3463.1417,1.637.2047,2.8648.11,2.3611.0629,2.5342-.5824,2.0463-.1889-.1417-.3148-.74-.5037-2.5343-.3306-3.2425-.3463-3.1166.2676-3.0537C76.2474,147.4606,76.31,147.5235,76.4048,148.09Z"/><path d="M70.7855,89.8343a2.0932,2.0932,0,1,0,2.6129,3.0379A2.0872,2.0872,0,0,0,70.7855,89.8343Z"/><path d="M81.4576,91.3454a2.4139,2.4139,0,0,0,0,4.0925,2.3259,2.3259,0,1,0,0-4.0925Z"/></svg>