<svg id="bc58ba14-55a4-4e32-8ba1-d5a6dd258540" data-name="Capa 1" xmlns="http://www.w3.org/2000/svg" width="200" height="200" viewBox="0 0 200 200"><path d="M78.3333,165A21.6334,21.6334,0,0,0,100,143.3333V121.6667H78.3333a21.6667,21.6667,0,0,0,0,43.3333Z" style="fill:#0acf83"/><path d="M56.6667,100A21.6334,21.6334,0,0,1,78.3333,78.3333H100v43.3334H78.3333A21.6334,21.6334,0,0,1,56.6667,100Z" style="fill:#a259ff"/><path d="M56.6667,56.6667A21.6333,21.6333,0,0,1,78.3333,35H100V78.3333H78.3333A21.6333,21.6333,0,0,1,56.6667,56.6667Z" style="fill:#f24e1e"/><path d="M100,35h21.6667a21.6667,21.6667,0,0,1,0,43.3333H100Z" style="fill:#ff7262"/><path d="M143.3333,100a21.6667,21.6667,0,1,1-21.6666-21.6667A21.6334,21.6334,0,0,1,143.3333,100Z" style="fill:#1abcfe"/></svg>