<svg id="b4a35da0-2af5-4cbf-9489-2b5f52678d28" data-name="Capa 1" xmlns="http://www.w3.org/2000/svg" width="200" height="200" viewBox="0 0 200 200"><path d="M100,33a67,67,0,1,0,67,67A67,67,0,0,0,100,33ZM47.3966,100.6984l51.9049,51.905A52.6071,52.6071,0,0,1,47.3966,100.6984Zm64.3788,50.59L48.7119,88.2246A52.62,52.62,0,0,1,142.536,69.0368l-7.2845,6.4275A42.9584,42.9584,0,0,0,59.6069,85.376l55.0172,55.0172a43.0383,43.0383,0,0,0,27.0781-30.0855H118.8975V100h24.0512v0h9.6635A52.6315,52.6315,0,0,1,111.7754,151.2881Z" style="fill:#744c9e"/></svg>