<svg id="f7f98265-bb0d-4901-8190-84f25c5201e4" data-name="Capa 1" xmlns="http://www.w3.org/2000/svg" width="200" height="200" viewBox="0 0 200 200"><path d="M81.66,47.5743c.1828-.1962.3622-.4009.5544-.5929,3.7526-3.7506,7.5778-7.4317,11.24-11.2685a8.9409,8.9409,0,0,1,12.85.0212q28.8135,28.9838,57.78,57.8156c2.7368,2.7321,3.669,5.8938,2.3669,9.5163a9.9079,9.9079,0,0,1-2.3217,3.46q-21.138,21.2429-42.3571,42.405-7.7376,7.7378-15.4757,15.4748a8.5551,8.5551,0,0,1-12.0882.1853q-.3618-.3411-.7137-.6927Q64.5949,135,35.6965,106.1006A8.6116,8.6116,0,0,1,35.634,93.584Q55.4265,73.7507,75.2489,53.947c.097-.0971.2-.1878.377-.3526.1982.1847.3957.3576.5809.5427Q83.2422,61.17,90.2851,68.1955a1.11,1.11,0,0,1,.3014,1.3643,10.2141,10.2141,0,0,0,5.0428,12.291A1.1616,1.1616,0,0,1,96.4,83.0951q-.0327,17.5745-.0084,35.1491a1.0456,1.0456,0,0,1-.6425,1.1551,10.2269,10.2269,0,0,0,4.7927,19.399,10.2392,10.2392,0,0,0,7.5982-16.8435,20.9244,20.9244,0,0,0-2.7758-2.3224,1.3292,1.3292,0,0,1-.5025-.8164q-.0365-17.8232-.0168-35.6464c0-.0419.0427-.0838.0925-.1755.1647.1529.3239.2917.473.4407q6.42,6.4175,12.8478,12.827a.93.93,0,0,1,.2823,1.136,10.2292,10.2292,0,0,0,18.2682,8.8587,9.7119,9.7119,0,0,0,.43-10.4491,9.8239,9.8239,0,0,0-9.1419-5.3843,12.3963,12.3963,0,0,0-2.5291.3607,1.0993,1.0993,0,0,1-1.1735-.2868c-4.6365-4.664-9.2972-9.3042-13.9247-13.9771a1.289,1.289,0,0,1-.2844-1.0614,10.2241,10.2241,0,0,0-7.1895-12.6127,10.4184,10.4184,0,0,0-5.4021-.017,1.1294,1.1294,0,0,1-.921-.1979Q89.2282,55.2455,81.8283,47.815A1.9518,1.9518,0,0,1,81.66,47.5743Z" style="fill:#f24f29"/></svg>