<svg id="bcfe9b9e-9b4d-45bf-b13a-e6494fc2a25f" data-name="Capa 1" xmlns="http://www.w3.org/2000/svg" width="200" height="200" viewBox="0 0 200 200"><path d="M155.7216,117.8508a12.4331,12.4331,0,0,0-3.2715-1.3047V83.4628a12.4191,12.4191,0,1,0-11.9171-20.597L111.8949,46.3311A12.41,12.41,0,1,0,88.1,46.3126L59.4536,62.852A12.4171,12.4171,0,1,0,47.55,83.4628v33.0826a12.42,12.42,0,1,0,11.9134,20.6293l28.6314,16.5308a12.41,12.41,0,1,0,23.6855-.4l28.4646-16.4346a12.4188,12.4188,0,1,0,15.4768-19.02Zm-93.1759,7.8231a12.2764,12.2764,0,0,0-3.4885-6.04L96.5448,54.7056a12.44,12.44,0,0,0,6.9209-.003l37.48,64.916a12.3781,12.3781,0,0,0-3.491,6.0553Zm75.0725-57.675a12.3864,12.3864,0,0,0,8.9291,15.4343v33.125q-.2406.0589-.4787.1275l-37.49-64.9318q.1692-.1617.3323-.3294ZM91.0754,51.4106q.173.1789.3533.3508L53.94,116.6922q-.2422-.07-.4871-.1309V83.4332A12.3861,12.3861,0,0,0,62.3763,67.98Zm18.102,97.444a12.4194,12.4194,0,0,0-18.115-.2516L62.4015,132.0551q.0689-.2379.1282-.4783h74.9374c.0672.2735.14.5454.2258.8138Z" style="fill:#e535ab"/></svg>