<svg id="ff95af80-87e8-4d04-815d-12299852c507" data-name="Capa 1" xmlns="http://www.w3.org/2000/svg" width="200" height="200" viewBox="0 0 200 200"><path d="M56.0407,21.2629h6.9735v6.9129H69.442V21.2629h6.9735V42.1835H69.442V35.21H63.0749v6.9735H56.0407m29.592-13.9471H79.4778V21.2629H98.7915v6.9735H92.6063V42.1835H85.6327m16.2211-20.9206h7.3071l4.4873,7.3677,4.4873-7.3677h7.3071V42.1835H118.469V31.8142l-4.8814,7.5193-4.8815-7.5193V42.1835h-6.8523M128.899,21.2629h6.9736V35.2706h9.8842v6.9129H128.899"/><path d="M55.7981,164.0689,45.7926,51.7646h110L145.7871,164.0083,100.7017,176.5" style="fill:#e44d26"/><path d="M100.7926,166.9493V60.9818h44.9642l-8.58,95.81" style="fill:#f16529"/><path d="M66.2281,74.7166h34.5645V88.4818H81.3273l1.2735,14.0987h18.1918v13.7348H69.9878m.6064,6.9129H84.42l.97,11.0061,15.4024,4.1235v14.3715l-28.258-7.8831" style="fill:#ebebeb"/><path d="M135.2359,74.7166H100.732V88.4818h33.23m-1.2431,14.0987H100.732v13.7651h16.979l-1.6069,17.8887-15.3721,4.1235v14.3109l28.1973-7.8225" style="fill:#fff"/></svg>