<svg id="bc70337c-07a0-419e-a73c-d50011105861" data-name="Capa 1" xmlns="http://www.w3.org/2000/svg" width="200" height="200" viewBox="0 0 200 200"><rect x="35.7778" y="35.7778" width="128.4444" height="128.4444" style="fill:#f7df1e"/><path d="M122.06,136.1255c2.5873,4.2244,5.9533,7.33,11.9066,7.33,5.0012,0,8.196-2.5,8.196-5.9533,0-4.1388-3.2825-5.6047-8.7872-8.0125l-3.0175-1.2946c-8.71-3.7106-14.4958-8.3591-14.4958-18.1861,0-9.0523,6.8972-15.9434,17.6764-15.9434,7.674,0,13.191,2.6708,17.1667,9.6639l-9.3989,6.0348c-2.0694-3.7106-4.3019-5.1724-7.7678-5.1724-3.5353,0-5.7759,2.2427-5.7759,5.1724,0,3.6209,2.2426,5.0868,7.4212,7.3295l3.0174,1.2926c10.2552,4.3977,16.0454,8.881,16.0454,18.9609,0,10.8668-8.5365,16.82-20.0007,16.82-11.2093,0-18.4511-5.3417-21.9945-12.3429Zm-42.6374,1.0459c1.8961,3.364,3.6209,6.2082,7.7678,6.2082,3.9655,0,6.4671-1.5516,6.4671-7.5844V94.7542h12.07v41.2041c0,12.4979-7.3275,18.1861-18.023,18.1861-9.6639,0-15.26-5.0012-18.1066-11.0248Z"/></svg>