<svg id="e9f802fa-48d1-42b5-af53-050c0a2ec904" data-name="Capa 1" xmlns="http://www.w3.org/2000/svg" width="200" height="200" viewBox="0 0 200 200"><path d="M62.319,90.4359a8.7017,8.7017,0,1,0,8.7019,8.7014A8.7115,8.7115,0,0,0,62.319,90.4359Zm37.6485-.0827a8.7017,8.7017,0,1,0,8.7014,8.7014A8.7116,8.7116,0,0,0,99.9675,90.3532Zm37.5067,0a8.7017,8.7017,0,1,0,8.7014,8.7014A8.7112,8.7112,0,0,0,137.4742,90.3532Zm8.1689,20.46a14.3142,14.3142,0,0,1-22.4926-11.5488l-8.8579-.1282a14.3283,14.3283,0,0,1-16.47,14.0834,53.3544,53.3544,0,0,1-8.4746,10.2459,48.7244,48.7244,0,0,1-17.1194,10.6184l-1.1463.4082-1.0818-.5563c-7.9069-4.0619-11.6746-12.6578-9.279-20.5641a14.1977,14.1977,0,0,1-3.7023-.9293q-.59,1.2378-1.1908,2.47c-2.3535,4.8337-4.7866,9.8323-5.6867,15.2594-.9714,5.8581-1.3563,16.5483,6.98,22.3261,11.38,7.8876,23.4506,1.8928,37.4266-5.0486,6.984-3.469,14.2057-7.0563,21.6613-8.8946,2.82-.6955,5.7065-1.1121,8.4978-1.5143,5.2107-.7515,10.132-1.4613,14.2385-3.84a16.8757,16.8757,0,0,0,8.265-11.69A17.4784,17.4784,0,0,0,145.6431,110.8129ZM88.7977,43.777l13.9715,41.23a14.14,14.14,0,0,1,1.8516.5027l13.89-28.0856,13.85,28.2531a14.0664,14.0664,0,0,1,1.7753-.55l14.02-41.35Z" style="fill:#fff"/><path d="M151.7994,99.0546a14.3455,14.3455,0,0,0-11.676-14.075L156,38.1537H80.9538l15.9008,46.921A14.3179,14.3179,0,0,0,92.4153,111.22a48.0283,48.0283,0,0,1-6.9261,8.1546,43.419,43.419,0,0,1-13.96,8.9669c-5.0937-3.2-7.247-9.2339-5.0105-14.4911l.1749-.4112.3289-.7732A14.3346,14.3346,0,1,0,52.27,109.3342q-.7377,1.5641-1.4974,3.1168c-2.4114,4.953-5.1448,10.5669-6.1786,16.8009-2.0532,12.38,1.2582,22.2776,9.3246,27.8682a25.4054,25.4054,0,0,0,14.8671,4.7262c9.4186-.0005,18.9463-4.7321,28.2649-9.3607,6.7116-3.3333,13.6515-6.7805,20.5067-8.4706,2.5506-.6291,5.175-1.0076,7.9534-1.4083,5.51-.795,11.2079-1.6168,16.2551-4.54a22.4878,22.4878,0,0,0,10.987-15.5938,23.2129,23.2129,0,0,0-3.0519-15.9613A14.2371,14.2371,0,0,0,151.7994,99.0546Zm-4.588,22.4559a16.8757,16.8757,0,0,1-8.265,11.69c-4.1065,2.3787-9.0278,3.0885-14.2385,3.84-2.7913.4022-5.6782.8188-8.4978,1.5143-7.4556,1.8383-14.6773,5.4256-21.6613,8.8946-13.976,6.9414-26.0463,12.9362-37.4266,5.0486-8.3368-5.7778-7.9519-16.468-6.98-22.3261.9-5.4271,3.3332-10.4257,5.6867-15.2594q.6-1.2327,1.1908-2.47a14.1977,14.1977,0,0,0,3.7023.9293c-2.3956,7.9063,1.3721,16.5022,9.279,20.5641l1.0818.5563,1.1463-.4082A48.7244,48.7244,0,0,0,89.348,123.4652a53.3544,53.3544,0,0,0,8.4746-10.2459,14.3283,14.3283,0,0,0,16.47-14.0834c.0005-.0268.0005-.054.0005-.0813A14.2908,14.2908,0,0,0,109.4852,88.36l9.0031-18.2053,9.0942,18.5525a14.2838,14.2838,0,0,0-4.4334,10.347q0,.1048.0014.21a14.3142,14.3142,0,0,0,22.4926,11.5488A17.4784,17.4784,0,0,1,147.2114,121.5105ZM62.319,90.4359a8.7017,8.7017,0,1,1-8.7014,8.7014A8.7113,8.7113,0,0,1,62.319,90.4359ZM148.1551,43.777l-14.02,41.35a14.0664,14.0664,0,0,0-1.7753.55l-13.85-28.2531L104.6208,85.51a14.14,14.14,0,0,0-1.8516-.5027L88.7977,43.777Zm-1.98,55.2776a8.7014,8.7014,0,1,1-8.7014-8.7014A8.7113,8.7113,0,0,1,146.1756,99.0546ZM99.9675,90.3532a8.7017,8.7017,0,1,1-8.7015,8.7014A8.7109,8.7109,0,0,1,99.9675,90.3532Z" style="fill:#c63d14"/></svg>