<svg id="ac766da3-fbb8-4fdf-ab1c-f85a5594477f" data-name="Capa 1" xmlns="http://www.w3.org/2000/svg" width="200" height="200" viewBox="0 0 200 200"><path d="M48.3477,69.7745c-10.4769,15.0586-9.1727,34.65-1.1692,50.65.19.3836.39.761.5861,1.1385.1259.2393.244.4849.3744.7212.0737.141.1565.2792.2332.4142.1366.2547.2762.4972.4174.7458q.3729.6582.7641,1.31c.1443.2393.287.4787.4358.7181.2885.4664.5846.9267.8869,1.387.1258.1964.2485.3928.3774.5831.4174.623.844,1.2429,1.2843,1.8535a.4651.4651,0,0,0,.0368.0491c.0691.0981.1458.1933.2163.2915.38.5248.7734,1.0434,1.1708,1.5559q.2187.2808.44.5616.5318.6675,1.0818,1.3287c.1365.1658.2746.3314.4127.4941.4926.58.9943,1.1569,1.5068,1.7216l.0306.0306c.0215.0245.04.04.0583.0644.5.5462,1.0127,1.08,1.5314,1.6142.1611.1657.3253.3314.491.4941q.603.6077,1.2229,1.2c.1672.16.3329.3222.5.4757q.8262.7779,1.6756,1.5252a.1737.1737,0,0,0,.026.0215c.0967.0859.1964.1657.2916.2485.5.4327,1.01.8624,1.5221,1.2859.2086.1688.42.3345.6306.5033q.6284.5017,1.2689.9912.3384.2578.6782.5156.7066.52,1.4239,1.0219c.175.1259.3438.2486.5187.3683.049.0338.0936.0675.1426.1013.4542.313.9191.6137,1.3826.9145.2.132.3974.27.5984.3989.712.4511,1.4347.8961,2.165,1.3257.198.1137.399.2241.5984.3376.5371.31,1.0772.6138,1.6249.9115.2962.16.6.31.8992.4633.3867.2026.77.4082,1.1631.6046.0889.0431.181.086.2685.1288.158.0767.3176.15.4757.23q.9137.4372,1.8428.8531c.132.0584.2593.1167.39.175q1.0656.4649,2.15.893c.1734.0705.3484.1381.5233.2056.669.2578,1.3472.5125,2.0285.7518.0859.0307.1688.0584.2547.0889.7473.2609,1.5022.5033,2.2617.74.181.0521.3636.1105.5462.1626a21.9772,21.9772,0,0,0,2.3354.66c50.6689,9.24,65.3869-30.4491,65.3869-30.4491-12.3612,16.1045-34.303,20.3518-55.0923,15.623-.7871-.1779-1.5512-.4234-2.32-.65-.1948-.0584-.3866-.1166-.5784-.175q-1.1256-.3451-2.2341-.7273c-.1013-.0367-.2041-.0736-.3069-.1105-.6628-.2332-1.318-.4787-1.97-.73-.1842-.0737-.3683-.1443-.5524-.2179q-1.0726-.4235-2.1267-.8838c-.1443-.0615-.2823-.1259-.425-.1872-.6031-.2731-1.2-.5493-1.7938-.8347-.1718-.0829-.3437-.1627-.5186-.2486-.4663-.2275-.9276-.47-1.3877-.7064-.308-.1622-.6209-.3155-.9264-.4852-.5619-.3-1.1137-.6134-1.663-.9327-.186-.1043-.3746-.2049-.5618-.313-.73-.43-1.4519-.8748-2.1658-1.3261-.1974-.1257-.39-.26-.5845-.39-.5179-.3343-1.0333-.675-1.5411-1.0244-.1684-.1144-.3306-.2363-.4965-.3494q-.7353-.5205-1.4568-1.0534c-.2187-.1621-.4337-.3256-.6461-.4877-.4412-.3381-.88-.6788-1.3148-1.0282-.1964-.1565-.3928-.313-.5862-.4695-.5523-.4542-1.0986-.9115-1.6372-1.381-.0567-.049-.1181-.0981-.18-.15-.5831-.5125-1.1554-1.0373-1.7216-1.5651-.1641-.1565-.3237-.31-.4848-.4665-.4189-.3989-.8317-.8009-1.2368-1.2121-.1626-.1627-.3253-.3223-.4848-.4849q-.7734-.7917-1.5176-1.6049c-.0245-.0277-.0506-.0522-.0751-.08-.5248-.5738-1.0373-1.16-1.539-1.7522-.1366-.1626-.2686-.3191-.4036-.4787-.3744-.4511-.7457-.9084-1.1078-1.3687-.1358-.166-.2715-.3356-.406-.5066-.4362-.5656-.8623-1.13-1.28-1.7032C51.4465,98.95,47.3,77.2353,56.5251,59.4025" style="fill:#0868ac"/><path d="M80.87,57.0878c-7.5768,10.9034-7.1657,25.4991-1.2552,37.0307a48.2545,48.2545,0,0,0,3.3511,5.5944,26.6151,26.6151,0,0,0,3.9005,4.87c.5462.6015,1.117,1.1876,1.7,1.7645.1472.15.2977.2946.4481.4419.5662.5494,1.1416,1.09,1.7369,1.6143.0245.0183.046.0428.0705.0614.0063.0063.0126.0088.0168.0157.6583.577,1.338,1.1324,2.0286,1.6786.1535.1165.3053.2394.46.3591.692.5309,1.3979,1.0526,2.122,1.55.0215.0157.04.0307.0614.046.3192.221.6445.4266.9682.6383.155.1013.3023.2087.4589.3038q.7755.4973,1.5727.9636c.0752.046.1488.086.2225.1289.4588.2639.9237.5247,1.39.7764.1626.092.3283.1718.4941.2577.3222.1688.6444.3407.9728.5033.049.0245.1.046.1472.0677.6674.3283,1.341.6444,2.0285.9451.1472.0645.2992.1227.448.1842.5493.2332,1.1048.46,1.6633.6751.2363.089.4756.1749.7119.2609.5064.1871,1.0143.359,1.5267.5309.2317.0736.4588.15.6905.2209a16.6614,16.6614,0,0,0,2.208.6383c39.1211,6.4813,48.1525-23.6388,48.1525-23.6388-8.1415,11.7259-23.9078,17.32-40.7325,12.9532-.7473-.1964-1.4837-.4112-2.2157-.6414-.224-.0675-.4434-.1411-.6659-.2148q-.78-.2532-1.55-.5339c-.2348-.086-.4695-.1719-.7-.2609q-.8424-.3222-1.6679-.6721c-.15-.0644-.3023-.1226-.45-.19q-1.0357-.4512-2.0407-.9483c-.3453-.1688-.6844-.3468-1.0235-.5217-.1964-.1012-.3943-.2025-.5907-.3038-.4358-.2363-.8685-.4818-1.2951-.73-.1012-.0583-.2071-.1136-.31-.1749q-.7941-.4648-1.5682-.9574c-.16-.1014-.3131-.2118-.4726-.3161-.3407-.221-.6813-.445-1.0158-.6721-.7212-.4972-1.4224-1.0189-2.1144-1.5467-.16-.1259-.3191-.2486-.4756-.3744a47.1716,47.1716,0,0,1-15.9775-22.77C81.3935,67.35,82.0208,56.8606,87.06,48.3483" style="fill:#0868ac"/><path d="M108.2233,47.6089a22.7989,22.7989,0,0,0-1.806,21.9972A30.9751,30.9751,0,0,0,124.2,86.2234c.3223.12.6445.2271.9713.3375.1427.043.2839.0922.4281.135a12.247,12.247,0,0,0,1.3932.402c21.6013,4.1736,27.46-11.0846,29.02-13.33-5.1325,7.39-13.7577,9.1634-24.34,6.5949-.8359-.2036-1.7548-.5053-2.56-.7906a30.9791,30.9791,0,0,1-8.3715-4.5164C111.27,67.8706,105.3875,54.1632,111.5668,43" style="fill:#0868ac"/></svg>