<svg id="bb184744-2bf1-493f-bfa2-8dc8dcf1f99a" data-name="Capa 1" xmlns="http://www.w3.org/2000/svg" xmlns:xlink="http://www.w3.org/1999/xlink" width="200" height="200" viewBox="0 0 200 200"><defs><linearGradient id="e40e84f2-10d4-45c8-b1f7-ea75e654e401" x1="-631.183" y1="-687.1115" x2="-546.5456" y2="-771.7639" gradientTransform="matrix(0.9988, 0, 0, -0.9987, 687.1203, -627.3873)" gradientUnits="userSpaceOnUse"><stop offset="0"/><stop offset="1" stop-color="#fff"/></linearGradient><linearGradient id="be384250-3710-4a73-8ca8-9ce5dd6abdf2" x1="-542.7163" y1="-767.9261" x2="-627.3537" y2="-683.2812" xlink:href="#e40e84f2-10d4-45c8-b1f7-ea75e654e401"/></defs><path d="M99.8987,129.325c26.5485,36.1912,52.53-10.1017,52.4918-37.94-.0452-32.9145-33.4058-51.31-52.5135-51.31C69.208,40.0743,40,65.4213,40,100.1013,40,138.6483,73.48,160,99.877,160c-5.9734-.86-25.8795-5.1255-26.1472-50.9752-.18-31.01,10.116-43.3995,26.1037-37.9492.3581.1328,17.6355,6.9483,17.6355,29.2132C117.469,122.4588,99.8988,129.325,99.8987,129.325Z" style="fill-rule:evenodd;fill:url(#e40e84f2-10d4-45c8-b1f7-ea75e654e401)"/><path d="M99.8672,71.0508c-17.5424-6.0464-39.0322,8.412-39.0322,37.3717C60.835,155.7085,95.8758,160,100.123,160,130.792,160,160,134.653,160,99.973c0-38.5469-33.48-59.8987-59.8769-59.8987,7.3111-1.0125,39.4057,7.9125,39.4057,51.7778,0,28.6057-23.9647,44.1787-39.5512,37.5247-.3581-.1328-17.6355-6.9484-17.6355-29.2132,0-22.17,17.5252-29.1135,17.5252-29.1135Z" style="fill-rule:evenodd;fill:url(#be384250-3710-4a73-8ca8-9ce5dd6abdf2)"/></svg>