<svg id="bb2627d2-cbbf-4a00-8048-33a72e70cf80" data-name="Capa 1" xmlns="http://www.w3.org/2000/svg" width="200" height="200" viewBox="0 0 200 200"><path d="M163.3066,64.2754a2.0683,2.0683,0,0,1,.0715.5336V92.8182a2.0424,2.0424,0,0,1-1.0263,1.7716l-23.5086,13.5349v26.8272a2.0474,2.0474,0,0,1-1.0211,1.7717L88.75,164.9727a2.2008,2.2008,0,0,1-.3574.1481c-.046.0153-.0894.0434-.1379.0561a2.0534,2.0534,0,0,1-1.0466,0c-.0562-.0153-.1072-.0459-.1608-.0664a2.1137,2.1137,0,0,1-.337-.1378l-49.062-28.2491a2.045,2.045,0,0,1-1.0263-1.7717V50.9244a2.09,2.09,0,0,1,.0715-.5361c.0153-.0587.0511-.1124.0715-.1711a2.0075,2.0075,0,0,1,.13-.3165,1.9047,1.9047,0,0,1,.14-.1813,2.091,2.091,0,0,1,.1812-.2374,1.9831,1.9831,0,0,1,.2017-.1531,1.6575,1.6575,0,0,1,.2247-.1762h.0025L62.1779,35.0281a2.0476,2.0476,0,0,1,2.0422,0L88.7524,49.1527h.0051a2.523,2.523,0,0,1,.2247.1736,2.426,2.426,0,0,1,.1991.1532,2.396,2.396,0,0,1,.1838.24,1.8773,1.8773,0,0,1,.1378.1813,2.1285,2.1285,0,0,1,.1328.3165c.02.0587.0561.1124.0715.1736a2.0639,2.0639,0,0,1,.0714.5336v52.4827l20.4428-11.7709v-26.83a2.0663,2.0663,0,0,1,.0714-.531c.0179-.0612.0511-.1148.0715-.1736a2.3065,2.3065,0,0,1,.1328-.3165c.0383-.0664.0944-.12.1378-.1812a2.1036,2.1036,0,0,1,.1838-.2375,1.96,1.96,0,0,1,.1991-.1531,2.0582,2.0582,0,0,1,.2247-.1762h.0025L135.78,48.9128a2.0446,2.0446,0,0,1,2.0422,0l24.5323,14.1245a2.266,2.266,0,0,1,.23.1736c.0638.0511.1378.097.1965.1532a2.3712,2.3712,0,0,1,.1838.24,1.5362,1.5362,0,0,1,.1379.1812,2.0226,2.0226,0,0,1,.1327.3165A1.464,1.464,0,0,1,163.3066,64.2754Zm-4.0181,27.3608V68.3446l-8.585,4.9422-11.86,6.8287v23.2916l20.4479-11.7709ZM134.7562,133.77V110.463L123.09,117.1258,89.7761,136.139v23.5265ZM40.7115,54.46v79.31l44.975,25.8929V136.1415L62.1907,122.8441l-.0077-.0052-.01-.0051a119.7783,119.7783,0,0,0-.4136-.3165l-.0051-.0077a1.9542,1.9542,0,0,1-.1685-.2144,2.1758,2.1758,0,0,1-.1531-.1991l-.0026-.0077a1.63,1.63,0,0,1-.1072-.2552,1.5081,1.5081,0,0,1-.097-.23v-.0025a1.9578,1.9578,0,0,1-.0408-.2987,1.7568,1.7568,0,0,1-.0307-.23V66.2309L49.2965,59.4l-8.585-4.9371Zm22.49-15.3014-20.44,11.7658L63.1965,62.69,83.6341,50.9218,63.1965,39.1586Zm10.63,73.4284,11.8577-6.8262V54.46L77.104,59.4022l-11.86,6.8287v51.3008Zm62.97-59.5438L116.3634,64.809,136.801,76.5748l20.4351-11.7684Zm-2.0448,27.0723-11.86-6.8287-8.5851-4.9422V91.6362l11.8577,6.8262,8.5876,4.9447ZM87.7288,132.6034,117.7061,115.49l14.9849-8.5519L112.2687,95.18,88.755,108.7169,67.3243,121.0545Z" style="fill:#ff2d20;fill-rule:evenodd"/></svg>