<svg id="b216097f-744a-4bf5-8547-9e3f1e736270" data-name="Capa 1" xmlns="http://www.w3.org/2000/svg" width="200" height="200" viewBox="0 0 200 200"><path d="M60.35,62.3931a5.35,5.35,0,0,1,2.3646-2.3462A7.56,7.56,0,0,1,64.02,60.01H85.4339a7.0822,7.0822,0,0,0-1.6454,1.7967,28.8157,28.8157,0,0,0-2.5159,5.8073,187.3694,187.3694,0,0,0-4.5784,18.5013q-.8827,4.2294-1.6834,8.4752c-1.6271,9.2316-3.3105,18.4437-5.41,27.58a99.1054,99.1054,0,0,1-3.5751,12.5041,12.87,12.87,0,0,1-2.8,4.7291c-.3216.2843-.6432.6433-1.0977.5869H43.2114c-1.2864-.038-2.5539.0753-3.84-.057a7.4993,7.4993,0,0,0,2.1-2.4025,45.9471,45.9471,0,0,0,3.1592-8.55c1.3244-4.6912,2.3829-9.4394,3.3863-14.1875.6243-3.1212,1.3618-6.2239,1.8157-9.364.5109-3.5,1.2865-6.9615,1.9107-10.4422.9838-5.1267,2.024-10.2528,3.1781-15.3416.9268-3.9726,1.8727-7.9269,3.14-11.8045A29.9153,29.9153,0,0,1,60.35,62.3931Z" style="fill:#eb7077;stroke:#eb7077;stroke-width:0.09399999678134918px"/><path d="M85.4345,60.01c.5483,0,1.0966-.019,1.6454,0a6.28,6.28,0,0,1,2.8,2.9318,36.6482,36.6482,0,0,1,1.948,4.5025,180.9683,180.9683,0,0,1,4.4651,17.8575q1.6449,8.0586,3.1212,16.1741c.0759.2837-.0184.6812.36.7566-1.3624,7.1127-2.7051,14.2445-4.4075,21.3008a93.77,93.77,0,0,1-3.31,11.2557c-.7572,1.8347-1.5327,3.84-3.1408,5.1457-1.0211.2267-1.7593-.5488-2.3829-1.249a18.2232,18.2232,0,0,1-2.3842-4.6349,136.1961,136.1961,0,0,1-4.7665-17.9518c-1.0028-4.7108-1.8923-9.4583-2.8192-14.1875-.4165-2.4032-.9832-4.7678-1.3048-7.17-.0569-.038-.19-.114-.2462-.1513q.8007-4.2456,1.6834-8.4752a187.2745,187.2745,0,0,1,4.5784-18.5007,28.7863,28.7863,0,0,1,2.5159-5.8073A7.0857,7.0857,0,0,1,85.4339,60.01Z" style="fill:#f6a2ad;stroke:#f6a2ad;stroke-width:0.09399999678134918px"/><path d="M109.0987,63.282c.6819-1.3048,1.5137-2.7615,2.99-3.2534,7.51-.038,15.0206-.019,22.53-.019a10.0876,10.0876,0,0,0-1.9113,2.2886A42.1059,42.1059,0,0,0,129.53,70.66c-2.2322,7.8693-3.8023,15.9089-5.297,23.9485-1.3808,7.9268-2.8565,15.8525-4.54,23.7414-.87,3.972-1.7783,7.9256-2.9318,11.8412a38.5807,38.5807,0,0,1-2.7242,7.1134,6.0422,6.0422,0,0,1-2.3836,2.6672c-7.17.057-14.3584,0-21.5275.0184a8.7083,8.7083,0,0,1-1.2111-.0564c1.6081-1.3048,2.3836-3.31,3.1408-5.1457a93.6188,93.6188,0,0,0,3.31-11.2551c1.7024-7.0563,3.0452-14.1875,4.4076-21.3008,1.6454-9.1747,3.3673-18.3494,5.5616-27.4108a62.7965,62.7965,0,0,1,3.7644-11.5393Z" style="fill:#eb7077;stroke:#eb7077;stroke-width:0.09399999678134918px"/><path d="M134.6185,60.01c.6052,0,1.23-.019,1.8347,0a6.7937,6.7937,0,0,1,2.3082,2.27,27.8417,27.8417,0,0,1,2.3266,5.2591,151.78,151.78,0,0,1,3.8213,14.7363c1.4378,6.6778,2.6862,13.3936,3.9157,20.1088.3026,1.608.6052,3.2345.7945,4.8621l.2836.2836a11.91,11.91,0,0,0-1.3238,3.1591,89.5283,89.5283,0,0,0-2.63,11.7666,63.3608,63.3608,0,0,1-2.1753,9.1747,20.2126,20.2126,0,0,1-3.0262,6.2612,6.7511,6.7511,0,0,1-2.63,2.024c-1.57.17-2.4975-1.3428-3.2541-2.4589a41.912,41.912,0,0,1-3.3294-8.7967c-2.9888-11.0664-4.9374-22.3974-7.0367-33.6531a.4975.4975,0,0,0-.2653-.3976c1.4947-8.04,3.0648-16.0791,5.297-23.9484a42.0709,42.0709,0,0,1,3.1781-8.3618,10.0721,10.0721,0,0,1,1.9107-2.2886ZM21.6643,103.0456c.4925-.038.9844-.1133,1.4947-.1133h20.62a8.7515,8.7515,0,0,1,2.6108.4165,7.44,7.44,0,0,1,3.0832,2.3646c.0949-.057.2652-.2083.3595-.2842-.4539,3.14-1.1914,6.2422-1.8157,9.364-1.0028,4.7481-2.0619,9.4963-3.3863,14.1875a45.9471,45.9471,0,0,1-3.1592,8.5505,7.5056,7.5056,0,0,1-2.1,2.4025c-.3216.057-.5673-.17-.8325-.3406a7.0452,7.0452,0,0,1-1.948-2.44c-2.5919-5.9023-2.8755-12.4288-4.4835-18.5957a43.3907,43.3907,0,0,0-3.2915-8.9854,16.6641,16.6641,0,0,0-3.4807-4.6348,9.45,9.45,0,0,0-3.67-1.8917Z" style="fill:#f6a2ad;stroke:#f6a2ad;stroke-width:0.09399999678134918px"/><path d="M151.5681,105.0132a6.17,6.17,0,0,1,4.7672-2.1189h15.5119c2.1563.038,4.3316-.0754,6.4885.057a21.1354,21.1354,0,0,1-2.1.9648,12.5341,12.5341,0,0,0-5.675,5.1261c-2.062,3.5947-2.7812,7.7186-3.3864,11.7666-.6052,3.9726-.5862,8.0775-1.8727,11.9368a14.4877,14.4877,0,0,1-4.4835,7.2071c-7.1121.076-14.2255.019-21.3192.038a6.706,6.706,0,0,1-1.3808-.076,6.7392,6.7392,0,0,0,2.6292-2.024,20.2007,20.2007,0,0,0,3.0268-6.2612,63.38,63.38,0,0,0,2.1753-9.1747,89.5068,89.5068,0,0,1,2.63-11.7666,11.9063,11.9063,0,0,1,1.3238-3.1591A16.0926,16.0926,0,0,1,151.5681,105.0132Z" style="fill:#eb7077;stroke:#eb7077;stroke-width:0.09399999678134918px"/></svg>