<svg id="a7709d9f-9ad6-484a-911a-25e803445e82" data-name="Capa 1" xmlns="http://www.w3.org/2000/svg" width="200" height="200" viewBox="0 0 200 200"><path d="M133.6547,84.6049A80.4108,80.4108,0,0,0,120.393,52.7424c-6.159-8.9618-13.052-17.3994-19.6019-26.0849-1.03-1.3729-1.3728-.2765-1.9067.41C94.7275,32.3684,90.5231,37.65,86.3948,42.98A108.74,108.74,0,0,0,70.0822,71.0857c-7.4269,19.621-6.7881,38.8509,2.8316,57.6329a86.1915,86.1915,0,0,0,21.6516,26.943,4.1606,4.1606,0,0,1,1.4969,2.3073c.5053,4.2807.8485,8.5805,1.2013,12.88.2574,3.28.2288,3.2224,3.47,3.1176,1.249-.0381,1.7733-.4481,1.8687-1.6875.3527-4.3857.858-8.7617,1.125-13.1569a4.5205,4.5205,0,0,1,1.7638-3.642,82.4644,82.4644,0,0,0,14.73-15.7024,74.0927,74.0927,0,0,0,14.7394-44.5522C134.6939,92.9758,134.3793,88.7522,133.6547,84.6049ZM100.5528,154.794a1.763,1.763,0,0,1-1.2489-.0477,5.563,5.563,0,0,1-2.9174-5.0434q.7578-15.76,1.4968-31.51.7435-15.6168,1.535-31.2427a2.2289,2.2289,0,0,1,.0572-.801,3.5689,3.5689,0,0,1,.5624-.715,4.3024,4.3024,0,0,1,.4577.8485,2.7929,2.7929,0,0,1,.0477.8008c.2955,5.568.6387,11.1262.8866,16.694.4576,10.3254.8485,20.6506,1.2966,30.9854.2288,5.11.5339,10.22.8009,15.34A5.6184,5.6184,0,0,1,100.5528,154.794Z" style="fill:#00eb63"/></svg>