<?xml version="1.0" encoding="UTF-8"?>
<svg data-name="Capa 1" xmlns="http://www.w3.org/2000/svg" viewBox="0 0 200 200" fill="#007fff">
  <path d="m153.08,141.87c-1.95,1.04-3.93,2.02-5.83,3.15-1.25.74-2.35,1.72-3.57,2.51-1.57,1.02-3.19,1.98-4.8,2.95-1.08.65-2.17,1.27-3.28,1.87-3.41,1.83-6.83,3.64-10.23,5.47-1.64.88-3.18,2.09-4.93,2.58-.99.28-2.4-.4-3.45-.96-2.66-1.41-5.22-3.01-7.83-4.52-2.7-1.56-5.43-3.07-8.11-4.66-2.4-1.42-4.72-2.98-7.14-4.36-3.43-1.95-6.91-3.82-10.4-5.66-2.31-1.22-3.65-2.76-3.55-5.66.21-6.02.04-12.05.13-18.08,0-.64.52-1.53,1.07-1.85,9.15-5.33,18.35-10.56,27.49-15.9.56-.33,1.08-1.26,1.09-1.93.13-6.1.16-12.21.2-18.31.02-3.94-2.97-5.74-6.42-3.82-3.15,1.75-6.24,3.61-9.36,5.42-2.62,1.52-5.24,3.05-7.87,4.56-1.43.82-2.92,1.56-4.31,2.46-2.17,1.42-3.99,0-5.77-.75-2.13-.89-4.08-2.21-6.07-3.42-2.9-1.76-5.73-3.65-8.65-5.38-2.12-1.25-4.26-2.52-6.54-3.41-2.52-.98-4.91.98-4.91,3.68.02,12.02-.03,24.03.04,36.05.02,3.55-3.39,5.34-6.04,3.73-4.12-2.5-8.37-4.77-12.43-7.35-.84-.53-1.56-1.95-1.57-2.97-.06-21.19,0-42.39.03-63.58,0-.27.03-.54.05-.81,0-.16,0-.32.01-.49.62-1.7,1.52-2.76,3.63-2.84,2.12-.08,3.53.81,5.12,1.97,1.68,1.23,3.68,2.01,5.51,3.04,1.31.73,2.56,1.57,3.88,2.29,1.38.76,2.81,1.43,4.2,2.16,1.2.63,2.39,1.28,3.58,1.94,1.64.92,3.3,1.81,4.88,2.81,1.81,1.14,3.48,2.49,5.32,3.58,3.89,2.31,7.78,4.65,11.81,6.68,1.1.55,3.01.53,4.08-.06,8.16-4.5,16.21-9.17,24.26-13.85,3.53-2.05,6.93-4.31,10.44-6.39,2.13-1.26,4.41-2.29,6.54-3.57,1.57-.94,3.25-.8,4.62-.15.89.42,1.36,1.88,1.82,2.96.26.6.13,1.38.13,2.07,0,19.91-.06,39.82.06,59.72.02,3.43-1.06,5.46-4.19,7.11-6.69,3.52-13.18,7.42-19.63,11.38-1.08.66-1.87,2.3-2.15,3.62-.32,1.51.86,2.59,2.22,3.36,2.07,1.17,4.08,2.45,6.11,3.69.15.06.3.12.45.19,1.6.86,3.25,1.63,4.78,2.59,1.7,1.07,3.25.95,4.92-.02,6.08-3.52,12.18-7.01,18.27-10.5,2.25-1.29,4.48-2.6,6.74-3.87,1.62-.92,2.44-2.22,2.42-4.14-.05-7.27-.02-14.54-.03-21.81,0-2.03,1.53-3.88,3.35-4.7,2-.9,3.79-2.28,5.8-3.17,2.74-1.2,4.93-4.22,8.5-2.84,1.48.57,2.21,1.68,2.02,3.4-.08.75.39,1.55.39,2.32.03,12.28.01,24.57.02,36.85,0,2.25.11,4.51-2.65,5.38l-.04.05c-.27.19-.55.37-.82.56-.08,0-.16,0-.24.01-.18.11-.36.21-.54.32l-.04.05c-3.39,1.97-6.77,3.95-10.16,5.92-.08,0-.16,0-.24,0-.18.11-.36.22-.54.32l-.04.05c-.27.19-.55.37-.82.56-.08,0-.16,0-.24.01-.18.11-.36.21-.54.32,0,0-.04.05-.04.05Z"/>
  <path d="m149.87,71.19c0-2,.16-4.02-.04-6.01-.3-3.07,1.12-4.82,3.72-6.18,3.29-1.72,6.51-3.63,9.61-5.67,2.62-1.73,5.39-.39,6.55,1.55.53.88.15,2.32.15,3.5,0,4.09,0,8.17,0,12.26,0,1.84-.67,3.28-2.35,4.24-4.02,2.31-7.94,4.8-12.01,7.01-2.88,1.56-5.52-.18-5.64-3.49,0-.08,0-.16,0-.24,0-2.32,0-4.65,0-6.97Z"/>
</svg>