<svg id="b3449d58-b9f6-49c9-a17e-fb9581114bf3" data-name="Capa 1" xmlns="http://www.w3.org/2000/svg" width="200" height="200" viewBox="0 0 200 200"><g id="b41fa49b-b62a-4f07-8ae6-a615c2fc20d8" data-name="layer2"><g id="af63a7b9-b14f-4339-b2e5-e7e1b3aeccb1" data-name="g10079"><path id="b5035b30-c584-4776-8c37-6d1352646b27" data-name="path1963" d="M28.4374,99.971V63H171.5626v73.9419H28.4374Z" style="fill:#9c9c9c;fill-opacity:0"/><path id="b6ae27f1-9ba7-418e-81f4-7beaab3eb11a" data-name="path1961" d="M133.0276,132.01l-1.7471-1.6082-5.94-.1161c-5.0674-.0989-6.1516-.2235-7.3806-.8481-2.6424-1.3429-2.9248-2.0841-3.08-8.0837-.1819-7.0353.0849-9.0206,1.4161-10.5368,1.47-1.6744,3.0994-2.099,8.9253-2.3262,8.0071-.3123,11.7387.6656,12.87,3.3726.6432,1.5393.7521,13.4531.1379,15.0795a4.9565,4.9565,0,0,1-1.3125,1.7713l-.9233.7409,2.0446,1.9337a19.6457,19.6457,0,0,1,2.0446,2.096,11.0468,11.0468,0,0,1-2.6539.1477C134.81,133.6186,134.7517,133.5973,133.0276,132.01Zm-7.2913-6.6074-1.7175-1.6387h2.7594c2.6984,0,2.7963.0324,4.424,1.4652,2.515,2.2138,2.6573,1.91,2.6573-5.6629,0-8.15.3963-7.6989-6.7719-7.6989-7.1559,0-6.7719-.4288-6.7719,7.5607,0,7.6428-.0046,7.6347,4.3011,7.6218l2.8369-.0085Zm-34.7045,3.3277v-1.672h7.2395c8.8,0,8.96-.0587,8.7924-3.2268-.1438-2.7268-.658-2.9835-5.9906-2.9906-4.8077-.0064-7.2428-.618-8.758-2.2-.9-.94-1.0864-1.4682-1.1946-3.3945-.1662-2.9555.6009-4.5105,2.84-5.757,1.6-.8909,1.8853-.9207,9.9748-1.0434l8.3276-.1262v3.3639l-7.0464.0365a78.7876,78.7876,0,0,0-7.9616.29c-.83.23-.9251.4584-1.0226,2.4678-.152,3.1326-.0145,3.2055,6.4764,3.4338,4.8176.1694,5.5061.2778,6.9819,1.1,2.19,1.22,2.6255,2.1566,2.49,5.36-.1254,2.9553-.5737,3.6974-3.0287,5.013-1.3519.7244-2.1027.7935-9.7918.9009l-8.3276.1162Zm55.1231,1.2131a6.0159,6.0159,0,0,1-4.2907-2.98c-.3756-.89-.5006-3.3345-.5006-9.7885v-8.6022h4.7586l.0913,8.6022c.0875,8.25.1229,8.6283.8641,9.2427.6789.5627,1.6581.6406,8.0533.6406h7.28v3.2944l-7.4125-.0367A79.6818,79.6818,0,0,1,146.1549,129.9437Z" style="fill:#e48c00"/><path id="a69fca60-cc3f-4e89-a7df-7ff420d3c106" data-name="path1895" d="M167.8433,123.8135a3.4889,3.4889,0,1,0,3.4889,3.4889A3.4932,3.4932,0,0,0,167.8433,123.8135Zm.0458.8923a2.5852,2.5852,0,1,1-2.5853,2.5852A2.5787,2.5787,0,0,1,167.8891,124.7058Z" style="fill:#e48c00"/><path id="b2dc3c53-9bcd-446c-a444-5b0e5a0f8c19" data-name="text1905" d="M167.7123,127.1008a.5964.5964,0,0,0,.4142-.1169.5017.5017,0,0,0,.1269-.3842.4889.4889,0,0,0-.1269-.379.6057.6057,0,0,0-.4142-.1142h-.3878v.9943h.3878m-.3878.6905v1.4668h-.9217v-3.876h1.4077a1.6767,1.6767,0,0,1,1.0342.2571.9654.9654,0,0,1,.33.8125,1.0767,1.0767,0,0,1-.1723.6309.9831.9831,0,0,1-.5147.3634.6631.6631,0,0,1,.3375.2129,1.5784,1.5784,0,0,1,.2878.5187l.3609,1.0805h-.8258l-.4357-.9631a1.06,1.06,0,0,0-.2682-.3973.5614.5614,0,0,0-.3591-.1064h-.2609" style="fill:#e48c00"/><path id="a8f40ed4-3c39-435c-be87-da2785d1e355" data-name="path1959" d="M65.4084,135.3432v-1.6568l8.2661-.111c7.7738-.1043,8.2981-.1545,8.8007-.8427a2.6994,2.6994,0,0,0,.4275-1.6472l-.107-.9155-6.9549-.183c-6.4846-.1707-7.0481-.241-8.3323-1.0394-2.1494-1.3363-2.2832-1.806-2.2832-8.0184v-5.58l2.2878-.0019,2.2879-.002v5.251c0,6.9819-.3678,6.6456,7.267,6.6456h5.7277l.1-6.1313.1-6.1313h4.741l-.0006,8.6936c-.0007,10.2239-.1156,10.6735-3.1109,12.1712-1.7728.8864-2.1028.9189-10.5239,1.0356L65.4084,137Zm-22.1758-5.0176a4.1848,4.1848,0,0,1-1.6923-.9737c-.31-.3553-2.23-4.3523-4.2651-8.8822l-3.7008-8.2361-.0061,9.06-.0062,9.06H28.8034v-9.9849c0-11.5631-.0635-11.3189,3.119-11.98,2.3383-.4854,4.0228-.0957,5.1946,1.2019a81.3489,81.3489,0,0,1,4.1619,8.7745c1.8853,4.3789,3.5146,7.9611,3.6208,7.96s1.7578-3.5562,3.67-7.9012c1.9759-4.4888,3.9054-8.3418,4.4686-8.9233q2.2435-2.3164,6.5569-.69c1.6563.6235,1.7862,1.486,1.7862,11.8594v9.683H56.6232l-.0162-9.06c-.0189-10.5763.468-10.6068-4.3881.2746-1.6622,3.7245-3.2624,7.1394-3.5561,7.5887a3.7476,3.7476,0,0,1-1.8691,1.1876A4.987,4.987,0,0,1,43.2326,130.3256Zm125.5821-16.5044a32.9981,32.9981,0,0,0-4.024-2.3936c-3.9537-1.993-6.7719-4.6083-6.7719-6.2844,0-.512,3.1025-1.4407,5.77-1.7272,1.7942-.1928,2.209-.3473,1.9074-.7108-.8688-1.0468-6.19-4.1826-8.41-4.9556a13.7537,13.7537,0,0,1-3.0367-1.3888c-.68-.58-2.4985-4.1951-5.2423-10.4237A30.4965,30.4965,0,0,0,141.67,75.4c-4.3985-4.2324-8.0359-6.1813-12.532-6.7143a7.8243,7.8243,0,0,1-3.4858-1.2728c-2.9973-2.0622-5.772-2.7852-6.219-1.62-.2386.6219.0711,1.2038,2.5887,4.8632a25.9436,25.9436,0,0,1,2.6848,5.701,16.4661,16.4661,0,0,0,2.4118,4.9833c1.4574,1.7443,1.4708,1.8571.5517,4.6285a13.8146,13.8146,0,0,0-.748,7.5445c.4,2.2947,1.6389,5.0032,2.4042,5.2544.2547.0837.5059-.7247.6665-2.1445a9.1332,9.1332,0,0,1,1.9493-5.1568c.5131-.5853.65-.42,1.7474,2.1034a43.4527,43.4527,0,0,0,6.1985,10.0278c2.19,2.394.4074,1.2052-2.6279-1.7524a22.5572,22.5572,0,0,1-3.6337-4.51c-.937-1.8263-1.01-1.8857-1.26-1.0237a10.0866,10.0866,0,0,0-.3013,2.048,2.38,2.38,0,0,1-3.6883,1.9831c-.9751-.5218-2.1977-2.657-2.7853-4.864a18.2265,18.2265,0,0,1,.2321-9.2135c.742-2.8326.7424-2.8715.0413-3.6379-1.002-1.0954-2.0884-3.37-3.1975-6.6952a18.3689,18.3689,0,0,0-2.4776-4.861c-.8371-1.0979-1.7221-2.3333-1.9666-2.7453a4.4388,4.4388,0,0,1,.2028-4.2449c1.2537-1.5482,5.5131-.75,8.6408,1.62a6.423,6.423,0,0,0,3.1316,1.0542,19.2843,19.2843,0,0,1,3.5761.7487c3.6744,1.2736,8.94,5.2563,12.3884,9.371,2.3074,2.7529,3.1281,4.2192,7.2524,12.9576L155.8,94.882l2.4672,1.1186c4.4335,2.01,10.6711,6.8977,10.2862,8.06-.0886.2675-.8891.6178-1.7788.7786-3.9957.7218-5.4729,1.1378-5.3528,1.5073a15.28,15.28,0,0,0,2.8214,2.2452c2.4324,1.67,6.5662,5.7987,6.1863,6.1786A4.3657,4.3657,0,0,1,168.8147,113.8212ZM129.4171,74.0724c-1.2043-1.9358-1.2025-1.9212-.2369-1.9212,1.1485,0,1.751.6475,1.751,1.8819C130.9312,75.5718,130.3591,75.5867,129.4171,74.0724Z" style="fill:#015f8b"/></g></g></svg>