<svg id="f5586b50-4f50-44ef-bb34-01d97684a472" data-name="Capa 1" xmlns="http://www.w3.org/2000/svg" width="200" height="200" viewBox="0 0 200 200"><path d="M95.8084,36.0344c-.2753.0251-1.1511.1126-1.9394.1752a64.1547,64.1547,0,0,0-45.9949,26.522A63.3442,63.3442,0,0,0,36.5756,90.6923a48.9775,48.9775,0,0,0-.5756,9.32,48.9786,48.9786,0,0,0,.5756,9.32,64.2593,64.2593,0,0,0,43.78,51.7054,67.6771,67.6771,0,0,0,13.5132,2.8023,117.8957,117.8957,0,0,0,12.262,0,64.6266,64.6266,0,0,0,23.06-6.7431c1.1011-.563,1.3138-.7131,1.1636-.8382-.1-.0751-4.7921-6.3678-10.4226-13.9741l-10.235-13.824L96.8719,109.4829C89.8151,99.0492,84.0094,90.5172,83.9593,90.5172c-.05-.0126-.1,8.4194-.1251,18.7155-.0375,18.0274-.05,18.753-.2753,19.1784a2.2735,2.2735,0,0,1-1.101,1.1384c-.4.2-.7508.2377-2.64.2377H77.6532l-.5756-.3628a2.3391,2.3391,0,0,1-.8383-.9132l-.2628-.563.0251-25.0833.0375-25.0958.3879-.4879a3.4339,3.4339,0,0,1,.9259-.7632c.513-.25.7132-.2752,2.8778-.2752,2.5525,0,2.9779.1,3.641.8257.1877.2,7.132,10.6588,15.44,23.2568s19.6692,29.8,25.25,38.2442l10.1349,15.35.513-.3378a65.7008,65.7008,0,0,0,13.15-11.5346,63.7026,63.7026,0,0,0,15.0647-32.7146,48.9786,48.9786,0,0,0,.5756-9.32,48.9775,48.9775,0,0,0-.5756-9.32,64.2593,64.2593,0,0,0-43.78-51.7054,67.1982,67.1982,0,0,0-13.3255-2.79c-1.2012-.1251-9.4718-.2627-10.51-.1627ZM122.009,74.7416a2.5239,2.5239,0,0,1,1.2637,1.4762c.1.3253.1252,7.281.1,22.9565l-.0375,22.4937-3.9664-6.08-3.9789-6.08V93.1568c0-10.5712.05-16.5137.1252-16.8014a2.5519,2.5519,0,0,1,1.2387-1.5763c.513-.2627.7006-.2877,2.6651-.2877C121.2708,74.4914,121.5961,74.5164,122.009,74.7416Z"/></svg>