<svg id="fd40508b-deb2-4b52-b0bc-ee8949ebd220" data-name="Capa 1" xmlns="http://www.w3.org/2000/svg" width="200" height="200" viewBox="0 0 200 200"><path d="M100.0253,172.3992a11.1684,11.1684,0,0,1-5.5649-1.4875L76.747,160.4247c-2.6457-1.48-1.3548-2.0028-.4822-2.3043a35.7578,35.7578,0,0,0,8.0087-3.6524,1.3448,1.3448,0,0,1,1.3189.093l13.6081,8.0751a1.7956,1.7956,0,0,0,1.6442,0l53.0592-30.6269a1.6731,1.6731,0,0,0,.81-1.4344V69.3475a1.7037,1.7037,0,0,0-.8208-1.4609l-53.038-30.6a1.6317,1.6317,0,0,0-1.6336,0l-53.0273,30.6a1.6908,1.6908,0,0,0-.8407,1.4476v61.2273a1.6352,1.6352,0,0,0,.8234,1.4211l14.53,8.3939c7.8891,3.9446,12.71-.7039,12.71-5.379v-60.43A1.5138,1.5138,0,0,1,74.9579,73.04h6.72a1.519,1.519,0,0,1,1.5274,1.5273v60.457c0,10.5188-5.7376,16.5619-15.7119,16.5619-3.068,0-5.4853,0-12.2322-3.32l-13.9189-8.0219a11.2192,11.2192,0,0,1-5.5649-9.6822V69.3343a11.1494,11.1494,0,0,1,5.5649-9.6689l53.1123-30.64a11.6348,11.6348,0,0,1,11.1564,0l53.0459,30.6535a11.1933,11.1933,0,0,1,5.5649,9.6688v61.2273a11.2262,11.2262,0,0,1-5.5649,9.6689l-53.0459,30.64a11.1519,11.1519,0,0,1-5.5915,1.4875" style="fill:#689f63"/><path d="M116.5118,130.2727c-23.2158.0607-28.1113-10.5835-28.1347-19.5219a1.5264,1.5264,0,0,1,1.5327-1.5314l6.8532-.0179a1.5341,1.5341,0,0,1,1.5174,1.295c1.0543,6.9806,4.1448,10.4948,18.1831,10.458,11.1829-.0292,15.9311-2.5678,15.9155-8.4979-.0089-3.4133-1.37-5.9465-18.7467-7.6011-14.5336-1.3963-23.52-4.5737-23.55-16.1949-.028-10.7047,8.9866-17.1034,24.1141-17.143,16.9868-.0444,25.4226,5.8305,26.5183,18.4981a1.5462,1.5462,0,0,1-.4086,1.1831,1.58,1.58,0,0,1-1.1277.4944l-6.893.018a1.5225,1.5225,0,0,1-1.4906-1.1914c-1.6794-7.34-5.6965-9.6806-16.6-9.6521-12.2056.032-13.6156,4.2857-13.6072,7.4733.01,3.8648,1.6865,4.9894,18.1611,7.1244,16.3152,2.1222,24.0662,5.1567,24.0962,16.6185.03,11.5547-9.5947,18.2074-26.4089,18.2514" style="fill:#689f63"/></svg>