<svg id="a8a0c7d1-aa9d-4a8c-9bec-199f12019409" data-name="Capa 1" xmlns="http://www.w3.org/2000/svg" width="200" height="200" viewBox="0 0 200 200"><path d="M22.8571,70H177.1429v51.4286H100V130H65.7143v-8.5714H22.8571Zm8.5715,42.8571H48.5714V87.1429h8.5715v25.7142h8.5714V78.5714H31.4286ZM74.2857,78.5714v42.8572H91.4286v-8.5715h17.1428V78.5714Zm17.1429,8.5715H100v17.1428H91.4286Zm25.7143-8.5715v34.2857h17.1428V87.1429h8.5714v25.7142h8.5715V87.1429H160v25.7142h8.5714V78.5714Z" style="fill:#cb3837"/><polygon points="31.429 112.857 48.571 112.857 48.571 87.143 57.143 87.143 57.143 112.857 65.714 112.857 65.714 78.571 31.429 78.571 31.429 112.857" style="fill:#fff"/><path d="M74.2857,78.5714v42.8572H91.4286v-8.5715h17.1428V78.5714ZM100,104.2857H91.4286V87.1429H100Z" style="fill:#fff"/><polygon points="117.143 78.571 117.143 112.857 134.286 112.857 134.286 87.143 142.857 87.143 142.857 112.857 151.429 112.857 151.429 87.143 160 87.143 160 112.857 168.571 112.857 168.571 78.571 117.143 78.571" style="fill:#fff"/></svg>