<svg id="e4fbb912-28e3-41c8-b333-aaef00e7ce42" data-name="Capa 1" xmlns="http://www.w3.org/2000/svg" xmlns:xlink="http://www.w3.org/1999/xlink" width="200" height="200" viewBox="0 0 200 200"><defs><clipPath id="b90052db-c22c-4da5-9544-94acf56213f1"><path d="M26.6133,100c0,21.32,32.8571,38.6042,73.3867,38.6042h0c40.53,0,73.3869-17.2839,73.3869-38.6042h0c0-21.32-32.8573-38.6042-73.3869-38.6042h0C59.47,61.3958,26.6133,78.68,26.6133,100" style="fill:none"/></clipPath><radialGradient id="f1b9cbba-d567-40bb-8eb7-e9efac238b1f" cx="-308.6426" cy="640.0303" r="0.2123" gradientTransform="matrix(453.8224, 0, 0, -453.8224, 140139.6107, 290535.0507)" gradientUnits="userSpaceOnUse"><stop offset="0" stop-color="#aeb2d5"/><stop offset="0.3" stop-color="#aeb2d5"/><stop offset="0.75" stop-color="#484c89"/><stop offset="1" stop-color="#484c89"/></radialGradient><clipPath id="b2b2d28b-f1d8-460b-897d-47842fa5e243"><rect x="23.5556" y="57" width="152.8889" height="86" style="fill:none"/></clipPath></defs><g id="bc936f95-eab4-44ee-91d2-afdde30a05b9" data-name="g3440"><g style="clip-path:url(#b90052db-c22c-4da5-9544-94acf56213f1)"><g id="bad2c9bb-a43a-4416-9cc4-b3cd370218d2" data-name="g3442"><g id="bf8d39c7-c53d-4434-b451-25a2aebcb97f" data-name="g3448"><g id="a0a6e025-147c-4ab5-8d73-9a714c6a5f72" data-name="g3450"><path id="adabb460-b88d-418e-8ea3-05e897e14304" data-name="path3462" d="M26.6133,100c0,21.32,32.8571,38.6042,73.3867,38.6042h0c40.53,0,73.3869-17.2839,73.3869-38.6042h0c0-21.32-32.8573-38.6042-73.3869-38.6042h0C59.47,61.3958,26.6133,78.68,26.6133,100" style="fill:url(#f1b9cbba-d567-40bb-8eb7-e9efac238b1f)"/></g></g></g></g></g><g id="fa02530f-e580-4eff-aa38-b388990b81eb" data-name="g3464"><g style="clip-path:url(#b2b2d28b-f1d8-460b-897d-47842fa5e243)"><g id="b6c8661e-8e85-4272-bf0a-7886ca39e890" data-name="g3466"><g id="bed0659c-52d5-4974-8d06-a0c3b4c87001" data-name="g3472"><path id="ebb8c80b-7966-4036-a502-7891782e8a01" data-name="path3474" d="M100,135.7379c38.9466,0,70.52-16.0005,70.52-35.738S138.9466,64.2618,100,64.2618,29.48,80.2626,29.48,100s31.5734,35.738,70.52,35.738" style="fill:#777bb3"/></g></g></g></g><g id="b792896d-1da2-40c7-bf06-b8ca7c3861a5" data-name="g3478"><g id="b50fc2f4-73cc-48cc-bac1-73f88beec932" data-name="g3484"><path id="e9cacb4b-5b58-436f-b553-37efa67bb4a0" data-name="path3486" d="M66.4851,104.431c3.2024,0,5.5931-.5906,7.1058-1.7548,1.4965-1.1522,2.53-3.1486,3.0719-5.9332.5051-2.6028.3127-4.42-.5718-5.401-.9043-1.0018-2.8595-1.51-5.8111-1.51H65.1621L62.3249,104.431Zm-16.739,17.983a.7964.7964,0,0,1-.7814-.9481l7.5191-38.687a.7965.7965,0,0,1,.7817-.6442H73.4712c5.0931,0,8.884,1.3829,11.2668,4.1107,2.3956,2.7422,3.1353,6.5753,2.1986,11.3926a17.6045,17.6045,0,0,1-5.5348,9.911A15.7324,15.7324,0,0,1,75.5,111.0856a26.7352,26.7352,0,0,1-8.1085,1.0429h-6.562l-1.8739,9.641a.7961.7961,0,0,1-.7815.6445Z"/></g><g id="bdbe8378-bc37-4f0b-bde2-16a27412384f" data-name="g3488"><path id="f67cf355-5212-4283-86b8-4958b7c6a6e6" data-name="path3490" d="M65.8186,90.6284H70.28c3.5624,0,4.8.7817,5.22,1.2475.6976.7735.8293,2.4043.3809,4.7159-.5037,2.588-1.4375,4.4229-2.7758,5.4533-1.37,1.0549-3.5977,1.5894-6.62,1.5894H63.2909Zm7.6527-9.29H57.2653a1.5926,1.5926,0,0,0-1.5631,1.2887l-7.5192,38.687a1.5921,1.5921,0,0,0,1.5632,1.8963h8.4274a1.5926,1.5926,0,0,0,1.5634-1.2887l1.7487-8.9968h5.9056a27.5119,27.5119,0,0,0,8.3555-1.0822,16.5271,16.5271,0,0,0,6.1989-3.7118A18.401,18.401,0,0,0,87.7184,97.79c.986-5.0708.185-9.1314-2.3807-12.0681-2.5407-2.9086-6.5334-4.3834-11.8664-4.3834M61.3588,105.2271h5.1263q5.0967,0,7.5916-1.92t3.3678-6.4121q.8365-4.3127-.762-6.086-1.6007-1.773-6.4025-1.7731H64.5058l-3.147,16.1913M73.4713,82.9308q7.3128,0,10.6672,3.8384,3.3528,3.8387,2.0165,10.7169a16.81,16.81,0,0,1-5.292,9.4767,14.8852,14.8852,0,0,1-5.6093,3.3654,25.8342,25.8342,0,0,1-7.8624,1.0039H60.1726l-1.999,10.2855H49.7462l7.5191-38.6868h16.206" style="fill:#fff"/></g><g id="b47af9d2-95a9-4a91-acb1-06bbdaa68d02" data-name="g3492"><path id="a8582b03-2b14-4bcf-ac67-4212d4d8832a" data-name="path3494" d="M106.26,112.1285a.7968.7968,0,0,1-.7817-.9481l3.3261-17.1175c.3164-1.6279.2384-2.7963-.22-3.29-.28-.3018-1.1222-.808-3.6117-.808H98.947L94.7652,111.484a.7965.7965,0,0,1-.7817.6445H85.6223a.7965.7965,0,0,1-.7817-.9481L92.36,72.4934a.7964.7964,0,0,1,.7817-.6442h8.3611a.796.796,0,0,1,.7817.9481L100.47,82.1347h6.4824c4.9384,0,8.2871.8706,10.2375,2.6617,1.988,1.8273,2.6084,4.7489,1.8439,8.6847l-3.4984,18.0029a.7962.7962,0,0,1-.7817.6445Z"/></g><g id="a34391ea-1ae9-4df0-85bd-bd400cdb0706" data-name="g3496"><path id="afa0215d-bbef-4935-a9cf-c831a517378a" data-name="path3498" d="M101.5026,71.0527H93.1415a1.5927,1.5927,0,0,0-1.5634,1.2887l-7.5191,38.687a1.5924,1.5924,0,0,0,1.5634,1.8963h8.3611a1.5929,1.5929,0,0,0,1.5634-1.2887l4.0566-20.8749h5.3694c2.4852,0,3.0068.5308,3.0278.5537.1507.1622.349.9133.0217,2.5962l-3.3261,17.1174a1.5925,1.5925,0,0,0,1.5634,1.8963h8.4938a1.5928,1.5928,0,0,0,1.5634-1.2887l3.4982-18.0029c.8209-4.226.1186-7.396-2.0866-9.4229-2.1043-1.9326-5.6293-2.872-10.7763-2.872h-5.5167l1.63-8.3889a1.5927,1.5927,0,0,0-1.5634-1.8966m0,1.5926L99.5037,82.9308h7.4485q7.03,0,9.6986,2.4521t1.6011,7.9465l-3.4984,18.0027H106.26l3.3261-17.1172q.5677-2.9208-.4177-3.9836t-4.1952-1.0628H98.29l-4.3069,22.1636H85.6224l7.5191-38.6868h8.3611" style="fill:#fff"/></g><g id="b0607d3c-d2d9-4393-be21-5eb027785015" data-name="g3500"><path id="eb8b3d28-f967-4bc5-a370-dd690e341bbd" data-name="path3502" d="M132.2632,104.431c3.2025,0,5.5932-.5906,7.1059-1.7548,1.4965-1.152,2.53-3.1483,3.0721-5.9332.5051-2.6028.3127-4.42-.572-5.401-.9043-1.0018-2.8595-1.51-5.8111-1.51H130.94l-2.8372,14.5988Zm-16.7387,17.983a.7968.7968,0,0,1-.7817-.9481l7.5192-38.687a.7967.7967,0,0,1,.782-.6442h16.2054c5.0934,0,8.884,1.3829,11.2671,4.1107,2.3955,2.7419,3.135,6.575,2.1985,11.3926a17.6079,17.6079,0,0,1-5.535,9.911,15.7328,15.7328,0,0,1-5.9022,3.5366,26.734,26.734,0,0,1-8.1084,1.0429h-6.5623l-1.8731,9.641a.7967.7967,0,0,1-.782.6445Z"/></g><g id="a9c8d0d1-89a8-41ff-8758-d2b8f30cb7e0" data-name="g3504"><path id="f1b89abe-3253-4c06-9336-3ff1bce56c25" data-name="path3506" d="M131.5968,90.6284h4.4614c3.5623,0,4.8.7817,5.22,1.2475.6979.7735.8295,2.4043.3809,4.7157-.5038,2.5882-1.4378,4.4231-2.7759,5.4535-1.37,1.0549-3.5976,1.5894-6.62,1.5894h-3.1939Zm7.6527-9.29H123.0438a1.5927,1.5927,0,0,0-1.5632,1.2887l-7.5191,38.687a1.5921,1.5921,0,0,0,1.5631,1.8963h8.4275a1.5929,1.5929,0,0,0,1.5634-1.2887l1.7484-8.9968H133.17a27.5123,27.5123,0,0,0,8.3555-1.0822,16.5288,16.5288,0,0,0,6.2-3.7123,18.4,18.4,0,0,0,5.772-10.3405c.9861-5.0711.185-9.1316-2.3806-12.0684-2.5407-2.9083-6.5331-4.3831-11.8664-4.3831m-12.1122,23.8889h5.126q5.0967,0,7.5916-1.92t3.3678-6.4121q.837-4.3127-.762-6.086-1.6007-1.773-6.4025-1.7731H130.284l-3.1467,16.1913M139.25,82.9308q7.3128,0,10.6672,3.8384t2.0164,10.7169a16.8087,16.8087,0,0,1-5.2919,9.4767,14.8856,14.8856,0,0,1-5.6094,3.3654,25.8335,25.8335,0,0,1-7.8623,1.0039h-7.2187l-1.9987,10.2855h-8.4275l7.5192-38.6868H139.25" style="fill:#fff"/></g></g></svg>