<svg id="a0b04d19-c84a-4e90-bc07-fa8f26da48da" data-name="Capa 1" xmlns="http://www.w3.org/2000/svg" width="200" height="200" viewBox="0 0 200 200"><path d="M56.699,100,42.2657,125,56.699,150l14.4332-25Z" style="fill:#303f9f"/><path d="M143.3021,50,128.8682,75l14.4339,25,14.4332-25Z" style="fill:#3f51b5"/><path d="M157.7353,75l-43.3021,75h28.8689l28.8664-50Z" style="fill:#7986cb"/><path d="M114.4332,50,56.699,150H85.5675L143.3021,50Z" style="fill:#ff4081"/><path d="M56.699,50,27.8315,100l14.4342,25L85.5675,50Z" style="fill:#536dfe"/><path d="M114.4332,50l14.435,25,14.4339-25Z" style="fill:#fff;fill-opacity:0.20000000298023224"/><path d="M100.0007,75l14.4325-25,14.435,25Z" style="fill:#fff;fill-opacity:0.10000000149011612"/><path d="M100.0007,75l14.4325,25,14.435-25Z" style="fill:#fff;fill-opacity:0"/><path d="M85.5675,100l14.4332-25,14.4325,25Z" style="fill-opacity:0.10000000149011612"/><path d="M85.5675,100l14.4332,25,14.4325-25Z" style="fill-opacity:0.20000000298023224"/><path d="M71.1329,125l14.4346-25,14.4332,25Z" style="fill-opacity:0.30000001192092896"/><path d="M71.1329,125l14.4346,25,14.4332-25Z" style="fill-opacity:0.4000000059604645"/><path d="M56.699,150l14.4339-25,14.4346,25Z" style="fill-opacity:0.5"/><path d="M56.699,50,71.1329,75,85.5675,50Z" style="fill:#fff;fill-opacity:0.20000000298023224"/><path d="M42.2657,75,56.699,50,71.1329,75Z" style="fill:#fff;fill-opacity:0.10000000149011612"/><path d="M42.2657,75,56.699,100,71.1329,75Z" style="fill:#fff;fill-opacity:0"/><path d="M27.8322,100,42.2657,75,56.699,100Z" style="fill-opacity:0.10000000149011612"/><path d="M27.8322,100l14.4335,25L56.699,100Z" style="fill-opacity:0.20000000298023224"/><path d="M71.1329,125,56.699,100,42.2657,125Z" style="fill:#fff;fill-opacity:0"/><path d="M71.1329,125,56.699,150,42.2657,125Zm86.6024-50L143.3021,50,128.8682,75Z" style="fill-opacity:0.20000000298023224"/><path d="M157.7353,75l-14.4332,25L128.8682,75Z" style="fill:#fff;fill-opacity:0"/><path d="M143.3021,100l14.4332-25,14.4332,25Z" style="fill:#fff;fill-opacity:0.20000000298023224"/><path d="M143.3021,100l14.4332,25,14.4332-25Z" style="fill:#fff;fill-opacity:0.10000000149011612"/><path d="M128.8682,125l14.4339-25,14.4332,25Z" style="fill:#fff;fill-opacity:0"/><path d="M128.8682,125l14.4339,25,14.4332-25Z" style="fill-opacity:0.10000000149011612"/><path d="M114.4332,150l14.435-25,14.4339,25Z" style="fill-opacity:0.20000000298023224"/></svg>