<svg id="ac39285e-7d8c-41fc-8c29-2f0383bdc457" data-name="Capa 1" xmlns="http://www.w3.org/2000/svg" width="200" height="200" viewBox="0 0 200 200"><path d="M164.0157,103.2633c-.3276,14.3427-6.2808,29.5784-18.7714,42.0029-12.5361,12.47-27.7663,18.8054-45.4466,18.7332A61.8876,61.8876,0,0,1,54.722,145.2026C42.3138,132.75,36.2214,117.549,35.9841,99.9868,36.29,82.3758,42.3784,67.11,54.9116,54.6785,67.3566,42.3349,82.5266,36.2341,100.0534,36c17.8759.3246,33.2581,6.618,45.82,19.4074C157.3219,67.064,164.054,82.9259,164.0157,103.2633ZM74.2849,135.0478a1.6982,1.6982,0,0,1-.1069-.2576q-.5066-2.2385-1.0058-4.4783a1.4993,1.4993,0,0,1,.712-1.7042c.1957-.121.4119-.2092.62-.3107q5.4671-2.6734,10.66-5.8476a133.38,133.38,0,0,0,12.7077-8.8221c.8226-.6419,1.6133-1.3247,2.4225-1.984a.2957.2957,0,0,0,.0264-.5073c-1.0458-1.0475-2.0852-2.1014-3.1451-3.1344a.73.73,0,0,0-.536-.1625c-1.174.1534-2.3447.3319-3.515.5122-1.77.2726-3.5376.5632-5.3093.8247a2.3513,2.3513,0,0,0-1.428.7152c-2.4476,2.5177-4.919,5.0123-7.3864,7.5107q-5.2917,5.3583-10.5888,10.7114c-.1428.1445-.29.2852-.426.4358-.3746.4148-.3807.4244.0146.823q2.7593,2.7817,5.5274,5.5546a2.4459,2.4459,0,0,0,.3949.3357.2811.2811,0,0,0,.2457-.012C74.2283,135.2144,74.25,135.1134,74.2849,135.0478Zm44.812-59.14a3.7124,3.7124,0,0,0-.31-.2438,5.5039,5.5039,0,0,0-5.47-.367,29.5,29.5,0,0,0-5.0094,2.9492,112.3409,112.3409,0,0,0-9.7974,8.2172c-1.1946,1.1024-2.39,2.205-3.5585,3.3344q-3.069,2.9653-6.1041,5.9656c-.3967.39-.3928.4126.015.8236q1.8405,1.8552,3.6951,3.6963c.3984.3962.4094.3938.8064.0032,2.09-2.0563,4.1865-4.1061,6.2645-6.1747q8.3031-8.2656,16.5908-16.5468a4.82,4.82,0,0,1,2.6673-1.5225C118.9485,76.0324,119.0017,75.97,119.0969,75.9073Zm.8207,1.9007a3.1893,3.1893,0,0,0-2.2957,1.0619q-4.8669,4.8579-9.7466,9.703c-.9876.9814-1.99,1.9477-2.98,2.9274q-5.1336,5.0829-10.2626,10.17a.7755.7755,0,0,1-.0617.0613c-.2365.1861-.2242.3546-.0078.5663q1.0577,1.0347,2.0877,2.0974c.2115.2188.3555.202.5758.0089q3.4-2.98,6.8136-5.9438,2.2608-1.9718,4.5181-3.9478,2.4913-2.1692,4.9895-4.33,2.3315-2.0217,4.6632-4.0429c1.2452-1.0861,2.4723-2.1932,3.7248-3.2708a2.8629,2.8629,0,0,0,.761-3.17A3.0557,3.0557,0,0,0,119.9176,77.808Zm8.923-17.7985a8.7786,8.7786,0,0,0-6.7447,2.7746,9.3194,9.3194,0,0,0,9.5855,15.3678c.74-.2536.7182-.2018.1577-.7633q-2.1223-2.1262-4.2482-4.2491c-.4926-.4926-.9977-.9735-1.4737-1.4817a.9763.9763,0,0,1-.0059-1.3981c.1335-.1526.2853-.2892.4291-.4328q3.2648-3.2621,6.53-6.5242c.37-.3694.7287-.75,1.1092-1.1074.2481-.2331.1717-.38-.0718-.5388A9.149,9.149,0,0,0,128.8406,60.01ZM122.8479,85.17c-.02-.0682-.02-.1425-.0532-.1636-.0308-.0193-.1048.0075-.147.0342a1.6873,1.6873,0,0,0-.2027.1634q-4.1865,3.6675-8.3724,7.3357T105.7,99.8776q-3.3662,2.955-6.7253,5.9181c-.3665.3226-.3791.3348-.0476.67q1.5609,1.58,3.1405,3.14c.3557.3515.3735.3462.766-.0238.9713-.9154,1.9585-1.8153,2.9-2.7609q3.47-3.4866,6.9-7.0127a68.9911,68.9911,0,0,0,6.0218-7.0923,29.49,29.49,0,0,0,3.72-6.2554C122.55,86.0331,122.6943,85.5922,122.8479,85.17Zm15.2162-15.8326c0-.3479.0281-.6985-.0047-1.0432a8.5969,8.5969,0,0,0-1.8681-4.5982c-.3412-.4313-.2929-.4027-.6369-.0594q-3.5124,3.504-7.0224,7.01c-.2159.2146-.2156.3326.0009.5469,1.7729,1.7558,3.5311,3.5264,5.3,5.2865.4136.4116.4336.4127.9248.0014A8.86,8.86,0,0,0,138.0641,69.3378Zm-66.851,66.4477.0005-.0062a1.3856,1.3856,0,0,0,.1736.0071c.1138-.0087.2271-.0248.34-.0378a1.468,1.468,0,0,0-.1807-.2655q-1.8011-1.7-3.6095-3.3927c-.5071-.4749-1.026-.9373-1.5263-1.4191-.2-.1928-.3456-.2516-.5727-.0217-1.3647,1.3822-2.7422,2.7517-4.1125,4.1284a1.0293,1.0293,0,0,0-.13.2191.8881.8881,0,0,0,.273.1219c1.01.0684,2.0219.1158,3.0317.1891C67.0052,135.4608,69.109,135.6256,71.2131,135.7855Zm10.3-32.3932c.0567-.0108.1136-.0205.17-.0324,1.6052-.3406,3.2112-.6783,4.8156-1.0231q1.9427-.4175,3.882-.85c.36-.08.3812-.166.1335-.4445-.0769-.0864-.1623-.1651-.2449-.2462Q88.8443,99.3972,87.4184,98c-.4034-.3935-.4147-.3961-.8081-.0039q-2.5215,2.5131-5.0355,5.0339a1.9516,1.9516,0,0,0-.1774.19.4669.4669,0,0,0-.0481.135C81.4038,103.3673,81.4583,103.38,81.5129,103.3923Zm9.0967,3.1626c.4665-.057,1.0087-.1223,1.5506-.19q1.411-.1757,2.8216-.3544c.1971-.0252.2488-.1514.1173-.2866-.6438-.6619-1.3-1.3116-1.95-1.9673a.2665.2665,0,0,0-.4381-.004q-1.2813,1.29-2.5679,2.5748a.7256.7256,0,0,0-.0887.1455,1.2021,1.2021,0,0,0,.2188.0786A2.5375,2.5375,0,0,0,90.61,106.5549Z" style="fill:#fe6c37"/><path d="M74.2849,135.0478c-.035.0656-.0566.1666-.1169.2026a.2811.2811,0,0,1-.2457.012,2.4459,2.4459,0,0,1-.3949-.3357Q70.7613,132.152,68,129.3721c-.3953-.3986-.3892-.4082-.0146-.823.1361-.1506.2832-.2913.426-.4358Q73.706,122.7577,79,117.4019c2.4674-2.4984,4.9388-4.993,7.3864-7.5107a2.3513,2.3513,0,0,1,1.428-.7152c1.7717-.2615,3.5392-.5521,5.3093-.8247,1.17-.18,2.341-.3588,3.515-.5122a.73.73,0,0,1,.536.1625c1.06,1.033,2.0993,2.0869,3.1451,3.1344a.2957.2957,0,0,1-.0264.5073c-.8092.6593-1.6,1.3421-2.4225,1.984a133.38,133.38,0,0,1-12.7077,8.8221q-5.1984,3.1641-10.66,5.8476c-.2077.1015-.4239.19-.62.3107a1.4993,1.4993,0,0,0-.712,1.7042q.4965,2.2405,1.0058,4.4783A1.6982,1.6982,0,0,0,74.2849,135.0478Z" style="fill:#fefdfc"/><path d="M119.0969,75.9073c-.0952.0629-.1484.1251-.21.1347a4.82,4.82,0,0,0-2.6673,1.5225q-8.29,8.2793-16.5908,16.5468c-2.078,2.0686-4.1745,4.1184-6.2645,6.1747-.397.3906-.408.393-.8064-.0032Q90.7052,98.44,88.863,96.5865c-.4078-.411-.4117-.4339-.015-.8236q3.0442-2.9907,6.1041-5.9656c1.1689-1.1294,2.3639-2.232,3.5585-3.3344a112.3409,112.3409,0,0,1,9.7974-8.2172,29.5,29.5,0,0,1,5.0094-2.9492,5.5039,5.5039,0,0,1,5.47.367A3.7124,3.7124,0,0,1,119.0969,75.9073Z" style="fill:#fefdfc"/><path d="M119.9176,77.808a3.0557,3.0557,0,0,1,2.78,1.8911,2.8629,2.8629,0,0,1-.761,3.17c-1.2525,1.0776-2.48,2.1847-3.7248,3.2708q-2.3257,2.0283-4.6632,4.0429-2.4957,2.1642-4.9895,4.33-2.2626,1.97-4.5181,3.9478-3.4073,2.9715-6.8136,5.9438c-.22.1931-.3643.21-.5758-.0089q-1.0281-1.0641-2.0877-2.0974c-.2164-.2117-.2287-.38.0078-.5663a.7755.7755,0,0,0,.0617-.0613q5.1309-5.0856,10.2626-10.17c.9894-.98,1.992-1.946,2.98-2.9274q4.8777-4.8471,9.7466-9.703A3.1893,3.1893,0,0,1,119.9176,77.808Z" style="fill:#fefcfc"/><path d="M128.8406,60.01a9.149,9.149,0,0,1,5.2668,1.647c.2435.1591.32.3057.0718.5388-.3805.3576-.74.738-1.1092,1.1074q-3.2645,3.2623-6.53,6.5242c-.1438.1436-.2956.28-.4291.4328a.9763.9763,0,0,0,.0059,1.3981c.476.5082.9811.9891,1.4737,1.4817q2.1243,2.1243,4.2482,4.2491c.56.5615.5821.51-.1577.7633a9.3194,9.3194,0,0,1-9.5855-15.3678A8.7786,8.7786,0,0,1,128.8406,60.01Z" style="fill:#fefdfd"/><path d="M122.8479,85.17c-.1536.4218-.2977.8627-.4728,1.2909a29.49,29.49,0,0,1-3.72,6.2554,68.9911,68.9911,0,0,1-6.0218,7.0923q-3.4219,3.5335-6.9,7.0127c-.9411.9456-1.9283,1.8455-2.9,2.7609-.3925.37-.41.3753-.766.0238q-1.5795-1.5609-3.1405-3.14c-.3315-.3355-.3189-.3477.0476-.67q3.3625-2.9593,6.7253-5.9181,4.1832-3.6721,8.3725-7.3375,4.186-3.6679,8.3724-7.3357a1.6873,1.6873,0,0,1,.2027-.1634c.0422-.0267.1162-.0535.147-.0342C122.8283,85.0279,122.8283,85.1022,122.8479,85.17Z" style="fill:#fefcfb"/><path d="M138.0641,69.3378a8.86,8.86,0,0,1-3.3067,7.1444c-.4912.4113-.5112.41-.9248-.0014-1.7686-1.76-3.5268-3.5307-5.3-5.2865-.2165-.2143-.2168-.3323-.0009-.5469q3.5191-3.4971,7.0224-7.01c.344-.3433.2957-.3719.6369.0594a8.5969,8.5969,0,0,1,1.8681,4.5982C138.0922,68.6393,138.0641,68.99,138.0641,69.3378Zm-1.5641.3986a2.9906,2.9906,0,0,0-.0059-.5461,4.6172,4.6172,0,0,0-.2461-.914.8454.8454,0,0,0-.9661-.5541c-.4186.1053-.6164.4855-.5351,1.0375a1.3733,1.3733,0,0,0,.0671.2505,2.3482,2.3482,0,0,1-.2755,2.1524,1.8555,1.8555,0,0,0-.19.3874.5587.5587,0,0,0,.5814.7977,1.1181,1.1181,0,0,0,.95-.5149A3.1586,3.1586,0,0,0,136.5,69.7364Z" style="fill:#fefdfd"/><path d="M71.2131,135.7855c-2.1041-.16-4.2079-.3247-6.3125-.4774-1.01-.0733-2.0215-.1207-3.0317-.1891a.8881.8881,0,0,1-.273-.1219,1.0293,1.0293,0,0,1,.13-.2191c1.37-1.3767,2.7478-2.7462,4.1125-4.1284.2271-.23.3725-.1711.5727.0217.5.4818,1.0192.9442,1.5263,1.4191q1.8078,1.6931,3.6095,3.3927a1.468,1.468,0,0,1,.1807.2655c-.1134.013-.2267.0291-.34.0378a1.3856,1.3856,0,0,1-.1736-.0071Z" style="fill:#fefaf8"/><path d="M81.5128,103.3921l-.1635-.0372a.4669.4669,0,0,1,.0481-.135,1.9516,1.9516,0,0,1,.1774-.19q2.5169-2.5179,5.0355-5.0339c.3934-.3922.4047-.39.8081.0039q1.429,1.3942,2.8508,2.7961c.0826.0811.168.16.2449.2462.2477.2785.2267.3642-.1335.4445q-1.94.432-3.882.85c-1.6044.3448-3.21.6825-4.8156,1.0231C81.6265,103.3718,81.57,103.3815,81.5128,103.3921Z" style="fill:#fefcfb"/><path d="M90.61,106.5549a2.5375,2.5375,0,0,1-.3366-.0031,1.2021,1.2021,0,0,1-.2188-.0786.7256.7256,0,0,1,.0887-.1455q1.2828-1.2886,2.5679-2.5748a.2665.2665,0,0,1,.4381.004c.65.6557,1.3064,1.3054,1.95,1.9673.1315.1352.08.2614-.1173.2866q-1.41.18-2.8216.3544C91.6183,106.4326,91.0761,106.4979,90.61,106.5549Z" style="fill:#fef7f4"/><path d="M136.5,69.7364a3.1586,3.1586,0,0,1-.6208,2.0964,1.1181,1.1181,0,0,1-.95.5149.5587.5587,0,0,1-.5814-.7977,1.8555,1.8555,0,0,1,.19-.3874,2.3482,2.3482,0,0,0,.2755-2.1524,1.3733,1.3733,0,0,1-.0671-.2505c-.0813-.552.1165-.9322.5351-1.0375a.8454.8454,0,0,1,.9661.5541,4.6172,4.6172,0,0,1,.2461.914A2.9906,2.9906,0,0,1,136.5,69.7364Z" style="fill:#fe703d"/></svg>