<svg id="fa6e1451-6694-4631-8c6b-fea18aa316d9" data-name="Capa 1" xmlns="http://www.w3.org/2000/svg" width="200" height="200" viewBox="0 0 200 200"><path d="M71.9121,112.8641A13.0551,13.0551,0,1,0,58.8571,99.809,13.0551,13.0551,0,0,0,71.9121,112.8641Zm-30.857,26.11A13.0548,13.0548,0,1,0,28,125.9186a13.0547,13.0547,0,0,0,13.0551,13.0551Zm117.89,0a101.9632,101.9632,0,1,1,.0006,0Z"/><path d="M116.0678,100.3592c-.4174-4.3617-.63-7.992-3.9712-10.5435-4.2312-3.231-9.0248-1.1346-14.9288-3.2659a13.0529,13.0529,0,0,1,3.1843-25.7665,13.3017,13.3017,0,0,1,12.1692,7.8092c3.1505,5.985,1.1025,12.0752,5.0613,15.1431,4.6873,3.6326,11.007.9726,18.0585,4.4145a13.2818,13.2818,0,0,1,5.535,4.7391A12.8568,12.8568,0,0,1,143.3125,100a13.1217,13.1217,0,0,1-10.1048,12.6945c-5.9045,2.1313-10.6981.0349-14.9293,3.2659-4.7587,3.6337-2.2112,9.7127-6.09,16.1336a13.3313,13.3313,0,0,1-25.1263-5.95,13.0625,13.0625,0,0,1,7.6714-11.85c7.0515-3.4425,13.3706-.7818,18.0585-4.4145,2.7039-2.0958,3.2754-5.3285,3.2754-9.5208Z" style="fill:#d0021b"/></svg>