<svg id="ead2e3e0-c09a-43a5-8cd0-b358161939d2" data-name="Capa 1" xmlns="http://www.w3.org/2000/svg" width="200" height="200" viewBox="0 0 200 200"><path d="M137.714,77.0323c2.1085-10.2217,2.5589-18.062,1.1941-23.7529a15.3062,15.3062,0,0,0-4.5445-8.1405A12.939,12.939,0,0,0,125.5885,42c-5.5817,0-11.45,2.5452-17.7209,7.37a80.6714,80.6714,0,0,0-7.9631,7.1238,6.28,6.28,0,0,0-.7506-.7915c-7.7789-6.94-14.3432-11.2453-19.9522-12.91a15.3356,15.3356,0,0,0-9.321-.1228,12.9159,12.9159,0,0,0-7.0966,6.0389c-2.7976,4.8379-3.5346,11.1907-2.4974,19.0378A80.7846,80.7846,0,0,0,62.47,78.206a6.322,6.322,0,0,0-1.16.2593c-9.8942,3.2753-16.8884,6.79-21.1326,10.8154a15.2474,15.2474,0,0,0-4.7629,8.0041,12.9259,12.9259,0,0,0,1.6786,9.164c2.784,4.8312,7.9154,8.6387,15.2166,11.6547a78.9141,78.9141,0,0,0,9.9625,3.2958,5.9535,5.9535,0,0,0-.389,1.2146c-2.1153,10.2218-2.5657,18.0621-1.2009,23.753a15.2453,15.2453,0,0,0,4.5513,8.1405,12.8937,12.8937,0,0,0,8.7751,3.1389c5.5817,0,11.4432-2.5384,17.7141-7.3695a80.5588,80.5588,0,0,0,8.0518-7.2125,5.9371,5.9371,0,0,0,1.0577,1.2282c7.7925,6.9464,14.3568,11.2589,19.9658,12.9171a15.3359,15.3359,0,0,0,9.3211.1228,12.9153,12.9153,0,0,0,7.0965-6.0389c2.7977-4.8379,3.5346-11.1907,2.4974-19.0378a81.5293,81.5293,0,0,0-2.2927-10.87,6.094,6.094,0,0,0,1.276-.2729c9.8806-3.2754,16.8816-6.7895,21.1258-10.8154a15.2477,15.2477,0,0,0,4.7629-8.0041,12.926,12.926,0,0,0-1.6786-9.1641c-2.784-4.8311-7.9154-8.6387-15.2166-11.6547A80.899,80.899,0,0,0,137.4,78.09a5.9352,5.9352,0,0,0,.3207-1.0577Z" style="fill:#002c4b"/><path d="M90.0307,78.8474h19.9249a3.412,3.412,0,0,1,2.9615,1.7127l9.99,17.4a3.4118,3.4118,0,0,1,0,3.3981l-9.99,17.4a3.4118,3.4118,0,0,1-2.9546,1.7127H90.0307a3.4118,3.4118,0,0,1-2.9614-1.7127l-9.9829-17.4a3.4118,3.4118,0,0,1,0-3.3981l9.9829-17.4A3.4118,3.4118,0,0,1,90.0307,78.8474Zm17.4616,4.2852a3.4118,3.4118,0,0,1,2.9614,1.7127l7.5128,13.115a3.4113,3.4113,0,0,1,0,3.3981l-7.5128,13.115a3.4118,3.4118,0,0,1-2.9614,1.7127H92.5009a3.412,3.412,0,0,1-2.9615-1.7127l-7.52-13.115a3.4118,3.4118,0,0,1,0-3.3981l7.52-13.1081a3.4118,3.4118,0,0,1,2.9615-1.7128h14.9914Zm-2.6612,4.681H95.1553a3.4118,3.4118,0,0,0-2.9547,1.7127L87.3559,97.96a3.4118,3.4118,0,0,0,0,3.3981l4.8447,8.434a3.4119,3.4119,0,0,0,2.9547,1.7059h9.6622a3.4118,3.4118,0,0,0,2.9614-1.7059l4.8448-8.434a3.4118,3.4118,0,0,0,0-3.3981l-4.8448-8.434a3.4118,3.4118,0,0,0-2.9614-1.7059Zm-2.5725,4.4831a3.4116,3.4116,0,0,1,2.9546,1.7059l2.2723,3.9577a3.4118,3.4118,0,0,1,0,3.3981l-2.2723,3.9577a3.4116,3.4116,0,0,1-2.9546,1.7059h-4.524a3.412,3.412,0,0,1-2.9615-1.7059l-2.2722-3.9577a3.4118,3.4118,0,0,1,0-3.3981l2.2722-3.9577a3.4119,3.4119,0,0,1,2.9615-1.7059Zm-2.2654,4.4149a2.9478,2.9478,0,1,0-.0027,5.8956h.0027a2.9478,2.9478,0,0,0,.0027-5.8956ZM76.1106,99.6594h5.3019" style="fill:#ffd94c;fill-rule:evenodd"/><path d="M72.6033,109.1169a1.849,1.849,0,0,1,2.524.6842l.0144.0254.3207.5732q3.8894,6.8987,8.12,13.1013Q88.8266,131.17,94.78,138.315a1.897,1.897,0,0,1-.2048,2.6271l-.4094.3617q-20.5833,17.9835-26.7553,7.1852-6.0388-10.563,4.3671-38.4032A1.8848,1.8848,0,0,1,72.6033,109.1169Zm58.4577,14.1112a1.8423,1.8423,0,0,1,2.1358,1.467l.1023.5459q5.0871,26.6121-7.1647,26.6189-11.9754,0-30.5015-22.7021a1.856,1.856,0,0,1,1.4466-3.03h.6482q7.81.0511,15.1689-.5391,9.1333-.7458,18.1644-2.3609Zm4.6946-37.6867a1.9244,1.9244,0,0,1,2.4156-1.1328l.5459.1843q26.438,9.0071,20.0955,19.802-6.213,10.5528-36.1242,15.3668a1.9542,1.9542,0,0,1-1.2828-.232,1.8629,1.8629,0,0,1-.7016-2.5393l.0193-.0332.3411-.5732q4.0942-6.8577,7.3832-13.64,4.0629-8.4167,7.3012-17.1954Zm-58.4577-5.302a1.9547,1.9547,0,0,1,1.2828.232,1.8629,1.8629,0,0,1,.7017,2.5393l-.0193.0332-.3412.5732q-4.0941,6.8577-7.3831,13.64-4.063,8.4167-7.3012,17.1954a1.9243,1.9243,0,0,1-2.4224,1.14l-.5459-.1843q-26.4278-9.007-20.0955-19.8021,6.2129-10.5526,36.1241-15.3667Zm28.5226-21.5421q20.5835-17.9835,26.7553-7.1852,6.039,10.563-4.3671,38.4032a1.8492,1.8492,0,0,1-3.364.2593l-.3207-.5732q-3.7835-6.7181-8.12-13.1013-5.244-7.6685-11.1975-14.814a1.8971,1.8971,0,0,1,.2047-2.6271ZM74.5344,47.4589q11.9856,0,30.5014,22.7021a1.856,1.856,0,0,1-1.44,3.03h-.6482q-7.81-.0512-15.1688.5391-9.1335.746-18.1645,2.361a1.8424,1.8424,0,0,1-2.1357-1.4671l-.1024-.5459Q62.2792,47.4658,74.5344,47.4589Z" style="fill:#ff4154;fill-rule:evenodd"/></svg>