<svg id="ed1c22cb-3834-4939-95d6-d91182b092a5" data-name="Capa 1" xmlns="http://www.w3.org/2000/svg" width="200" height="200" viewBox="0 0 200 200"><circle cx="100" cy="100" r="13.0519" style="fill:#61dafb"/><path d="M149.5742,78.4758c-2.5187-.9159-5.152-1.8318-7.9-2.6332.687-2.7478,1.2594-5.4956,1.7174-8.1288,2.4043-15.1127-.229-25.76-7.5564-29.882A14.2231,14.2231,0,0,0,128.508,36c-8.0143,0-18.2039,5.9535-28.508,15.9141C89.6959,41.9535,79.5063,36,71.4919,36a14.223,14.223,0,0,0-7.3273,1.8318c-7.3274,4.2362-9.9607,14.8838-7.5564,29.882.458,2.6332,1.03,5.381,1.7174,8.1288a79.8264,79.8264,0,0,0-7.9,2.6332C36.1145,83.9714,28.3292,91.5277,28.3292,100s7.9,16.0286,22.0966,21.5242c2.5187.9159,5.152,1.8318,7.9,2.6332-.687,2.7478-1.2594,5.4956-1.7174,8.1288-2.4043,15.1127.229,25.76,7.5564,29.882A14.223,14.223,0,0,0,71.4919,164C79.6207,164,89.81,158.0465,100,148.0859,110.3041,158.0465,120.4937,164,128.508,164a14.2231,14.2231,0,0,0,7.3274-1.8318c7.3274-4.2362,9.9607-14.8838,7.5564-29.882-.458-2.6332-1.03-5.381-1.7174-8.1288a79.8264,79.8264,0,0,0,7.9-2.6332c14.3113-5.4956,22.0966-13.0519,22.0966-21.5242S163.8855,83.9714,149.5742,78.4758ZM132.63,43.5563c4.6941,2.7478,6.297,11.22,4.3506,23.2416a68.9631,68.9631,0,0,1-1.6028,7.5563,136.0255,136.0255,0,0,0-18.8909-2.8623A165.19,165.19,0,0,0,104.58,56.6082c8.4723-8.3578,17.059-14.0823,24.0429-14.0823A7.735,7.735,0,0,1,132.63,43.5563ZM119.8068,111.449c-2.0608,3.6637-4.4651,7.3274-6.9839,10.9911-4.2361.3434-8.4723.4579-12.8229.4579-4.4651,0-8.7012-.1145-12.8229-.4579q-3.7782-5.4956-6.8694-10.9911c-2.1753-3.7782-4.2361-7.6708-6.068-11.449,1.8319-3.7782,3.8927-7.6708,6.068-11.449,2.0608-3.6637,4.4651-7.3274,6.9839-10.9911,4.2361-.3434,8.4723-.4579,12.8229-.4579,4.4651,0,8.7012.1145,12.8229.4579q3.7782,5.4956,6.8694,10.9911c2.1753,3.7782,4.2361,7.6708,6.068,11.449C123.9285,103.7782,121.9821,107.5563,119.8068,111.449Zm9.5027-3.7782c1.7173,4.0072,3.0912,7.9,4.3506,11.7925-3.8927.916-8.0143,1.6029-12.3649,2.1753,1.3739-2.1753,2.8622-4.4651,4.1216-6.8694C126.7907,112.3649,128.05,109.9606,129.31,107.6708ZM100,138.6977c-2.7478-2.9768-5.381-6.1825-7.9-9.5027,2.6332.1145,5.2665.229,7.9.229s5.2665-.1145,7.9-.229C105.381,132.5152,102.7478,135.7209,100,138.6977ZM78.7048,121.5242c-4.3506-.5725-8.4722-1.2594-12.3649-2.1754,1.2594-3.7781,2.6333-7.7853,4.3506-11.7925,1.2594,2.29,2.5188,4.6941,3.8927,6.9839C75.9571,117.059,77.3309,119.2343,78.7048,121.5242Zm-8.0143-29.195c-1.7173-4.0072-3.0912-7.9-4.3506-11.7925,3.8927-.9159,8.0143-1.6029,12.3649-2.1753-1.3739,2.1753-2.8622,4.4651-4.1216,6.8694C73.2093,87.6351,71.95,90.0394,70.6905,92.3292ZM100,61.3023c2.7478,2.9768,5.381,6.1825,7.9,9.5027-2.6333-.1145-5.2665-.229-7.9-.229s-5.2665.1145-7.9.229C94.619,67.4848,97.2522,64.2791,100,61.3023Zm25.4168,24.043-4.1216-6.8695c4.3506.5725,8.4722,1.2594,12.3649,2.1754-1.2594,3.7781-2.6333,7.7853-4.3506,11.7924C128.05,90.0394,126.7907,87.6351,125.4168,85.3453ZM63.02,66.7979c-1.9464-12.0215-.3435-20.4938,4.3506-23.2416a7.735,7.735,0,0,1,4.0072-1.03c6.8694,0,15.4561,5.61,24.0429,14.0823A150.5008,150.5008,0,0,0,83.5134,71.492a155.6467,155.6467,0,0,0-18.8909,2.8622C63.9356,71.7209,63.4776,69.2021,63.02,66.7979ZM34.7406,100c0-5.381,6.5259-11.1055,17.975-15.3417a68.66,68.66,0,0,1,7.3273-2.4043,166.9062,166.9062,0,0,0,6.8694,17.8605,144.2892,144.2892,0,0,0-6.8694,17.746C44.2433,113.2809,34.7406,106.4114,34.7406,100Zm32.63,56.4437c-4.6941-2.7478-6.297-11.22-4.3506-23.2416a68.94,68.94,0,0,1,1.6028-7.5563,136.0108,136.0108,0,0,0,18.8909,2.8622A165.1783,165.1783,0,0,0,95.42,143.3918c-8.4723,8.3578-17.059,14.0823-24.0429,14.0823A7.735,7.735,0,0,1,67.37,156.4437Zm69.61-23.2416c1.9464,12.0215.3435,20.4938-4.3506,23.2416a7.735,7.735,0,0,1-4.0072,1.03c-6.8694,0-15.4561-5.61-24.0429-14.0823a150.5008,150.5008,0,0,0,11.907-14.8838,155.6467,155.6467,0,0,0,18.8909-2.8622C136.0644,128.2791,136.5224,130.7979,136.98,133.2021Zm10.3041-17.86a68.66,68.66,0,0,1-7.3273,2.4043,166.9062,166.9062,0,0,0-6.8694-17.86,144.2892,144.2892,0,0,0,6.8694-17.746c15.8,4.58,25.3023,11.4491,25.3023,17.8605C165.2594,105.381,158.619,111.1055,147.2844,115.3417Z" style="fill:#61dafb"/></svg>