<svg id="b7ce05e9-3bc6-419d-a644-22121e34c3d1" data-name="Capa 1" xmlns="http://www.w3.org/2000/svg" width="200" height="200" viewBox="0 0 200 200"><path d="M101.5493,39.2129c.95.2032,1.9011.398,2.8485.6108,9.3518,2.1006,16.1276,7.6973,21.0885,15.6773a49.3672,49.3672,0,0,1,6.8171,20.37c.13,1.0564.2239,2.1173.3567,3.389-1.507-.4682-2.8394-.8868-4.1749-1.2956-1.2874-.394-2.9626-.42-3.7552-1.2706-.74-.7941-.4958-2.47-.7663-3.741a40.2883,40.2883,0,0,0-8.64-18.3159c-4.51-5.2436-10.1689-8.1874-17.1939-7.4885-8.9281.8883-16.2988,4.582-21.2671,12.4549a46.6393,46.6393,0,0,0-7.0772,22.0692,59.719,59.719,0,0,0,4.3549,27.7152c.95,2.2623,2.1639,4.4125,3.2062,6.6378a2.17,2.17,0,0,0,2.3446,1.4271,9.0949,9.0949,0,0,1,2.299,17.9172,8.6316,8.6316,0,0,1-9.2832-3.0793,8.7919,8.7919,0,0,1-1.327-9.5994,1.6239,1.6239,0,0,0-.0609-1.2559,73.3937,73.3937,0,0,1-8.9722-25.3138c-2.11-14.63-.0811-28.5423,8.1981-41.0487A34.6009,34.6009,0,0,1,92.8629,39.806c.91-.1933,1.8183-.3952,2.7274-.5931Z" style="fill:#764bbc"/><path d="M164,134.0806c-.2766,1.2573-.5429,2.5169-.8314,3.7713-1.8313,7.9615-6.87,13.4891-13.6673,17.5116-9.8209,5.8118-20.347,6.727-31.25,3.8207-3.2383-.8632-6.3722-2.1182-9.83-3.2869a60.8093,60.8093,0,0,0,5.2543-4.243c1.5314-1.5415,2.8749-1.5751,4.8748-.8452,6.4773,2.364,13.1651,3.2716,19.9932,1.6474a23.5159,23.5159,0,0,0,17.74-19.3569c.7109-4.9767-.4984-9.6857-2.5261-14.2277-3.8741-8.6782-10.1688-15.1411-18.1647-20.0936a62.4534,62.4534,0,0,0-35.088-9.5438,1.3918,1.3918,0,0,0-1.3469.8785,9.0747,9.0747,0,1,1-9.9995-13.3289,8.852,8.852,0,0,1,9.5629,3.7549,1.742,1.742,0,0,0,1.7235.8838c11.6041-.1531,22.7535,1.9088,33.1841,7.1386,10.72,5.375,19.4187,13.0148,25.4468,23.4818a37.1117,37.1117,0,0,1,4.7047,14.6222,1.8541,1.8541,0,0,0,.22.5028Z" style="fill:#774bbc"/><path d="M36,125.5c.279-1.338.5413-2.68.84-4.0135,1.9706-8.8095,6.74-15.9178,13.3716-21.8725,1.3565-1.2182,2.8269-2.31,4.2487-3.4547a3.2427,3.2427,0,0,1,.4386-.2461c.6888,2.57,1.39,5.0717,1.9958,7.596a1.4742,1.4742,0,0,1-.5718,1.1079,38.7747,38.7747,0,0,0-10.687,13.2321,23.9325,23.9325,0,0,0,4.4811,27.82c3.8183,3.848,8.6664,5.6221,13.9528,6.2861,11.0412,1.3867,21.0172-1.6133,30.4117-7.2625,9.2667-5.5723,16.997-12.6035,22.1432-22.2526a1.5062,1.5062,0,0,0-.1384-1.9734,9.0967,9.0967,0,1,1,16.3237-5.5544,8.9639,8.9639,0,0,1-7.0539,8.98,2.0971,2.0971,0,0,0-1.5869,1.1809c-9.4467,18.3841-24.4209,29.4566-44.5576,33.8116-7.9847,1.7269-15.8363,1.6991-23.5785-.98-7.3966-2.5593-13.3634-6.9026-16.8387-14.1608a34.323,34.323,0,0,1-2.9375-10.1257A3.8429,3.8429,0,0,0,36,132.8888Z" style="fill:#774bbc"/></svg>