<svg id="eedc0acc-27ca-4c56-9d30-0ff3e1ae2cbe" data-name="Capa 1" xmlns="http://www.w3.org/2000/svg" width="200" height="200" viewBox="0 0 200 200"><path d="M157.1681,98.5812l-4.8661-3.015q-.0617-.7117-.1386-1.4189l4.19-3.9017a1.6739,1.6739,0,0,0-.5554-2.7933l-5.3538-1.9953c-.1341-.4633-.2749-.9233-.419-1.3855l3.3364-4.6334a1.6755,1.6755,0,0,0-1.0863-2.6315l-5.642-.9178c-.2195-.4278-.4478-.849-.6784-1.2636l2.3721-5.21a1.6766,1.6766,0,0,0-1.5828-2.3732l-5.7308.2q-.4438-.5553-.9045-1.0974l1.3191-5.5755a1.6792,1.6792,0,0,0-2.0207-2.0207l-5.5755,1.319q-.5421-.4588-1.1-.9045l.2006-5.7307a1.6777,1.6777,0,0,0-2.3732-1.584L125.3609,54.02c-.42-.2306-.8413-.4589-1.2636-.6795l-.92-5.642a1.6755,1.6755,0,0,0-2.6315-1.0863l-4.6334,3.3364q-.6849-.2178-1.3744-.4178l-1.9953-5.3539a1.673,1.673,0,0,0-2.7933-.5575l-3.9017,4.19c-.4711-.0521-.9456-.1-1.4189-.1385l-3.015-4.8772A1.6775,1.6775,0,0,0,99.9839,42a1.6522,1.6522,0,0,0-1.4188.7937L95.55,47.6709c-.4744.0388-.9488.0864-1.4188.1385L90.23,43.62a1.673,1.673,0,0,0-2.7933.5575L85.441,49.5309c-.4634.133-.9223.2737-1.3745.4178l-4.6334-3.3364a1.6754,1.6754,0,0,0-2.6314,1.0863l-.92,5.642q-.6384.3309-1.2636.6795L69.4193,51.648a1.6777,1.6777,0,0,0-2.3732,1.584l.2,5.7307q-.5555.444-1.1.9045l-5.5756-1.319A1.6792,1.6792,0,0,0,58.55,60.5689l1.308,5.5755q-.4572.5421-.9023,1.0974l-5.7307-.2a1.6776,1.6776,0,0,0-1.584,2.3732l2.3721,5.21c-.2306.4179-.4589.8391-.68,1.2636l-5.642.9178a1.6755,1.6755,0,0,0-1.0863,2.6315l3.3364,4.6334c-.1452.4578-.2859.9178-.419,1.3855l-5.3538,1.9953a1.6738,1.6738,0,0,0-.5553,2.7933l4.19,3.9017c-.0521.4711-.0986.9456-.1385,1.4189l-4.8662,3.015a1.6763,1.6763,0,0,0-.7936,1.43,1.6508,1.6508,0,0,0,.7936,1.4188l4.8662,3.015q.06.7116.1385,1.4188l-4.19,3.9018a1.6738,1.6738,0,0,0,.5553,2.7933l5.3538,1.9952c.1331.4634.2738.9234.419,1.3856l-3.3364,4.6334a1.6735,1.6735,0,0,0,1.0974,2.6314l5.642.9178q.3309.6418.68,1.2637l-2.3721,5.1986a1.6776,1.6776,0,0,0,1.584,2.3732l5.72-.2006c.2982.3725.5986.7371.9045,1.1l-1.308,5.5755a1.6754,1.6754,0,0,0,2.0207,2.0086l5.5756-1.308c.3624.3081.7293.6074,1.1.9023l-.2,5.7307a1.6755,1.6755,0,0,0,2.3732,1.5818l5.1986-2.3721q.6285.349,1.2637.6794l.92,5.6421a1.69,1.69,0,0,0,1.0131,1.2858,1.6714,1.6714,0,0,0,1.6184-.1873l4.6333-3.3365c.4578.1452.9178.2871,1.3856.42L87.45,155.833a1.674,1.674,0,0,0,2.7933.5553l3.9018-4.19c.4711.0544.9455.1,1.4188.1419l3.015,4.8661A1.6751,1.6751,0,0,0,99.9972,158a1.7,1.7,0,0,0,1.43-.7937l3.015-4.8661c.4745-.0421.9478-.0876,1.4189-.1419l3.9017,4.19a1.6739,1.6739,0,0,0,2.7933-.5553l1.9953-5.3539c.4633-.133.9233-.2749,1.3855-.42l4.6334,3.3365a1.6746,1.6746,0,0,0,2.6315-1.0985l.92-5.6421c.4256-.22.8468-.45,1.2636-.6794l5.1987,2.3721a1.6756,1.6756,0,0,0,2.3732-1.5818l-.2-5.7307c.37-.296.7371-.5942,1.0984-.9023l5.5756,1.308a1.6754,1.6754,0,0,0,2.0207-2.0086l-1.308-5.5755c.306-.3625.6074-.7271.9023-1.1l5.7307.2007a1.6767,1.6767,0,0,0,1.5829-2.3733l-2.3721-5.1986q.3475-.63.6784-1.2637l5.642-.9178a1.6755,1.6755,0,0,0,1.0863-2.6314l-3.3364-4.6334c.144-.4578.2848-.9178.4189-1.3856l5.3539-1.9952a1.6738,1.6738,0,0,0,.5553-2.7933l-4.19-3.9018c.051-.4711.0975-.9455.1385-1.4188l4.8661-3.015a1.67,1.67,0,0,0,.7937-1.4188,1.6963,1.6963,0,0,0-.7925-1.43ZM124.58,139.04a4.4906,4.4906,0,1,1,.011,0Zm-1.6516-11.1954a3.1309,3.1309,0,0,0-3.7245,2.4165l-1.7291,8.07a42.5057,42.5057,0,0,1-35.36-.1662l-1.7292-8.07a3.1368,3.1368,0,0,0-3.7244-2.4164l-7.1274,1.53a43.0616,43.0616,0,0,1-3.68-4.3451h34.6947c.3924,0,.654-.071.654-.4279V112.1309c0-.3569-.2616-.4278-.654-.4278H90.4057v-7.77h10.9627c1.0009,0,5.3538.286,6.7394,5.8526.4356,1.7071,1.3966,7.2715,2.0506,9.0561.6518,1.9953,3.3032,5.9857,6.13,5.9857H133.58a3.5431,3.5431,0,0,0,.6263-.0621,43.3021,43.3021,0,0,1-3.9239,4.6112l-7.2937-1.5629ZM74.9317,138.8736a3.4513,3.4513,0,1,1,2.6492-4.1013A3.4408,3.4408,0,0,1,74.9317,138.8736ZM61.7411,85.5568a3.4462,3.4462,0,1,1-4.5447-1.7514A3.4578,3.4578,0,0,1,61.7411,85.5568Zm-4.0459,9.5771,7.4266-3.3032A3.1372,3.1372,0,0,0,66.718,87.685l-1.53-3.4583h6.0079V111.273H59.114a42.7227,42.7227,0,0,1-1.3756-16.1946Zm32.5886-2.6271V84.5259h14.2991c.7393,0,5.2208.8547,5.2208,4.2011,0,2.7822-3.4362,3.78-6.2627,3.78H90.2838ZM142.27,99.69c0,1.06-.0388,2.1061-.1164,3.148h-4.3562c-.4356,0-.6108.286-.6108.7128v1.9952c0,4.7-2.6492,5.7307-4.9769,5.9857-2.2169.2494-4.6666-.9267-4.9659-2.2834-1.308-7.3491-3.4806-8.912-6.9168-11.6388,4.2676-2.7047,8.7014-6.7062,8.7014-12.0822,0-5.7751-3.9572-9.4108-6.6507-11.1954a18.9154,18.9154,0,0,0-9.1116-2.9929H68.2632a42.6635,42.6635,0,0,1,23.721-13.4123l5.31,5.5645a3.14,3.14,0,0,0,4.4449.1019l5.9413-5.6753a42.48,42.48,0,0,1,29.0416,20.7282l-4.068,9.178a3.1446,3.1446,0,0,0,1.5961,4.1456l7.8257,3.4806c.1353,1.3855.2062,2.7933.2062,4.2121ZM97.2671,53.2453a104.18,104.18,0,1,1,0-.0011Zm40.3478,32.4778a3.4462,3.4462,0,1,1,1.7514,4.5557A3.4379,3.4379,0,0,1,137.6149,85.7231Z"/></svg>