<svg id="f6a14507-2e1d-4517-8f44-27c80b026a0e" data-name="Capa 1" xmlns="http://www.w3.org/2000/svg" width="200" height="200" viewBox="0 0 200 200"><path d="M65.8777,115.3448c2.31-1.2615,4.7843-2.61,7.256-3.9641,1.2609-.6907,2.4965-1.431,3.7814-2.0733a7.6393,7.6393,0,0,0,2.4839-2.0757,18.0329,18.0329,0,0,1,7.6136-5.7716,9.9489,9.9489,0,0,1,3.5829-.5312,3.115,3.115,0,0,1,2.8011,2.1788,10.091,10.091,0,0,1,.3769,5.2664c-.0165.1289-.0347.2576-.0728.54a3.1876,3.1876,0,0,1,2.7878-.5139,1.9421,1.9421,0,0,1,1.4186,2.4674c-1.048,4.3683-2.1414,8.7265-3.12,13.11a14.3118,14.3118,0,0,0-.0317,3.0473l.2151.0736c.4733-.8426,1.0072-1.6573,1.41-2.5323q3.4038-7.3965,6.7494-14.82c1.18-2.62,2.3406-5.25,3.4288-7.9089a34.0588,34.0588,0,0,0,1.1932-3.8022,2.008,2.008,0,0,1,1.5122-1.55,13.35,13.35,0,0,1,4.7487-.3683,3.2355,3.2355,0,0,1,1.0693.298,1.1252,1.1252,0,0,1,.71,1.5353c-.5028,1.6783-1.0122,3.3634-1.3575,5.0781a14.0532,14.0532,0,0,0,2.016,9.1173c.2042-.3072.4063-.5679.5628-.8536,2.0329-3.7112,4.1653-7.3734,6.0416-11.1623a35.3591,35.3591,0,0,0,1.96-5.8859,2.08,2.08,0,0,1,1.6492-1.6157,11.8147,11.8147,0,0,1,5.0632-.2455c1.3188.2489,1.6282.8249,1.2689,2.0967a41.1449,41.1449,0,0,0-1.22,4.4566,14.06,14.06,0,0,0,1.8335,9.2908c.3213.5771.6222,1.1656.8638,1.62,2.2919-.68,4.4681-1.5164,6.7216-1.9581,5.5851-1.0945,11.0375-.7181,16.0415,2.2962a13.6319,13.6319,0,0,1,6.7168,8.746c1.0971,4.738-1.2556,8.1649-5.215,10.1643a2.5316,2.5316,0,0,1-1.0761.2434,2.2239,2.2239,0,0,1-.7544-.2864,4.1772,4.1772,0,0,1,.361-.7558,1.9213,1.9213,0,0,1,.52-.3624c3.8235-2.5131,4.606-6.2883,2.1306-10.139a11.38,11.38,0,0,0-5.7218-4.5362,25.6521,25.6521,0,0,0-17.8906-.1833,1.4434,1.4434,0,0,0-.2552.1738c.175.6167.34,1.2523.5355,1.8785a8.2907,8.2907,0,0,1-2.1683,8.8733,17.1974,17.1974,0,0,1-9.1116,4.8c-1.6918.34-3.2211-1.1882-3.2863-3.1979a10.3764,10.3764,0,0,1,1.2454-4.8193,23.0308,23.0308,0,0,1,5.2668-6.6695c.3086-.2916.6138-.5868.9615-.92A32.2233,32.2233,0,0,1,125.95,103.16c-.7051,1.3233-1.27,2.4921-1.9314,3.6031-1.6747,2.8121-3.3706,5.6123-5.1105,8.3844a2.1781,2.1781,0,0,0-.2616,1.9413,26.0177,26.0177,0,0,1,1.0737,4.64,8.434,8.434,0,0,1-3.6524,7.8059,15.35,15.35,0,0,1-10.0293,3.3105c-1.0217-.0394-2.1494-.0331-2.6924-1.1747a2.6516,2.6516,0,0,1,.64-2.88c2.18-2.7908,4.4193-5.5344,6.6376-8.2948.4671-.5812.9425-1.1557,1.41-1.7363a1.3716,1.3716,0,0,0,.2184-1.5651,41.96,41.96,0,0,1-3.6664-10.0062c-.5276,1.1936-1.0841,2.3754-1.5779,3.5827a177.942,177.942,0,0,1-9.6641,19.6982,10.6222,10.6222,0,0,1-3.1954,3.6257,2.9562,2.9562,0,0,1-4.6862-1.4368,12.5809,12.5809,0,0,1-.6438-5.8181,6.51,6.51,0,0,0-.0281-1.7087c-.6573,1.4343-1.2654,2.8938-1.9842,4.2965A47.8168,47.8168,0,0,1,83.84,134.789a4.4044,4.4044,0,0,1-7.0784-.0583,17.4728,17.4728,0,0,1-3.0586-8.3762,28.4143,28.4143,0,0,1,1.3556-11.17c.028-.0973.0487-.1967.1317-.5351l-6.9781,4a41.3222,41.3222,0,0,1,1.1758,4.6993c1.1407,8.69-1.5693,15.8406-8.7378,21.0968a18.2984,18.2984,0,0,1-12.3661,3.6772c-1.7178-.1189-3.5251-.2146-5.02-1.3254a8.3775,8.3775,0,0,1-3.1046-5.8362c-.71-4.7115,1.1761-8.57,4.3311-11.8438a50.2242,50.2242,0,0,1,11.8639-8.5925c1.4988-.843,3.0271-1.6334,4.7075-2.5369-1.4291-1.03-2.7451-1.9647-4.0471-2.9187-3.9724-2.91-7.9877-5.7656-11.8916-8.7655a32.0075,32.0075,0,0,1-6.5673-7.0462c-2.9565-4.19-3.6709-8.5272-1.572-13.3842a37.6812,37.6812,0,0,1,7.2718-10.9852C50.3714,68.39,57.76,63.7069,65.697,59.8054A95.0353,95.0353,0,0,1,82.33,53.3229a42.65,42.65,0,0,1,18.59-.8513,21.338,21.338,0,0,1,11.7765,5.6444A13.2611,13.2611,0,0,1,116.4551,69.99c-1.264,9.0246-6.5955,15.3392-13.9031,20.1844-5.0367,3.3394-10.75,4.9223-16.6847,5.76A31.7294,31.7294,0,0,1,74.44,95.7608,13.0562,13.0562,0,0,1,67.29,91.8037a13.2571,13.2571,0,0,1-1.77-3.0711c-.1262-.2592.1235-.7015.2-1.06.3472.1.8163.0892,1.0229.3168a12.64,12.64,0,0,0,9.1472,3.9316,36.8512,36.8512,0,0,0,18.5222-4.2685,32.1494,32.1494,0,0,0,11.8272-9.7886,15.4358,15.4358,0,0,0,3.4342-9.3531,6.8108,6.8108,0,0,0-3.7011-6.27,18.4551,18.4551,0,0,0-7.54-2.1344c-8.5737-.7413-16.582,1.4428-24.31,4.849a82.9409,82.9409,0,0,0-18.311,10.8207A31.8692,31.8692,0,0,0,47.5535,85c-3.2565,5.79-2.6076,11.8324,2.0294,16.5722,2.0965,2.143,4.444,4.0487,6.7467,5.98C59.4471,110.1665,62.631,112.7015,65.8777,115.3448Zm-2.303,6.0273c-1.9222,1.2141-3.7507,2.2983-5.5041,3.4927a33.6067,33.6067,0,0,0-7.7729,6.5652,11.0669,11.0669,0,0,0-2.8055,7.526,2.6026,2.6026,0,0,0,2.3942,2.7205,7.8219,7.8219,0,0,0,4.71-.8685,16.4367,16.4367,0,0,0,9.4952-12.498A15.28,15.28,0,0,0,63.5747,121.3721Zm15.9792,2.9644c.163.7637.46,2.2924.8338,3.8022.0831.3358.442.8564.66.85a2.4084,2.4084,0,0,0,1.1166-.59,1.3349,1.3349,0,0,0,.3421-.5323c1.02-2.19,2.1248-4.347,3.03-6.5841A65.6569,65.6569,0,0,0,89.9212,107.57a1.5239,1.5239,0,0,0-.2257-1.2113,1.6207,1.6207,0,0,0-1.2529-.0305,6.5,6.5,0,0,0-3.226,2.2471A25.5281,25.5281,0,0,0,79.5539,124.3365Zm51.2248-7.7258c-2.3108,1.4125-5.331,6.8526-4.8308,8.7014C129.6716,124.7318,132.342,120.0737,130.7787,116.6107ZM113.93,122.21l-6.3075,7.359C109.8913,129.97,113.56,125.7347,113.93,122.21Z" style="fill:#ca6699"/></svg>