<svg id="a82cbb24-ee42-4e1d-84a0-3fa08d71ae81" data-name="Capa 1" xmlns="http://www.w3.org/2000/svg" xmlns:xlink="http://www.w3.org/1999/xlink" width="200" height="200" viewBox="0 0 200 200"><defs><linearGradient id="a822115b-3e1e-4db0-9236-e3705e174dd0" x1="53.745" y1="163.3761" x2="156.4057" y2="113.4888" gradientTransform="matrix(1, 0, 0, -1, 0, 202)" gradientUnits="userSpaceOnUse"><stop offset="0.1" stop-color="#76b3e1"/><stop offset="0.3" stop-color="#dcf2fd"/><stop offset="1" stop-color="#76b3e1"/></linearGradient><linearGradient id="fbde26e9-3cbb-45f7-bab0-d6298ed76e96" x1="110.1869" y1="139.1162" x2="92.2109" y2="79.2514" gradientTransform="matrix(1, 0, 0, -1, 0, 202)" gradientUnits="userSpaceOnUse"><stop offset="0" stop-color="#76b3e1"/><stop offset="0.5" stop-color="#4377bb"/><stop offset="1" stop-color="#1f3b77"/></linearGradient><linearGradient id="b7333a83-9ca9-41b8-948e-942f43f8703c" x1="46.2463" y1="112.9651" x2="150.0615" y2="42.3806" gradientTransform="matrix(1, 0, 0, -1, 0, 202)" gradientUnits="userSpaceOnUse"><stop offset="0" stop-color="#315aa9"/><stop offset="0.5" stop-color="#518ac8"/><stop offset="1" stop-color="#315aa9"/></linearGradient><linearGradient id="a5341580-b209-47f2-a311-74cac3ff4898" x1="93.2409" y1="104.5564" x2="51.352" y2="-49.0637" gradientTransform="matrix(1, 0, 0, -1, 0, 202)" gradientUnits="userSpaceOnUse"><stop offset="0" stop-color="#4377bb"/><stop offset="0.5" stop-color="#1a336b"/><stop offset="1" stop-color="#1a336b"/></linearGradient></defs><path d="M165.5545,64.8494s-43.703-32.1588-77.511-24.7375l-2.4737.8245c-4.9475,1.6492-9.07,4.123-11.5442,7.4213l-1.6492,2.4738L60.0077,72.2707l21.4392,4.1229c9.07,5.7721,20.6146,8.2458,31.3342,5.7721l37.9308,7.4212Z" style="fill:#76b3e1"/><path d="M165.5545,64.8494s-43.703-32.1588-77.511-24.7375l-2.4737.8245c-4.9475,1.6492-9.07,4.123-11.5442,7.4213l-1.6492,2.4738L60.0077,72.2707l21.4392,4.1229c9.07,5.7721,20.6146,8.2458,31.3342,5.7721l37.9308,7.4212Z" style="opacity:0.30000001192092896;isolation:isolate;fill:url(#a822115b-3e1e-4db0-9236-e3705e174dd0)"/><path d="M74.0256,64.8494l-3.2983.8246c-14.018,4.1229-18.1409,17.3163-10.72,28.86,8.2458,10.72,25.5621,16.4917,39.58,12.3688l51.1242-17.3163S107.009,57.4281,74.0256,64.8494Z" style="fill:#518ac8"/><path d="M74.0256,64.8494l-3.2983.8246c-14.018,4.1229-18.1409,17.3163-10.72,28.86,8.2458,10.72,25.5621,16.4917,39.58,12.3688l51.1242-17.3163S107.009,57.4281,74.0256,64.8494Z" style="opacity:0.30000001192092896;isolation:isolate;fill:url(#fbde26e9-3cbb-45f7-bab0-d6298ed76e96)"/><path d="M141.6415,101.9557a37.1062,37.1062,0,0,0-39.58-12.3688L50.9372,106.0786,34.4455,134.9391l92.3535,15.6671,16.4917-29.6851C146.589,115.149,145.7644,108.5524,141.6415,101.9557Z" style="fill:url(#b7333a83-9ca9-41b8-948e-942f43f8703c)"/><path d="M125.15,130.8161a37.1062,37.1062,0,0,0-39.58-12.3687L34.4455,134.9391s43.703,32.9833,77.511,24.7375l2.4737-.8246C128.4482,154.7291,133.3957,141.5357,125.15,130.8161Z" style="fill:url(#a5341580-b209-47f2-a311-74cac3ff4898)"/></svg>