<svg id="f786029a-b9c0-4d2e-95a7-12fb26cd01f3" data-name="Capa 1" xmlns="http://www.w3.org/2000/svg" xmlns:xlink="http://www.w3.org/1999/xlink" width="200" height="200" viewBox="0 0 200 200"><defs><linearGradient id="b6089542-c819-4f5b-812c-0daff3e84c2b" x1="-944.1578" y1="255.7351" x2="-928.8101" y2="261.0452" gradientTransform="matrix(5.5944, 0, 0, -5.5944, 5340.7026, 1574.0149)" gradientUnits="userSpaceOnUse"><stop offset="0.233" stop-color="#f89822"/><stop offset="1" stop-color="#c27818"/></linearGradient></defs><path d="M56.3614,67.79,141.24,40.8521s6.0264-3.1585,4.5743,2.6865l.2178,25.9574s1.0528,3.8119-4.175,4.7559L107.3687,85.0342Z" style="fill:#f89820"/><path d="M56.3614,67.79s-3.34.7987-2.36,6.4984L53.82,99.3017s-.29,3.1584,5.7,4.4291l84.1165,27.0828s2.8317,1.1254,2.505-2.36l.0363-27.8816s.7987-2.868-4.4291-4.7558l-34.38-10.7823Z" style="fill:#f89820"/><path d="M93.4279,114.622,57.632,125.55s-4.32.1452-3.8119,8.2411-.0363,24.3963-.0363,24.3963.363,3.0132,4.5017,1.2706l84.879-27.0828s3.0132-.7624.4719-1.5974C141.0951,129.9786,93.4279,114.622,93.4279,114.622Z" style="fill:url(#b6089542-c819-4f5b-812c-0daff3e84c2b)"/></svg>