<svg id="a8e60039-86ea-4a53-a73b-462c8276b799" data-name="Capa 1" xmlns="http://www.w3.org/2000/svg" width="200" height="200" viewBox="0 0 200 200"><path d="M153.6363,45.5786c-13.668-19.687-40.8787-25.4551-60.44-13.041l-34.4836,22.07A39.19,39.19,0,0,0,40.9063,81.0654a41.0514,41.0514,0,0,0,4.1381,26.7091,37.8577,37.8577,0,0,0-5.8936,14.7966,42.1913,42.1913,0,0,0,7.1475,31.85c13.7934,19.687,40.8787,25.4551,60.44,13.041l34.4836-21.9441A39.1894,39.1894,0,0,0,159.0283,119.06,41.0514,41.0514,0,0,0,154.89,92.3509a37.8577,37.8577,0,0,0,5.8936-14.7966,41.3159,41.3159,0,0,0-7.1475-31.9757" style="fill:#ff3e00"/><path d="M89.81,156.3023a27.332,27.332,0,0,1-29.3424-10.9094,25.393,25.393,0,0,1-4.3888-19.1854c.2508-1.1285.5016-2.1317.7524-3.26l.627-2.0064,1.7555,1.254a45.7367,45.7367,0,0,0,13.5426,6.7713l1.254.3762-.1254,1.254a8.3936,8.3936,0,0,0,1.3793,5.1411,8.3,8.3,0,0,0,8.9031,3.3857,10.85,10.85,0,0,0,2.1317-.8778l34.3582-21.9441a7.1061,7.1061,0,0,0,3.26-4.765,7.7823,7.7823,0,0,0-1.2539-5.7681,8.23,8.23,0,0,0-8.9031-3.26,10.85,10.85,0,0,0-2.1317.8778l-13.1664,8.4014a23.3251,23.3251,0,0,1-7.0221,3.01,27.3319,27.3319,0,0,1-29.3424-10.9094,25.3267,25.3267,0,0,1-4.2635-19.1854,23.7444,23.7444,0,0,1,10.784-15.9251l34.4836-21.9441a26.55,26.55,0,0,1,36.3645,7.7745,25.3927,25.3927,0,0,1,4.3888,19.1854,31.4017,31.4017,0,0,1-.8778,3.26l-.6269,2.0064-1.7556-1.254a45.7367,45.7367,0,0,0-13.5426-6.7713l-1.254-.3762.1254-1.2539a8.393,8.393,0,0,0-1.3793-5.1412,8.23,8.23,0,0,0-8.903-3.26,10.8447,10.8447,0,0,0-2.1317.8778L79.1518,83.8241a7.1059,7.1059,0,0,0-3.26,4.765,7.7823,7.7823,0,0,0,1.2539,5.7681,8.23,8.23,0,0,0,8.9031,3.26A10.85,10.85,0,0,0,88.18,96.74l13.1665-8.4014a26.55,26.55,0,0,1,36.3645,7.7745A25.393,25.393,0,0,1,142.1,115.2982a23.7444,23.7444,0,0,1-10.784,15.9251L96.8324,153.1674a27.29,27.29,0,0,1-7.0221,3.1349" style="fill:#fff"/></svg>