<svg id="b82e44de-90e7-459c-ab8e-415388a3bed9" data-name="Capa 1" xmlns="http://www.w3.org/2000/svg" width="200" height="200" viewBox="0 0 200 200"><path d="M98.41,56.1945C72.7244,57.0108,65.09,75.359,63.341,85.299,65.6205,81.6145,72.8039,73.53,83.38,73.53c12.3257,0,21.7091,13.7571,27.4346,18.0512A43.3617,43.3617,0,0,0,150.098,98.102C164.73,93.6489,171.5157,78.1156,173,70.7468c-7.0773,9.622-17.8126,15.4014-31.0926,8.5882C132.7625,74.6433,125.9237,55.32,98.41,56.1945Z" style="fill:#07b6d5"/><path d="M62.0686,99.8513C36.3834,100.6677,28.75,119.0158,27,128.9559c2.28-3.6845,9.463-11.7689,20.0392-11.7689,12.3257,0,21.7092,13.7571,27.4347,18.0512a43.3622,43.3622,0,0,0,39.2832,6.5207c14.6318-4.4532,21.4176-19.9864,22.9019-27.3553-7.0773,9.622-17.8126,15.4014-31.0926,8.5883C96.4216,118.3,89.5828,98.9768,62.0686,99.8513Z" style="fill:#07b6d5"/></svg>