<svg id="f564043f-2343-43a8-b48f-f892409f1ffb" data-name="Capa 1" xmlns="http://www.w3.org/2000/svg" width="200" height="200" viewBox="0 0 200 200"><path d="M38.9953,37a1.4073,1.4073,0,0,0-1.3441,1.743l15.1936,61.5092a1.402,1.402,0,0,0,.0525.21L68.07,161.93a1.407,1.407,0,0,0,2.3467.672l91.5446-88.0638a1.4071,1.4071,0,0,0-.588-2.3626l-30.3661-8.7517a1.4073,1.4073,0,0,0-.6458-.1838L70.4954,46.0039a1.4068,1.4068,0,0,0-.756-.21L39.3943,37.0526A1.4085,1.4085,0,0,0,38.9953,37Zm1.9635,3.4335L66.9779,47.92l-19.53,18.816Zm30.7441,8.8516,25.5361,7.35L78.0764,75.089Zm-2.74.63,6.3892,25.8616-25.6043-7.35Zm32.97,8.0745,25.61,7.371L108.3165,83.8933Zm-2.73.6825,6.342,25.7251-25.4784-7.308Zm33.0751,8.0535,25.9718,7.476L138.7456,92.9653Zm-2.751.63,6.3788,25.8616-25.5991-7.34ZM48.5083,71.01l26.0611,7.4761L55.0078,97.3123Zm30.7389,8.7781,25.6043,7.35L85.6364,105.6546Zm-2.72.7192,6.4891,26.3394L56.9608,99.3283Zm32.9387,8.0588,26.0663,7.4813L115.95,114.8737Zm-2.73.6668,6.4838,26.3131-26.03-7.5076ZM56.1786,102.0321l25.5833,7.3815L62.5678,127.91Zm30.7336,8.8568,25.5308,7.3658L93.2909,136.6822Zm-2.835.21,6.3735,25.8668-25.5939-7.35ZM63.6231,132.204l26.4443,7.57-19.8555,19.1Z"/></svg>