<svg id="e9bd7408-63ee-4d6a-98f0-c3a4e90f8d01" data-name="Capa 1" xmlns="http://www.w3.org/2000/svg" width="200" height="200" viewBox="0 0 200 200"><path d="M35.7778,164.2222V35.7778H164.2222V164.2222Zm76.7251-22.6863a20.1376,20.1376,0,0,0,7.6917,8.4888,27.0559,27.0559,0,0,0,23.1988,2.1325,14.6279,14.6279,0,0,0,10.0042-10.274c2.16-7.8294-.5983-15.2288-7.535-19.4763-3.4048-2.0848-7.15-3.61-10.7207-5.4288a39.7717,39.7717,0,0,1-5.2426-2.9045,5.1743,5.1743,0,0,1-1.6916-6.0281,4.891,4.891,0,0,1,4.6343-3.246,7.4566,7.4566,0,0,1,7.1773,3.1654c.4131.5742.909,1.089,1.4633,1.7455l8.9326-5.9891c-4.1743-7.3376-10.4708-9.7363-18.2-9.3906-7.582.339-13.5989,4.64-15.5325,11.2294a16.4417,16.4417,0,0,0,6.6827,18.63,65.7436,65.7436,0,0,0,7.436,4.0125c2.7779,1.4126,5.65,2.6476,8.3823,4.14a5.4875,5.4875,0,0,1-1.1227,10.0659c-4.3949,1.5068-8.534.9757-12.1146-2.1037a52.2782,52.2782,0,0,1-3.9837-4.253ZM92.484,152.9325V105.4693h16.4665V95.1079H64.07v10.4347H80.68v47.39Z" style="fill:#017acb"/><path d="M112.5029,141.5359l9.46-5.4839a52.2782,52.2782,0,0,0,3.9837,4.253c3.5806,3.0794,7.72,3.6105,12.1146,2.1037a5.4875,5.4875,0,0,0,1.1227-10.0659c-2.7325-1.4925-5.6044-2.7275-8.3823-4.14a65.7436,65.7436,0,0,1-7.436-4.0125,16.4417,16.4417,0,0,1-6.6827-18.63c1.9336-6.5893,7.9505-10.89,15.5325-11.2294,7.7291-.3457,14.0256,2.053,18.2,9.3906l-8.9326,5.9891c-.5543-.6565-1.05-1.1713-1.4633-1.7455A7.4566,7.4566,0,0,0,132.842,104.8a4.891,4.891,0,0,0-4.6343,3.246,5.1743,5.1743,0,0,0,1.6916,6.0281,39.7717,39.7717,0,0,0,5.2426,2.9045c3.5706,1.8189,7.3159,3.344,10.7207,5.4288,6.9367,4.2475,9.6946,11.6469,7.535,19.4763a14.6279,14.6279,0,0,1-10.0042,10.274,27.0559,27.0559,0,0,1-23.1988-2.1325A20.1376,20.1376,0,0,1,112.5029,141.5359Z" style="fill:#fbfcfd"/><path d="M92.484,152.9325H80.68v-47.39H64.07V95.1079h44.88v10.3614H92.484Z" style="fill:#fdfdfe"/></svg>