<svg id="b0c6dd7e-a7db-436a-9819-8ba083bbc97a" data-name="Capa 1" xmlns="http://www.w3.org/2000/svg" width="200" height="200" viewBox="0 0 200 200"><path d="M36.9975,80.731s-3.1253-2.2622.63-5.279L46.37,67.6114s2.5048-2.6421,5.151-.3387l80.7133,61.2544v29.3738s-.04,4.613-5.9439,4.1051Z" style="fill:#2489ca"/><path d="M57.8048,99.6623,36.9975,118.6216s-2.1372,1.5931,0,4.4448l9.66,8.8038s2.2941,2.4728,5.6868-.3386l22.0525-16.7653Z" style="fill:#1070b3"/><path d="M94.3284,99.8193l38.1529-29.2034L132.2345,41.4s-1.6292-6.3766-7.0651-3.0551L74.3966,84.6626Z" style="fill:#0877b9"/><path d="M126.29,162.0421a5.2328,5.2328,0,0,0,4.9011,1.5281l29.7321-14.6838c3.8067-2.6019,3.2739-5.8283,3.2739-5.8283V55.3549c0-3.8562-3.9358-5.1871-3.9358-5.1871L134.49,37.7152c-5.63-3.4887-9.32.63-9.32.63s4.7421-3.4247,7.0651,3.0561V157.365a5.2807,5.2807,0,0,1-.5079,2.2859c-.6773,1.3752-2.1538,2.6534-5.6827,2.1176Z" style="fill:#3c99d4"/></svg>