<svg id="b815baaf-f6a2-461b-b24e-f9ac00475407" data-name="Capa 1" xmlns="http://www.w3.org/2000/svg" xmlns:xlink="http://www.w3.org/1999/xlink" width="200" height="200" viewBox="0 0 200 200"><defs><linearGradient id="a8359e9f-bca1-49d4-8ef4-7413237cd0b7" x1="67.5025" y1="1061.2154" x2="143.4102" y2="958.1266" gradientTransform="matrix(1, 0, 0, -1, 0, 1082)" gradientUnits="userSpaceOnUse"><stop offset="0" stop-color="#41d1ff"/><stop offset="1" stop-color="#bd34fe"/></linearGradient><linearGradient id="a16fa08b-ce12-4564-8cde-8ee2a79cced4" x1="103.297" y1="1045.5519" x2="117.0283" y2="951.3563" gradientTransform="matrix(1, 0, 0, -1, 0, 1082)" gradientUnits="userSpaceOnUse"><stop offset="0" stop-color="#ffea83"/><stop offset="0.0833" stop-color="#ffdd35"/><stop offset="1" stop-color="#ffa800"/></linearGradient></defs><path d="M164.4887,54.2411,103.4979,163.3032a3.3149,3.3149,0,0,1-5.7726.0242l-62.2-109.0758a3.3148,3.3148,0,0,1,3.4627-4.9051L100.0439,60.26a3.3152,3.3152,0,0,0,1.1778-.002l59.7792-10.8958A3.315,3.315,0,0,1,164.4887,54.2411Z" style="fill:url(#a8359e9f-bca1-49d4-8ef4-7413237cd0b7)"/><path d="M129.1282,35.032l-45.135,8.844a1.6575,1.6575,0,0,0-1.3358,1.5285L79.881,92.2962a1.6575,1.6575,0,0,0,2.0269,1.7131l12.5663-2.9a1.6573,1.6573,0,0,1,1.9964,1.9468l-3.7334,18.2818a1.6576,1.6576,0,0,0,2.1056,1.9176l7.7615-2.3581a1.6575,1.6575,0,0,1,2.1048,1.9212L98.776,141.5352a1.6573,1.6573,0,0,0,3.0145,1.2357l.6656-1.0285,36.7785-73.3979a1.6574,1.6574,0,0,0-1.7959-2.37l-12.9349,2.4964a1.6575,1.6575,0,0,1-1.9066-2.0869L131.04,37.1178A1.6575,1.6575,0,0,0,129.1282,35.032Z" style="fill:url(#a16fa08b-ce12-4564-8cde-8ee2a79cced4)"/></svg>