<svg id="ab613e56-f6a9-42c3-be7d-30e5d6b0abae" data-name="Capa 1" xmlns="http://www.w3.org/2000/svg" xmlns:xlink="http://www.w3.org/1999/xlink" width="200" height="200" viewBox="0 0 200 200"><defs><linearGradient id="ffabc8d7-9f94-4af0-a66e-34fa4f43de39" x1="-1829.8679" y1="409.3022" x2="-1829.1016" y2="409.3022" gradientTransform="matrix(97.9, 0, 0, -62.6, 179229.2028, 25696.2994)" gradientUnits="userSpaceOnUse"><stop offset="0" stop-color="#2a3b8f"/><stop offset="1" stop-color="#29abe2"/></linearGradient><linearGradient id="b8f59774-d12c-402a-992f-4b36ef91aa3d" x1="-1829.1209" y1="409.5195" x2="-1829.8872" y2="409.5195" gradientTransform="matrix(98, 0, 0, -62.4, 179414, 25679.8006)" gradientUnits="userSpaceOnUse"><stop offset="0" stop-color="#b4d44e"/><stop offset="1" stop-color="#e7f716"/></linearGradient></defs><path d="M161.3793,99.9617,148.046,122.4138,129.3487,99.6552,148.046,77.51Z" style="fill:#166da5;fill-rule:evenodd"/><path d="M146.59,126.2452,126.2835,101.954,114.1,122.3372,133.0268,150Z" style="fill:#8fdb69;fill-rule:evenodd"/><path d="M146.36,73.5249,126.2835,97.8927,114.1,77.51l18.9272-27.3563Z" style="fill:#166da5;fill-rule:evenodd"/><path d="M85.1341,73.5249H146.36L132.8736,50H98.6207Zm41.1494,24.4444h33.87L147.9694,77.433H114.023" style="fill-rule:evenodd;opacity:0.949999988079071;isolation:isolate;fill:url(#ffabc8d7-9f94-4af0-a66e-34fa4f43de39)"/><path d="M146.59,126.3218H85.0575l13.4866,23.3717h34.4827Zm-20.3065-24.4444h33.87l-12.1839,20.5364H114.023" style="fill-rule:evenodd;opacity:0.949999988079071;isolation:isolate;fill:url(#b8f59774-d12c-402a-992f-4b36ef91aa3d)"/><path d="M98.5441,149.6935,69.7318,99.8851,98.9272,50.0766H67.3563L38.6207,99.8851l28.7356,49.8084Z" style="fill:#010101;fill-rule:evenodd"/></svg>