<svg id="f60b5f31-5e90-40ad-8634-06f2837f44f2" data-name="Capa 1" xmlns="http://www.w3.org/2000/svg" width="200" height="200" viewBox="0 0 200 200"><path d="M100,23.4444l67.6647,38.2734v76.5643L100,176.5556,32.3353,138.2821V61.7178Z" style="fill:#fff"/><path d="M155.583,135.642,102.238,165.82v-23.499l33.2379-18.2888,20.1071,11.61Zm3.6542-3.3046V69.2362L139.7246,80.5136v40.5639l19.5126,11.26Zm-115.03,3.3046L97.5522,165.82v-23.499L64.2968,124.0323Zm-3.6542-3.3046V69.2362L60.0656,80.5136v40.5639Zm2.29-67.1926L97.5522,34.1974V56.91L62.4959,76.195l-.28.1573Zm114.1034,0L102.238,34.1974V56.91l35.0563,19.2679.28.1573,19.3728-11.19Z" style="fill:#8ed6fb"/><path d="M97.5522,136.9708,64.7514,118.9269V83.2062l32.8008,18.9356Zm4.6858,0,32.8008-18.0264V83.2062L102.238,102.1418ZM66.9719,79.08,99.8951,60.9835,132.8183,79.08,99.8951,98.0855,66.9719,79.08Z" style="fill:#1c78c0"/></svg>