<svg id="a3c960be-82c6-4e6e-99e4-7eacd42da464" data-name="Capa 1" xmlns="http://www.w3.org/2000/svg" width="200" height="200" viewBox="0 0 200 200"><path d="M45.0952,99.9984a54.9129,54.9129,0,0,0,30.943,49.4123l-26.19-71.7563A54.6934,54.6934,0,0,0,45.0952,99.9984Z" style="fill:#21759c"/><path d="M137.0624,97.2279c0-6.7853-2.4373-11.4844-4.5278-15.1419-2.7831-4.5225-5.3917-8.3524-5.3917-12.8749,0-5.047,3.8278-9.745,9.22-9.745.2434,0,.4743.03.7114.0439A54.8913,54.8913,0,0,0,54.1256,69.8442c1.2881.0386,2.502.0658,3.5331.0658,5.7428,0,14.6321-.6968,14.6321-.6968a2.2685,2.2685,0,0,1,.3521,4.5225s-2.9743.35-6.2839.5234l19.9935,59.47L98.3677,97.6938,89.8136,74.257c-2.9565-.1734-5.7573-.5234-5.7573-.5234-2.9586-.1734-2.6118-4.697.3468-4.5225,0,0,9.067.6968,14.4618.6968,5.7417,0,14.6321-.6968,14.6321-.6968a2.2684,2.2684,0,0,1,.3521,4.5225s-2.9805.35-6.2839.5234l19.841,59.0194,5.4763-18.3C135.2561,107.3824,137.0624,101.928,137.0624,97.2279Z" style="fill:#21759c"/><path d="M100.9616,104.8009,84.4888,152.6681a54.93,54.93,0,0,0,33.7418-.8754,4.8253,4.8253,0,0,1-.3907-.7564Z" style="fill:#21759c"/><path d="M148.1738,73.6573a42.1271,42.1271,0,0,1,.37,5.6456,51.7909,51.7909,0,0,1-4.1746,19.6655l-16.7706,48.4877a54.9126,54.9126,0,0,0,20.5754-73.7988Z" style="fill:#21759c"/><path d="M99.9984,36a64,64,0,1,0,64.0037,63.9984A64.0725,64.0725,0,0,0,99.9984,36Zm0,125.0665a61.066,61.066,0,1,1,61.0629-61.0681A61.137,61.137,0,0,1,99.9984,161.0665Z" style="fill:#21759c"/></svg>